<svg width="200" height="170" viewBox="0 0 200 170" fill="none" xmlns="http://www.w3.org/2000/svg">
<g clip-path="url(#clip0_239_946)" filter="url(#filter0_d_239_946)">
<path d="M180.042 161.467C178.4 161.467 177.069 160.395 177.069 159.073V119.455C177.069 118.133 178.4 117.061 180.042 117.061C181.684 117.061 183.016 118.133 183.016 119.455V159.073C183.015 160.395 181.684 161.467 180.042 161.467Z" fill="#3D5A55"/>
<path d="M19.9578 161.467C18.3156 161.467 16.9844 160.395 16.9844 159.073V119.455C16.9844 118.133 18.3156 117.061 19.9578 117.061C21.6 117.061 22.9312 118.133 22.9312 119.455V159.073C22.9312 160.395 21.6 161.467 19.9578 161.467Z" fill="#3D5A55"/>
<path d="M151.449 7.22021V159.107H44.5863V97.0843L48.5508 94.6715L44.5863 92.2974V52.4603L48.5508 50.0676L44.5863 47.6734V7.22021H151.449Z" fill="#698C94"/>
<path d="M143.1 10.4128V159.106H155.414V97.0855L151.45 94.6918L155.414 92.2985V52.4611L151.45 50.0634L155.414 47.6742V10.4128L149.678 7.22168L143.1 10.4128Z" fill="#4D7C86"/>
<path d="M143.1 121.689V126.974L139.136 129.367L143.1 131.761V159.107H124.627V131.761L128.591 129.367L124.627 126.974V121.689C124.627 120.455 125.869 119.455 127.402 119.455H140.325C141.858 119.455 143.1 120.455 143.1 121.689Z" fill="#3D5A55"/>
<path d="M19.9577 138.643C17.8011 138.643 15.7741 138.835 14.0113 138.051C10.2148 136.362 7.64368 133.107 7.64368 129.368V109.542C7.64368 105.804 10.2148 102.548 14.0113 100.86C15.7741 100.076 17.8011 100.268 19.9577 100.268C26.0648 100.247 28.3074 106.132 28.3074 109.543V129.369C28.3077 133.471 24.2148 138.417 19.9577 138.643Z" fill="#B6EF68"/>
<path d="M19.9577 99.6294C17.8011 99.6294 15.7741 100.076 14.0112 100.86C17.8077 102.548 20.3788 105.803 20.3788 109.542V129.368C20.3788 133.107 17.8077 136.362 14.0112 138.051C15.7741 138.835 17.8011 139.281 19.9577 139.281C26.7585 139.281 32.2718 134.843 32.2718 129.368V109.542C32.2718 104.068 26.7589 99.6294 19.9577 99.6294Z" fill="#66D7AA"/>
<path d="M180.042 138.643C177.886 138.643 175.859 138.835 174.096 138.051C170.299 136.362 167.728 133.107 167.728 129.368V109.542C167.728 105.804 170.299 102.548 174.096 100.86C175.859 100.076 177.886 100.268 180.042 100.268C186.149 100.247 188.392 106.132 188.392 109.543V129.369C188.392 133.471 184.299 138.417 180.042 138.643Z" fill="#B6EF68"/>
<path d="M180.042 99.6294C177.886 99.6294 175.859 100.076 174.096 100.86C177.892 102.548 180.463 105.803 180.463 109.542V129.368C180.463 133.107 177.892 136.362 174.096 138.051C175.859 138.835 177.886 139.281 180.042 139.281C186.843 139.281 192.356 134.843 192.356 129.368V109.542C192.356 104.068 186.843 99.6294 180.042 99.6294Z" fill="#66D7AA"/>
<path d="M75.3734 111.777V126.974L71.4089 129.367L75.3734 131.761V137.046C75.3734 138.279 74.1308 139.28 72.5984 139.28H59.6745C58.1417 139.28 56.8995 138.279 56.8995 137.046V131.761L60.864 129.367L56.8995 126.974V111.777C56.8995 110.543 58.1421 109.543 59.6745 109.543H72.5984C74.1308 109.543 75.3734 110.543 75.3734 111.777Z" fill="#EDF3FF"/>
<path d="M56.8995 126.974H75.3734V131.761H56.8995V126.974Z" fill="#CEDDF4"/>
<path d="M109.237 111.777V126.974L105.273 129.367L109.237 131.761V137.046C109.237 138.279 107.994 139.28 106.462 139.28H93.5382C92.0058 139.28 90.7632 138.279 90.7632 137.046V131.761L94.7276 129.367L90.7632 126.974V111.777C90.7632 110.543 92.0058 109.543 93.5382 109.543H106.462C107.994 109.543 109.237 110.543 109.237 111.777Z" fill="#EDF3FF"/>
<path d="M90.7628 126.974H109.237V131.761H90.7628V126.974Z" fill="#CEDDF4"/>
<path d="M75.3734 67.1689V82.3658L71.4089 84.7594L75.3734 87.1531V92.4378C75.3734 93.6714 74.1308 94.6716 72.5984 94.6716H59.6745C58.1417 94.6716 56.8995 93.6714 56.8995 92.4378V87.1531L60.864 84.7594L56.8995 82.3658V67.1689C56.8995 65.935 58.1421 64.9351 59.6745 64.9351H72.5984C74.1308 64.9351 75.3734 65.9353 75.3734 67.1689Z" fill="#EDF3FF"/>
<path d="M56.8995 82.3662H75.3734V87.1531H56.8995V82.3662Z" fill="#CEDDF4"/>
<path d="M109.237 67.1689V82.3658L105.273 84.7594L109.237 87.1531V92.4378C109.237 93.6714 107.994 94.6716 106.462 94.6716H93.5382C92.0058 94.6716 90.7632 93.6714 90.7632 92.4378V87.1531L94.7276 84.7594L90.7632 82.3658V67.1689C90.7632 65.935 92.0058 64.9351 93.5382 64.9351H106.462C107.994 64.9351 109.237 65.9353 109.237 67.1689Z" fill="#EDF3FF"/>
<path d="M90.7628 82.3662H109.237V87.1531H90.7628V82.3662Z" fill="#CEDDF4"/>
<path d="M143.1 67.1689V82.3658L139.136 84.7594L143.1 87.1531V92.4378C143.1 93.6714 141.858 94.6716 140.325 94.6716H127.402C125.869 94.6716 124.627 93.6714 124.627 92.4378V87.1531L128.591 84.7594L124.627 82.3658V67.1689C124.627 65.935 125.869 64.9351 127.402 64.9351H140.325C141.858 64.9351 143.1 65.9353 143.1 67.1689Z" fill="#EDF3FF"/>
<path d="M124.627 82.3662H143.1V87.1531H124.627V82.3662Z" fill="#CEDDF4"/>
<path d="M75.3734 22.5605V37.7574L71.4089 40.151L75.3734 42.5447V47.8294C75.3734 49.063 74.1308 50.0632 72.5984 50.0632H59.6745C58.1417 50.0632 56.8995 49.063 56.8995 47.8294V42.5447L60.864 40.151L56.8995 37.7574V22.5605C56.8995 21.3269 58.1421 20.3267 59.6745 20.3267H72.5984C74.1308 20.3267 75.3734 21.3269 75.3734 22.5605Z" fill="#EDF3FF"/>
<path d="M56.8995 37.7578H75.3734V42.5447H56.8995V37.7578Z" fill="#CEDDF4"/>
<path d="M109.237 22.5605V37.7574L105.273 40.151L109.237 42.5447V47.8294C109.237 49.063 107.994 50.0632 106.462 50.0632H93.5382C92.0058 50.0632 90.7632 49.063 90.7632 47.8294V42.5447L94.7276 40.151L90.7632 37.7574V22.5605C90.7632 21.3269 92.0058 20.3267 93.5382 20.3267H106.462C107.994 20.3267 109.237 21.3269 109.237 22.5605Z" fill="#EDF3FF"/>
<path d="M90.7628 37.7578H109.237V42.5447H90.7628V37.7578Z" fill="#CEDDF4"/>
<path d="M143.1 22.5605V37.7574L139.136 40.151L143.1 42.5447V47.8294C143.1 49.063 141.858 50.0632 140.325 50.0632H127.402C125.869 50.0632 124.627 49.063 124.627 47.8294V42.5447L128.591 40.151L124.627 37.7574V22.5605C124.627 21.3269 125.869 20.3267 127.402 20.3267H140.325C141.858 20.3267 143.1 21.3269 143.1 22.5605Z" fill="#EDF3FF"/>
<path d="M124.627 37.7578H143.1V42.5447H124.627V37.7578Z" fill="#CEDDF4"/>
<path d="M192.356 161.5H7.64373C6.00154 161.5 4.67029 160.428 4.67029 159.107C4.67029 157.785 6.00154 156.713 7.64373 156.713H192.356C193.998 156.713 195.33 157.785 195.33 159.107C195.33 160.428 193.998 161.5 192.356 161.5Z" fill="#B6EF68"/>
<path d="M124.627 126.974H143.1V131.761H124.627V126.974Z" fill="#314C4B"/>
<path d="M151.449 50.0676L143.1 52.4603H44.5863V47.6733H143.1L151.449 50.0676Z" fill="#4D7C86"/>
<path d="M151.449 94.6919L143.1 97.0843H44.5863V92.2974H143.1L151.449 94.6919Z" fill="#4D7C86"/>
<path d="M143.1 47.6743H155.414V52.4612H143.1V47.6743Z" fill="#3E5956"/>
<path d="M143.1 92.2988H155.414V97.0857H143.1V92.2988Z" fill="#3E5956"/>
<path d="M157.607 7.22175L149.678 10.4131H41.2043C39.6715 10.4131 38.4293 9.41286 38.4293 8.17926V2.73388C38.4293 1.50028 39.6719 0.5 41.2043 0.5H149.678L157.606 3.69138V7.22175H157.607Z" fill="#B6EF68"/>
<path d="M149.678 0.5V10.4128H158.796C160.328 10.4128 161.571 9.41254 161.571 8.17894V2.73387C161.571 1.50028 160.328 0.5 158.796 0.5L149.678 0.5Z" fill="#66D7AA"/>
</g>
<defs>
<filter id="filter0_d_239_946" x="-4" y="0.5" width="208" height="169" filterUnits="userSpaceOnUse" color-interpolation-filters="sRGB">
<feFlood flood-opacity="0" result="BackgroundImageFix"/>
<feColorMatrix in="SourceAlpha" type="matrix" values="0 0 0 0 0 0 0 0 0 0 0 0 0 0 0 0 0 0 127 0" result="hardAlpha"/>
<feOffset dy="4"/>
<feGaussianBlur stdDeviation="2"/>
<feComposite in2="hardAlpha" operator="out"/>
<feColorMatrix type="matrix" values="0 0 0 0 0 0 0 0 0 0 0 0 0 0 0 0 0 0 0.25 0"/>
<feBlend mode="normal" in2="BackgroundImageFix" result="effect1_dropShadow_239_946"/>
<feBlend mode="normal" in="SourceGraphic" in2="effect1_dropShadow_239_946" result="shape"/>
</filter>
<clipPath id="clip0_239_946">
<rect width="200" height="161" fill="white" transform="translate(0 0.5)"/>
</clipPath>
</defs>
</svg>
