<svg width="200" height="162" viewBox="0 0 200 162" fill="none" xmlns="http://www.w3.org/2000/svg">
<g clip-path="url(#clip0_268_845)">
<path d="M38.2167 161.5H33.4699C31.8558 161.5 30.491 160.539 30.2753 159.251L25.4675 130.496L35.8433 124.017L46.2191 130.496L41.4113 159.251C41.196 160.539 39.8308 161.5 38.2167 161.5Z" fill="#ECB780"/>
<path d="M161.783 161.5H166.53C168.144 161.5 169.509 160.539 169.725 159.251L174.532 130.496L162.962 125.399L153.781 130.496L158.589 159.251C158.804 160.539 160.169 161.5 161.783 161.5Z" fill="#ECB780"/>
<path d="M50.0693 86.7105H149.93C149.93 86.7105 155.088 49.1126 162.961 44.7335V12.6376C162.962 5.93406 156.211 0.5 147.884 0.5H52.1158C43.7885 0.5 37.0381 5.93406 37.0381 12.6376V44.7335C44.9111 49.1126 50.0693 86.7105 50.0693 86.7105Z" fill="#D57080"/>
<path d="M147.884 0.5H145.13C146.238 2.18956 146.865 4.11527 146.865 6.15858V32.8296C146.865 35.8989 145.408 38.8743 142.707 41.0406C137.226 45.4353 133.834 51.5172 133.834 58.2367V68.486C133.834 74.9729 127.301 80.2318 119.243 80.2318H50.0693V86.7108H149.93C149.93 86.7108 155.088 49.1129 162.961 44.7335V12.6376C162.962 5.93406 156.211 0.5 147.884 0.5Z" fill="#CB5769"/>
<path d="M50.0694 86.7105V64.7155C50.0694 51.3106 36.5706 40.4441 19.9187 40.4441C13.8808 40.4441 8.98584 44.3845 8.98584 49.245V124.321C8.98584 127.732 12.4202 130.496 16.6565 130.496H33.3327C26.7089 130.497 50.0694 86.7105 50.0694 86.7105Z" fill="#D57080"/>
<path d="M180.081 40.4441C163.429 40.4441 149.93 51.3106 149.93 64.7155V86.7105C149.93 86.7105 173.291 130.497 166.667 130.497H183.343C187.58 130.497 191.014 127.732 191.014 124.322V49.245C191.014 44.3845 186.119 40.4441 180.081 40.4441Z" fill="#D57080"/>
<path d="M24.7344 40.7522C30.4297 45.1674 33.973 51.3691 33.973 58.2367V88.8035C37.1832 87.4661 40.8281 86.7105 44.6918 86.7105H50.0695V64.7154C50.0695 52.6303 39.0973 42.6081 24.7344 40.7522Z" fill="#CB5769"/>
<path d="M180.081 40.4441C178.228 40.4441 176.414 40.5787 174.653 40.8365C174.826 41.4576 174.917 42.1031 174.917 42.7663V95.2967C177.285 98.2374 178.661 101.744 178.661 105.51V120.841C178.661 126.174 173.291 130.496 166.667 130.496H183.343C187.579 130.496 191.014 127.732 191.014 124.321V49.245C191.014 44.3845 186.119 40.4441 180.081 40.4441Z" fill="#CB5769"/>
<path d="M22.0034 124.018H8.98584V124.322C8.98584 127.732 12.4202 130.497 16.6565 130.497H33.3327C28.0909 130.497 23.6351 127.79 22.0034 124.018Z" fill="#CB5769"/>
<path d="M34.1695 105.428H165.829C173.813 105.428 178.102 97.9857 172.877 93.1969L171.714 92.1319C167.497 88.7798 161.702 86.7107 155.307 86.7107H44.6922C37.7383 86.7107 31.4941 89.1575 27.216 93.04L26.5957 93.7261C22.1719 98.6178 26.5801 105.428 34.1695 105.428Z" fill="#E2A2AC"/>
<path d="M171.715 92.1316L172.877 93.1966C178.102 97.9855 173.813 105.428 165.829 105.428H34.1693C26.5795 105.428 22.1717 98.6178 26.5951 93.7259L27.2154 93.0397C23.5592 96.3582 21.3389 100.725 21.3389 105.509V120.841C21.3389 126.174 26.7088 130.496 33.3326 130.496H166.667C173.291 130.496 178.66 126.173 178.66 120.841V105.51C178.661 100.275 176.003 95.5403 171.715 92.1316Z" fill="#DA8993"/>
<path d="M172.877 93.1966L171.715 92.1316C167.849 89.0594 162.659 87.0648 156.897 86.7532C160.428 90.0471 162.564 94.3381 162.564 99.0307V105.428H165.829C173.813 105.428 178.101 97.9854 172.877 93.1966Z" fill="#DA8993"/>
<path d="M171.715 92.1316L172.877 93.1966C178.102 97.9854 173.813 105.428 165.829 105.428H162.564V107.046C162.564 116.419 153.125 124.017 141.482 124.017H22.0034C23.6351 127.789 28.0913 130.496 33.3331 130.496H166.667C173.291 130.496 178.661 126.174 178.661 120.841V105.51C178.661 100.275 176.003 95.5403 171.715 92.1316Z" fill="#D57080"/>
</g>
<defs>
<clipPath id="clip0_268_845">
<rect width="200" height="161" fill="white" transform="translate(0 0.5)"/>
</clipPath>
</defs>
</svg>
