<svg width="200" height="135" viewBox="0 0 200 135" fill="none" xmlns="http://www.w3.org/2000/svg">
<path d="M159.759 42.3053L155.734 10.6285C146.16 6.25102 127.879 0.192627 100 0.192627C69.6032 0.192627 50.6072 7.39649 41.8768 11.7691C38.3473 13.5372 36.2173 16.6571 36.2173 20.0034V39.0659L159.759 42.3053Z" fill="#CF9875"/>
<path d="M158.123 11.7695C157.4 11.4073 156.599 11.0241 155.734 10.6289V39.0663H149.036V37.927C149.036 35.3105 148.232 33.005 140.988 31.4481L59.0121 39.0663H36.2173V50.5793H163.783V20.0038C163.783 16.6572 161.653 13.5373 158.123 11.7695Z" fill="#C27E4E"/>
<path d="M45.2717 134.629H29.1751C27.5083 134.629 26.157 133.542 26.157 132.2V118.432H48.2898V132.2C48.2898 133.542 46.9385 134.629 45.2717 134.629Z" fill="#C27E4E"/>
<path d="M170.825 134.629H154.728C153.062 134.629 151.71 133.542 151.71 132.2V118.432H173.843V132.2C173.843 133.542 172.492 134.629 170.825 134.629Z" fill="#C27E4E"/>
<path d="M170.477 57.8406L154.125 45.5447H44.9207C39.4197 45.5447 34.2169 47.5577 30.7803 51.0158L27.2173 54.6012L170.477 57.8406Z" fill="#F7F9FA"/>
<path d="M182.097 63.9735L169.22 51.0158C165.783 47.5577 160.58 45.5447 155.079 45.5447H154.125L158.25 49.696C159.831 51.2869 158.424 53.6433 155.893 53.6433H33.6532C31.4254 53.6433 29.2496 53.9785 27.2174 54.6008L17.9031 63.9732H182.097V63.9735Z" fill="#DCE6EB"/>
<path d="M189.296 76.8869L167.002 58.5024H32.0435C26.5425 58.5024 21.3396 60.5154 17.903 63.9735L7.93642 74.0025C2.79879 79.172 0 85.5951 0 92.2156L195.976 95.455C195.976 89.8832 193.62 81.2378 189.296 76.8869Z" fill="#B2E5FB"/>
<path d="M192.064 74.0025L182.097 63.9735C178.66 60.5154 173.458 58.5024 167.957 58.5024H167.002L185.272 76.8869C189.596 81.2378 191.952 86.6438 191.952 92.2156H0V118.432L195.976 121.672L200 92.2156C200 85.5951 197.201 79.172 192.064 74.0025Z" fill="#91DAFA"/>
<path d="M191.952 92.2156V116.003C191.952 117.345 190.6 118.432 188.934 118.432H0V120.052C0 122.736 2.70262 124.911 6.03622 124.911H193.964C197.297 124.911 200 122.736 200 120.052V92.2156H191.952Z" fill="#70C6DB"/>
<path d="M131.594 24.9659C125.432 23.6558 115.552 22.8729 100.062 22.869L100.059 22.8687C100.04 22.8687 100.021 22.8687 100.002 22.8687C99.9819 22.8687 99.9618 22.8687 99.9409 22.8687L99.9437 22.869C66.0375 22.8774 59.0117 26.617 59.0117 31.448V39.0662C59.0117 39.0662 70.2866 45.545 100.058 45.545C120.126 45.545 134.998 43.2774 134.998 43.2774V30.1522C134.998 26.1104 131.594 24.9659 131.594 24.9659Z" fill="#F7F9FA"/>
<path d="M131.715 24.9788C132.326 25.464 132.94 26.0753 132.94 26.9127V39.6239C132.94 40.8225 130.519 42.3055 100.059 42.3055C70.2873 42.3055 59.0125 39.0661 59.0125 39.0661V45.545C59.0125 45.545 70.2873 48.7844 100.059 48.7844C129.831 48.7844 140.988 45.545 140.988 45.545V31.4479C140.988 28.8314 138.959 26.5356 131.715 24.9788Z" fill="#DCE6EB"/>
</svg>
