<svg width="200" height="93" viewBox="0 0 200 93" fill="none" xmlns="http://www.w3.org/2000/svg">
<path d="M180.488 88.003L174.87 73.7421H25.1296L19.5113 88.003C18.5394 90.467 20.8251 92.9814 24.0371 92.9814C25.9704 92.9814 27.7114 92.0368 28.4377 90.5948L32.5835 82.3588H167.416L171.562 90.5948C172.288 92.0368 174.028 92.9814 175.963 92.9814C179.175 92.9814 181.46 90.467 180.488 88.003Z" fill="#F9AA4B"/>
<path d="M28.4027 73.7421H25.1297L23.3154 78.3458H176.685L174.87 73.7421H28.4027Z" fill="#C1762B"/>
<path d="M16.4153 23.459L14.4194 60.476H185.58L183.583 23.459C182.899 10.7752 169.926 0.775391 154.156 0.775391H45.8434C30.0719 0.775391 17.1004 10.7752 16.4153 23.459Z" fill="#2176C7"/>
<path d="M183.583 23.459C182.899 10.7752 169.926 0.775391 154.156 0.775391H141.063C156.833 0.775391 169.806 10.7752 170.489 23.459L172.487 60.476H185.58L183.583 23.459Z" fill="#165E9E"/>
<path d="M70.2927 44.1576C59.0942 41.911 47.8958 41.911 36.6974 44.1576C32.663 44.9671 29.8401 47.8979 29.8401 51.2451V56.4913H77.1484V51.2451C77.1484 47.8979 74.3271 44.9659 70.2927 44.1576Z" fill="#7DCDF9"/>
<path d="M117.599 44.1576C106.401 41.911 95.2026 41.911 84.0042 44.1576C79.9698 44.9671 77.1484 47.8979 77.1484 51.2451V56.4913H124.457V51.2451C124.457 47.8979 121.634 44.9659 117.599 44.1576Z" fill="#7DCDF9"/>
<path d="M164.908 44.1576C153.709 41.911 142.511 41.911 131.312 44.1576C127.278 44.9671 124.457 47.8979 124.457 51.2451V56.4913H171.763V51.2451C171.763 47.8979 168.942 44.9659 164.908 44.1576Z" fill="#7DCDF9"/>
<path d="M180.26 28.6057L173.451 47.4029C171.5 52.7879 165.367 56.4913 158.398 56.4913H41.6001C34.6315 56.4913 28.499 52.7879 26.5474 47.4029L19.7389 28.6057C18.2054 24.3753 12.7549 21.9051 7.46778 23.045C2.17756 24.1849 -1.01 28.5185 0.290045 32.8005L7.48761 56.4913L10.0114 64.8071C11.6609 70.2412 17.711 74.065 24.6614 74.065H175.34C182.289 74.065 188.338 70.2437 189.989 64.8096L192.517 56.4913L199.71 32.8005C201.01 28.5185 197.821 24.1849 192.532 23.045C187.244 21.9051 181.793 24.3753 180.26 28.6057Z" fill="#56A6E8"/>
<path d="M192.532 23.045H192.531C189.56 22.4051 186.537 22.9038 184.187 24.2156C187.515 26.0753 189.241 29.4532 188.226 32.8004L181.033 56.4913L178.505 64.8096C176.854 70.2437 170.804 74.065 163.855 74.065H175.34C182.289 74.065 188.338 70.2437 189.989 64.8096L192.517 56.4913L199.71 32.8004C201.01 28.5185 197.821 24.1849 192.532 23.045Z" fill="#2176C7"/>
<path d="M57.4997 17.6244H56.4056V16.7437C56.4056 15.4416 55.0934 14.3853 53.4759 14.3853C51.857 14.3853 50.5463 15.4416 50.5463 16.7437V17.6244H49.4507C47.8333 17.6244 46.521 18.6807 46.521 19.9828C46.521 21.286 47.8333 22.3412 49.4507 22.3412H50.5463V23.2231C50.5463 24.5251 51.857 25.5815 53.4759 25.5815C55.0934 25.5815 56.4056 24.5251 56.4056 23.2231V22.3412H57.4997C59.1171 22.3412 60.4294 21.286 60.4294 19.9828C60.4294 18.6807 59.1171 17.6244 57.4997 17.6244Z" fill="#165E9E"/>
<path d="M88.5162 17.6244H87.4206V16.7437C87.4206 15.4416 86.1099 14.3853 84.4909 14.3853C82.8735 14.3853 81.5612 15.4416 81.5612 16.7437V17.6244H80.4672C78.8497 17.6244 77.5375 18.6807 77.5375 19.9828C77.5375 21.286 78.8497 22.3412 80.4672 22.3412H81.5612V23.2231C81.5612 24.5251 82.8735 25.5815 84.4909 25.5815C86.1099 25.5815 87.4206 24.5251 87.4206 23.2231V22.3412H88.5162C90.1336 22.3412 91.4459 21.286 91.4459 19.9828C91.4459 18.6807 90.1336 17.6244 88.5162 17.6244Z" fill="#165E9E"/>
<path d="M119.533 17.6244H118.437V16.7437C118.437 15.4416 117.126 14.3853 115.508 14.3853C113.89 14.3853 112.578 15.4416 112.578 16.7437V17.6244H111.484C109.866 17.6244 108.554 18.6807 108.554 19.9828C108.554 21.286 109.866 22.3412 111.484 22.3412H112.578V23.2231C112.578 24.5251 113.89 25.5815 115.508 25.5815C117.126 25.5815 118.437 24.5251 118.437 23.2231V22.3412H119.533C121.15 22.3412 122.462 21.286 122.462 19.9828C122.462 18.6807 121.15 17.6244 119.533 17.6244Z" fill="#165E9E"/>
<path d="M150.549 17.6244H149.454V16.7437C149.454 15.4416 148.143 14.3853 146.524 14.3853C144.907 14.3853 143.594 15.4416 143.594 16.7437V17.6244H142.5C140.883 17.6244 139.571 18.6807 139.571 19.9828C139.571 21.286 140.883 22.3412 142.5 22.3412H143.594V23.2231C143.594 24.5251 144.907 25.5815 146.524 25.5815C148.143 25.5815 149.454 24.5251 149.454 23.2231V22.3412H150.549C152.167 22.3412 153.479 21.286 153.479 19.9828C153.479 18.6807 152.167 17.6244 150.549 17.6244Z" fill="#165E9E"/>
</svg>
