<svg width="198" height="140" viewBox="0 0 198 140" fill="none" xmlns="http://www.w3.org/2000/svg">
<path d="M156.738 14.8063C136.71 12.2899 126.363 0.654541 98.5134 0.654541C69.4764 0.654541 59.4676 13.3051 37.6738 15.0785C34.6502 15.3245 32.3596 17.3906 32.3596 19.837V45.3324L160.702 48.5237L156.738 14.8063Z" fill="#CF9875"/>
<path d="M159.353 15.0785C158.462 15.006 157.592 14.9135 156.738 14.8063V40.8647C156.738 40.8647 156.3 37.8275 152.774 37.8275C149.248 37.8275 132.901 45.3325 132.901 45.3325H32.3599V55.3725H164.667V19.837C164.667 17.3909 162.376 15.3245 159.353 15.0785Z" fill="#C27E4E"/>
<path d="M167.943 63.8281L151.834 51.715H44.253C38.8338 51.715 33.7083 53.698 30.3228 57.1047L26.8127 60.6368L167.943 63.8281Z" fill="#F7F9FA"/>
<path d="M179.39 69.8698L166.704 57.1047C163.319 53.698 158.193 51.715 152.774 51.715H151.834L155.898 55.8046C157.455 57.3718 156.069 59.6932 153.576 59.6932H33.1529C30.9583 59.6932 28.8148 60.0235 26.8128 60.6365L17.637 69.8695H179.39V69.8698Z" fill="#DCE6EB"/>
<path d="M186.482 82.5913L164.519 64.4801H31.5671C26.1479 64.4801 21.0224 66.4632 17.6369 69.8699L7.81843 79.7497C2.75719 84.8424 0 91.1701 0 97.6921L193.062 100.883C193.062 95.3943 190.742 86.8775 186.482 82.5913Z" fill="#DA8BC1"/>
<path d="M189.208 79.7497L179.39 69.8699C176.004 66.4632 170.879 64.4801 165.46 64.4801H164.519L182.518 82.5913C186.777 86.8775 189.098 92.2031 189.098 97.6921H0V133.093L193.062 136.284L197.027 97.6921C197.027 91.1701 194.27 84.8424 189.208 79.7497Z" fill="#D273B3"/>
<path d="M189.098 97.692V130.699C189.098 132.021 187.767 133.093 186.125 133.093H0V134.689C0 137.332 2.66244 139.475 5.94648 139.475H191.08C194.364 139.475 197.027 137.332 197.027 134.689V97.692H189.098Z" fill="#CA59A6"/>
<path d="M94.5491 49.4811V36.551C94.5491 35.7261 93.7974 31.9709 90.1031 30.8431C85.9929 29.9138 80.0151 29.3757 71.422 29.3757C48.9126 29.3757 44.2529 33.0626 44.2529 37.8272V45.3321C44.2529 45.3321 51.7158 51.7147 71.422 51.7147C84.7049 51.715 94.5491 49.4811 94.5491 49.4811Z" fill="#F7F9FA"/>
<path d="M90.1032 30.8434C90.4473 31.6849 90.5848 32.5351 90.5848 33.36V45.244C90.5848 46.4248 89.5188 47.4297 88.0695 47.6091C85.0217 47.9866 79.2992 48.524 71.4225 48.524C51.7163 48.524 44.2534 45.3328 44.2534 45.3328V51.7153C44.2534 51.7153 51.7163 54.9066 71.4225 54.9066C91.1287 54.9066 98.5139 51.7153 98.5139 51.7153L102.478 42.8751L98.5139 37.8281C98.5135 34.8819 96.7597 32.3487 90.1032 30.8434Z" fill="#DCE6EB"/>
<path d="M148.81 49.4811V36.551C148.81 35.7261 148.058 31.9709 144.364 30.8431C140.253 29.9138 134.276 29.3757 125.683 29.3757C103.173 29.3757 98.5134 33.0626 98.5134 37.8272V45.3321C98.5134 45.3321 105.976 51.7147 125.683 51.7147C138.965 51.715 148.81 49.4811 148.81 49.4811Z" fill="#F7F9FA"/>
<path d="M144.363 30.8434C144.708 31.6849 144.845 32.5351 144.845 33.36V45.244C144.845 46.4248 143.779 47.4297 142.33 47.6091C139.282 47.9866 133.559 48.524 125.683 48.524C105.977 48.524 98.5137 45.3328 98.5137 45.3328V51.7153C98.5137 51.7153 105.977 54.9066 125.683 54.9066C145.389 54.9066 152.774 51.7153 152.774 51.7153V37.8278C152.774 34.8819 151.02 32.3487 144.363 30.8434Z" fill="#DCE6EB"/>
</svg>
