<svg width="200" height="162" viewBox="0 0 200 162" fill="none" xmlns="http://www.w3.org/2000/svg">
<g clip-path="url(#clip0_268_1533)">
<path d="M27.1912 161.499H22.9369C18.4946 161.499 14.8938 158.6 14.8938 155.024V139.06H35.2338V155.024C35.2342 158.6 31.633 161.499 27.1912 161.499Z" fill="#FFE07D"/>
<path d="M177.066 161.499H172.812C168.37 161.499 164.769 158.6 164.769 155.024V140.986H185.109V155.024C185.109 158.6 181.508 161.499 177.066 161.499Z" fill="#FFE07D"/>
<path d="M179.944 161.072C179.05 161.348 178.08 161.5 177.066 161.5H172.809C168.37 161.5 164.769 158.601 164.769 155.024V140.988H174.773V155.024C174.773 157.784 176.921 160.142 179.944 161.072Z" fill="#FFD064"/>
<path d="M30.0688 161.072C29.1755 161.348 28.2057 161.5 27.1916 161.5H22.934C18.4954 161.5 14.8938 158.601 14.8938 155.024V140.988H24.8978V155.024C24.8978 157.784 27.0467 160.142 30.0688 161.072Z" fill="#FFD064"/>
<path d="M8.92554 8.61597H191.078V148.758H8.92554V8.61597Z" fill="#B78B7A"/>
<path d="M191.078 16.7301H8.92551C3.99794 16.7301 0.00317383 13.5143 0.00317383 9.5476V7.68492C0.00317383 3.71823 3.99794 0.502441 8.92551 0.502441H191.078C196.005 0.502117 200 3.71791 200 7.6846V9.54727C200 13.5143 196.005 16.7301 191.078 16.7301Z" fill="#FFE07D"/>
<path d="M45.0052 16.7301H8.92555C3.99598 16.7301 0 13.5133 0 9.54499V7.68232C0 3.71725 3.99598 0.500488 8.92555 0.500488H45.0056C40.0761 0.500488 36.0841 3.71725 36.0841 7.68232V9.54499C36.0841 13.5133 40.0757 16.7301 45.0052 16.7301Z" fill="#FFD064"/>
<path d="M83.0037 25.5632H31.9594C25.9055 25.5632 20.998 29.5137 20.998 34.3871V130.216C20.998 135.09 25.9055 139.04 31.9594 139.04H83.0041C89.058 139.04 93.9655 135.09 93.9655 130.216V34.3871C93.9655 29.5137 89.0576 25.5632 83.0037 25.5632Z" fill="#C19D8E"/>
<path d="M106.038 34.3871V130.216C106.038 135.09 110.945 139.04 116.999 139.04H168.044C174.098 139.04 179.005 135.09 179.005 130.216V34.3871C179.005 29.5137 174.098 25.5632 168.044 25.5632H116.999C110.945 25.5632 106.038 29.5137 106.038 34.3871Z" fill="#C19D8E"/>
<path d="M78.4519 107.901C75.4957 107.901 73.0994 105.972 73.0994 103.592V84.2018C73.0994 81.8222 75.4957 79.8931 78.4519 79.8931C81.408 79.8931 83.8044 81.8222 83.8044 84.2018V103.592C83.8048 105.972 81.408 107.901 78.4519 107.901Z" fill="#FFE07D"/>
<path d="M80.8619 107.442C80.1376 107.737 79.3167 107.902 78.4515 107.902C75.4937 107.902 73.0994 105.975 73.0994 103.594V84.2023C73.0994 81.8245 75.4937 79.8938 78.4515 79.8938C79.3167 79.8938 80.1376 80.059 80.8619 80.3538C79.1155 81.0632 77.9163 82.521 77.9163 84.2023V103.594C77.9163 105.278 79.1155 106.735 80.8619 107.442Z" fill="#FFD064"/>
<path d="M121.551 107.901C118.595 107.901 116.198 105.972 116.198 103.592V84.2018C116.198 81.8222 118.595 79.8931 121.551 79.8931C124.507 79.8931 126.903 81.8222 126.903 84.2018V103.592C126.904 105.972 124.507 107.901 121.551 107.901Z" fill="#FFE07D"/>
<path d="M123.961 107.442C123.236 107.737 122.416 107.902 121.55 107.902C118.593 107.902 116.198 105.975 116.198 103.594V84.2023C116.198 81.8245 118.593 79.8938 121.55 79.8938C122.416 79.8938 123.236 80.059 123.961 80.3538C122.214 81.0632 121.015 82.521 121.015 84.2023V103.594C121.015 105.278 122.214 106.735 123.961 107.442Z" fill="#FFD064"/>
</g>
<defs>
<clipPath id="clip0_268_1533">
<rect width="200" height="161" fill="white" transform="translate(0 0.5)"/>
</clipPath>
</defs>
</svg>
