<svg width="118" height="162" viewBox="0 0 118 162" fill="none" xmlns="http://www.w3.org/2000/svg">
<path d="M22.5559 126.227H95.3887V137.084H22.5559V126.227Z" fill="#9B5E5E"/>
<path d="M22.5559 131.656H95.3887V137.084H22.5559V131.656Z" fill="#855151"/>
<path d="M116.266 38.8224L105.855 81.8679L102.023 85.7482L98.8515 88.9651L91.3515 81.8679L94.125 70.4061L102.293 36.6338C103.766 30.5366 101.801 24.2915 96.8945 19.5024C93.2304 15.9271 88.2734 13.4901 82.789 12.4807V81.8679L77.3789 88.9651L69.4687 81.8679V11.9618H48.5312V81.8679L42.9492 88.9651L35.2109 81.8679V12.4807C29.7265 13.4901 24.7695 15.9271 21.1094 19.5024C16.207 24.2915 14.2343 30.5366 15.707 36.6338L23.875 70.4061L26.6484 81.8679L19.4297 93.1882L12.1445 81.8679L1.73435 38.8224C-3.07034 18.9584 15.832 0.5 40.9648 0.5H77.0351C102.172 0.5 121.07 18.9584 116.266 38.8224Z" fill="#9B5E5E"/>
<path d="M41.7833 81.8683V12.4795H35.2122V81.8683L42.9512 88.9668L45.7043 85.4647L41.7833 81.8683Z" fill="#855151"/>
<path d="M18.7169 81.8682L8.30631 38.8227C3.50162 18.9584 22.4028 0.5 47.5376 0.5H40.9665C15.8317 0.5 -3.06986 18.9584 1.73522 38.8224L12.1458 81.8679L19.4313 93.1885L22.7012 88.0595L18.7169 81.8682Z" fill="#855151"/>
<path d="M100.695 70.4061L97.9258 81.868L102.023 85.7483L102.027 85.7514L98.8516 88.9651L91.3516 81.868L94.125 70.4061L102.293 36.6339C103.766 30.5366 101.801 24.2916 96.8945 19.5025C93.2305 15.9271 88.2734 13.4901 82.7891 12.4807C90.6215 12.1537 98.4961 14.5445 103.465 19.5025C108.371 24.2916 110.34 30.5366 108.867 36.6339L100.695 70.4061Z" fill="#855151"/>
<path d="M76.0407 81.8682V11.9612H69.4696V81.8682L77.379 88.9667L80.0481 85.4646L76.0407 81.8682Z" fill="#855151"/>
<path d="M36.7242 100.304L35.0824 110.019L26.3742 161.5H13.1469V100.304L24.648 93.527L25.2195 93.1902L36.7242 100.304Z" fill="#9B5E5E"/>
<path d="M104.853 100.304V161.5H91.6258L82.9176 110.019L81.2758 100.304L91.3078 92.4612L93.0625 91.0876L104.853 100.304Z" fill="#9B5E5E"/>
<path d="M25.2195 93.1902L36.7242 100.304L35.0824 110.019H13.1469V100.304L24.648 93.527L25.2195 93.1902Z" fill="#855151"/>
<path d="M104.853 100.304V110.019H82.9176L81.2758 100.304L91.3078 92.4612L93.0625 91.0876L104.853 100.304Z" fill="#855151"/>
<path d="M99.8027 161.5H91.6258L81.2758 100.304L91.3078 92.4612L99.8027 161.5Z" fill="#855151"/>
<path d="M24.648 93.5269L19.7344 161.5H13.1469V100.304L24.648 93.5269Z" fill="#855151"/>
<path d="M111.088 100.304H6.91172C3.54219 100.304 0.810547 98.1055 0.810547 95.393V86.7799C0.810547 84.0674 3.54219 81.8684 6.91172 81.8684H111.088C114.457 81.8684 117.189 84.0674 117.189 86.7799V95.393C117.189 98.1055 114.458 100.304 111.088 100.304Z" fill="#9B5E5E"/>
<path d="M23.0926 100.305H6.91133C3.54297 100.305 0.810547 98.1053 0.810547 95.3938V86.7803C0.810547 84.0687 3.54297 81.8691 6.91133 81.8691H23.0926C19.7242 81.8691 16.9918 84.0687 16.9918 86.7803V95.3938C16.9918 98.1053 19.7242 100.305 23.0926 100.305Z" fill="#855151"/>
</svg>
