<?xml version="1.0" encoding="utf-8"?>
<!-- Generator: Adobe Illustrator 27.5.0, SVG Export Plug-In . SVG Version: 6.00 Build 0)  -->
<svg version="1.1" xmlns="http://www.w3.org/2000/svg" xmlns:xlink="http://www.w3.org/1999/xlink" x="0px" y="0px"
	 viewBox="0 0 500 500" style="enable-background:new 0 0 500 500;" xml:space="preserve">
<g id="BACKGROUND">
	<rect style="fill:#FFFFFF;" width="500" height="500"/>
</g>
<g id="OBJECT">
	<g>
		<g>
			<path style="opacity:0.2;fill:#72D4F2;" d="M457.168,386.166c0,34.334-27.833,62.167-62.167,62.167s-62.167-27.833-62.167-62.167
				c0-34.333,27.833-62.166,62.167-62.166S457.168,351.833,457.168,386.166z"/>
			<circle style="opacity:0.2;fill:#72D4F2;" cx="390.335" cy="276.833" r="31.167"/>
			<path style="opacity:0.2;fill:#72D4F2;" d="M118.835,204.5c0,17.213-13.954,31.168-31.167,31.168
				c-17.213,0-31.167-13.955-31.167-31.168s13.954-31.166,31.167-31.166C104.881,173.334,118.835,187.287,118.835,204.5z"/>
			<path style="opacity:0.2;fill:#72D4F2;" d="M114.17,296.334c0,9.85-7.985,17.836-17.835,17.836
				c-9.85,0-17.835-7.986-17.835-17.836c0-9.85,7.985-17.834,17.835-17.834C106.185,278.5,114.17,286.484,114.17,296.334z"/>
			<path style="opacity:0.1;fill:#72D4F2;" d="M74.503,336.501c0,6.721-5.448,12.169-12.168,12.169
				c-6.72,0-12.168-5.448-12.168-12.169c0-6.72,5.448-12.167,12.168-12.167C69.055,324.334,74.503,329.781,74.503,336.501z"/>
			<path style="opacity:0.1;fill:#72D4F2;" d="M49.17,265.167c0,6.721-5.448,12.169-12.168,12.169
				c-6.72,0-12.168-5.448-12.168-12.169c0-6.72,5.448-12.167,12.168-12.167C43.722,253,49.17,258.447,49.17,265.167z"/>
			<path style="opacity:0.1;fill:#72D4F2;" d="M144.836,140.834c0,6.721-5.447,12.169-12.168,12.169
				c-6.719,0-12.168-5.448-12.168-12.169c0-6.72,5.449-12.167,12.168-12.167C139.389,128.667,144.836,134.114,144.836,140.834z"/>
			<path style="opacity:0.1;fill:#72D4F2;" d="M425.837,220.5c0,6.721-5.448,12.17-12.168,12.17c-6.72,0-12.168-5.449-12.168-12.17
				c0-6.719,5.448-12.166,12.168-12.166C420.389,208.334,425.837,213.781,425.837,220.5z"/>
			<path style="opacity:0.1;fill:#72D4F2;" d="M463.17,305.167c0,6.721-5.448,12.169-12.168,12.169
				c-6.72,0-12.168-5.448-12.168-12.169c0-6.72,5.448-12.167,12.168-12.167C457.722,293,463.17,298.447,463.17,305.167z"/>
			<path style="opacity:0.1;fill:#72D4F2;" d="M429.67,128.667c0,6.721-5.448,12.169-12.168,12.169
				c-6.72,0-12.168-5.448-12.168-12.169c0-6.72,5.448-12.167,12.168-12.167C424.222,116.5,429.67,121.947,429.67,128.667z"/>
			<path style="opacity:0.2;fill:#72D4F2;" d="M399.503,186.168c0,9.85-7.985,17.836-17.835,17.836s-17.835-7.986-17.835-17.836
				s7.985-17.834,17.835-17.834S399.503,176.318,399.503,186.168z"/>
			<circle style="opacity:0.2;fill:#72D4F2;" cx="452.5" cy="402" r="46.333"/>
			<circle style="opacity:0.2;fill:#72D4F2;" cx="144" cy="390" r="58.333"/>
			<path style="opacity:0.2;fill:#72D4F2;" d="M72.166,401.166c0,18.594-15.072,33.667-33.666,33.667
				c-18.594,0-33.666-15.073-33.666-33.667c0-18.593,15.072-33.666,33.666-33.666C57.094,367.5,72.166,382.573,72.166,401.166z"/>
			<path style="opacity:0.2;fill:#72D4F2;" d="M140.416,403.916c0,24.53-19.886,44.417-44.416,44.417
				c-24.531,0-44.416-19.887-44.416-44.417c0-24.529,19.885-44.416,44.416-44.416C120.53,359.5,140.416,379.387,140.416,403.916z"/>
			<circle style="opacity:0.2;fill:#72D4F2;" cx="352.334" cy="404" r="44.333"/>
		</g>
		<g>
			<g>
				<g>
					<g>
						
							<rect x="375.981" y="30.899" transform="matrix(0.2563 -0.9666 0.9666 0.2563 212.6021 436.2674)" style="fill:#ECECEC;" width="27.686" height="98.135"/>
						<g>
							<polygon style="opacity:0.3;fill:#C5C5C5;" points="353.273,83.717 367.935,59.842 352.361,55.713 							"/>
							<polygon style="opacity:0.3;fill:#C5C5C5;" points="374.621,61.614 375.528,89.617 390.191,65.742 							"/>
							<polygon style="opacity:0.3;fill:#C5C5C5;" points="419.137,73.417 420.046,101.418 434.712,77.546 							"/>
							<polygon style="opacity:0.3;fill:#C5C5C5;" points="396.878,67.517 397.788,95.518 412.451,71.643 							"/>
						</g>
					</g>
					<g>
						<g>
							<path style="fill:#19B6C5;" d="M341.423,81.401c0.574,0.152,1.05,0.605,1.198,1.224l20.096,83.716
								c0.215,0.897-0.337,1.799-1.234,2.015c-0.896,0.216-1.799-0.337-2.015-1.235l-20.097-83.715
								c-0.215-0.896,0.338-1.798,1.235-2.014C340.886,81.326,341.162,81.331,341.423,81.401z"/>
						</g>
						<g>
							<path style="fill:#19B6C5;" d="M431.993,105.412c0.261,0.068,0.507,0.199,0.718,0.397c0.672,0.632,0.704,1.688,0.073,2.36
								l-58.933,62.764c-0.631,0.674-1.687,0.708-2.359,0.076c-0.674-0.633-0.706-1.688-0.076-2.36l58.933-62.765
								C430.784,105.421,431.421,105.26,431.993,105.412z"/>
						</g>
						<g>
							<g>
								
									<rect x="198.471" y="227.543" transform="matrix(0.2563 -0.9666 0.9666 0.2563 33.5847 511.7411)" style="fill:#D9D9D9;" width="301.728" height="13.007"/>
							</g>
							<g>
								<g>
									<path style="fill:#E7B142;" d="M337.84,81.069c1.816-6.854,8.844-10.934,15.695-9.117L425.99,91.16
										c6.849,1.814,10.931,8.843,9.117,15.695l0,0c-1.818,6.855-8.848,10.936-15.697,9.119l-72.454-19.206
										C340.103,94.953,336.022,87.924,337.84,81.069L337.84,81.069z"/>
								</g>
								<g>
									<path style="fill:#E7B142;" d="M376.365,85.04c-0.162-0.042-0.319-0.084-0.482-0.124l-6.861,25.884
										c-1.777,6.702,2.215,13.574,8.914,15.351c6.703,1.777,13.576-2.216,15.354-8.917l6.869-25.906
										C392.167,89.475,384.289,87.108,376.365,85.04z"/>
								</g>
							</g>
						</g>
						<g>
							<path style="fill:#E7B142;" d="M313.918,321.789c1.633-6.159,7.945-9.83,14.107-8.195l0,0
								c6.156,1.632,9.826,7.949,8.193,14.107l-15.273,57.618c-1.634,6.157-7.951,9.826-14.108,8.193l0,0
								c-6.159-1.632-9.827-7.949-8.192-14.107L313.918,321.789z"/>
						</g>
						<g>
							<path style="fill:#CB4F24;" d="M352.305,176.99c1.635-6.156,7.949-9.826,14.109-8.194l0,0
								c6.156,1.633,9.826,7.949,8.193,14.105l-6.65,25.094c-1.635,6.157-7.952,9.828-14.108,8.195l0,0
								c-6.161-1.631-9.827-7.951-8.194-14.107L352.305,176.99z"/>
						</g>
					</g>
				</g>
				<path style="opacity:0.4;fill:#FFFFFF;" d="M311.041,367.813c2.732-10.305,7.075-18.093,9.699-17.398
					c2.627,0.697,2.541,9.616-0.191,19.92c-2.73,10.303-7.075,18.09-9.701,17.394C308.223,387.032,308.309,378.116,311.041,367.813z
					"/>
				<path style="opacity:0.4;fill:#FFFFFF;" d="M358.986,197.829c2.142-8.077,5.644-14.154,7.822-13.578
					c2.18,0.579,2.213,7.594,0.072,15.67c-2.141,8.073-5.645,14.151-7.824,13.572C356.877,212.917,356.846,205.903,358.986,197.829z
					"/>
			</g>
			<g>
				<g>
					
						<rect x="316.188" y="114.273" transform="matrix(0.036 -0.9994 0.9994 0.036 189.1229 440.7968)" style="fill:#CB4F24;" width="13.709" height="16.193"/>
					
						<rect x="315.56" y="130.485" transform="matrix(0.036 -0.9994 0.9994 0.036 171.1076 456.9643)" style="fill:#CB4F24;" width="13.71" height="18.612"/>
					<path style="fill:#A2C037;" d="M276.786,184.037c0.881-24.475,20.907-33.12,45.196-32.245
						c24.29,0.875,43.642,10.938,42.76,35.413c-0.882,24.475-23.77,112.598-48.06,111.724
						C292.393,298.053,275.903,208.512,276.786,184.037z"/>
					<path style="fill:#33B2E5;" d="M361.1,288.352c-1.567,43.532,4.602,79.091-46.816,77.238
						c-51.42-1.851-42.707-36.874-41.14-80.405c1.567-43.53,22.527-78.112,46.816-77.237
						C344.25,208.822,362.668,244.821,361.1,288.352z"/>
					
						<rect x="315.298" y="128.786" transform="matrix(0.036 -0.9994 0.9994 0.036 163.5912 463.7174)" style="fill:#E7B142;" width="13.71" height="36.559"/>
					<path style="fill:#E7B142;" d="M321.982,151.792c-13.597-0.489-25.857,2.007-34.171,8.591l67.634,2.436
						C347.626,155.653,335.58,152.281,321.982,151.792z"/>
					
						<rect x="316.023" y="112.747" transform="matrix(0.036 -0.9994 0.9994 0.036 184.3904 445.0308)" style="fill:#E7B142;" width="13.71" height="28.378"/>
					<path style="opacity:0.5;fill:#FFFFFF;" d="M330.75,134.079l-6.535-0.235l0.566-13.698l6.537,0.235L330.75,134.079z
						 M310.875,133.363l10.831,0.391l0.568-13.699l-10.832-0.39L310.875,133.363z"/>
				</g>
				<path style="opacity:0.4;fill:#FFFFFF;" d="M357.376,191.492c0.248,13.54-5.214,24.619-12.2,24.748
					c-6.988,0.129-12.855-10.742-13.105-24.28c-0.251-13.54,5.214-24.62,12.202-24.749
					C351.26,167.082,357.127,177.953,357.376,191.492z"/>
			</g>
			<g>
				<g>
					<rect x="174.578" y="110.396" style="fill:#33B2E5;" width="36.035" height="88.346"/>
					<g>
						<polygon style="opacity:0.3;fill:#FFFFFF;" points="175.686,123.626 210.613,130.877 210.613,116.373 						"/>
						<polygon style="opacity:0.3;fill:#FFFFFF;" points="210.613,137.104 175.686,144.356 210.613,151.608 						"/>
						<polygon style="opacity:0.3;fill:#FFFFFF;" points="210.613,178.565 175.686,185.816 210.613,193.07 						"/>
						<polygon style="opacity:0.3;fill:#FFFFFF;" points="210.613,157.834 175.686,165.086 210.613,172.339 						"/>
					</g>
				</g>
				<path style="fill:#E7B142;" d="M181.732,311.408c0,3.161-2.563,5.723-5.724,5.723l0,0c-3.16,0-5.722-2.562-5.722-5.723v-204.59
					c0-3.16,2.562-5.723,5.722-5.723l0,0c3.161,0,5.724,2.563,5.724,5.723V311.408z"/>
			</g>
			<g>
				<g>
					<g>
						<rect x="290.082" y="124.881" style="fill:#E7B142;" width="5.689" height="7.828"/>
						<g>
							<path style="fill:#DC911B;" d="M282.918,156.681c-4.732-14.396-4.26-29.194-4.26-29.194l-10.238,4.91
								c0,0,1.608,14.611,8.265,28.156C278.728,159.212,280.807,157.922,282.918,156.681z"/>
							<path style="fill:#ECECEC;" d="M208.568,144.568c0,0-1.971,6.866,9.074,5.672c11.046-1.193,12.24,5.373,12.24,5.373v12.119
								h27.7v-12.119c0,0-1.253-19.403,35.165-19.403v-14.806C292.748,121.404,218.12,104.33,208.568,144.568z"/>
						</g>
					</g>
					<rect x="226.591" y="160.824" style="fill:#DC911B;" width="34.224" height="14.973"/>
					<path style="fill:#ECECEC;" d="M300.124,325.521c0,24.931-20.208,45.14-45.14,45.14h-22.564
						c-24.931,0-45.14-20.209-45.14-45.14V221.977c0-24.93,20.209-45.139,45.14-45.139h22.564c24.932,0,45.14,20.209,45.14,45.139
						V325.521z"/>
					<path style="fill:#CB4F24;" d="M285.005,136.537c2.372-0.211,4.945-0.327,7.743-0.327v-14.806c0,0-2.951-0.673-7.743-1.438
						V136.537z"/>
					<path style="fill:#CB4F24;" d="M300.067,219.755c-1.158-23.915-20.897-43.222-45.083-43.222h-22.564
						c-24.186,0-43.925,19.307-45.083,43.222H300.067z"/>
					<g>
						<rect x="218.902" y="168.9" style="fill:#E7B142;" width="49.601" height="9.883"/>
						<g style="opacity:0.5;">
							<rect x="242.982" y="168.9" style="fill:#FFFFFF;" width="7.602" height="9.883"/>
							<rect x="223.668" y="168.9" style="fill:#FFFFFF;" width="14.666" height="9.883"/>
						</g>
					</g>
				</g>
				<path style="opacity:0.4;fill:#FFFFFF;" d="M291.862,221.498c3.681,19.758-0.805,37.16-10.012,38.877
					c-9.21,1.716-19.655-12.912-23.335-32.67c-3.678-19.756,0.807-37.162,10.015-38.876
					C277.739,187.115,288.185,201.742,291.862,221.498z"/>
				<path style="fill:#FFFFFF;" d="M246.457,126.321c1.386,3.381-4.011,8.795-12.053,12.091c-8.043,3.296-15.686,3.227-17.071-0.154
					c-1.386-3.383,4.011-8.795,12.054-12.092C237.428,122.87,245.071,122.939,246.457,126.321z"/>
			</g>
			<g>
				<g>
					<path style="fill:#DC911B;" d="M176.479,216.803c0.297,2.137-1.195,4.111-3.334,4.408l-30.485,4.228
						c-2.138,0.296-4.11-1.197-4.407-3.335l-5.436-39.195c-0.297-2.138,1.197-4.111,3.334-4.407l30.485-4.228
						c2.138-0.297,4.11,1.195,4.407,3.334L176.479,216.803z"/>
					<path style="fill:#A2C037;" d="M265.284,304.183c-0.331-1.026-0.673-2.059-1.021-3.098c-0.061-0.171-0.099-0.27-0.099-0.27
						l0.009-0.001c-9.247-27.511-19.768-63.92-46.165-83.566c-11.685-8.696-36.774-11.792-50.694-14.958l-32.582,4.518
						l-7.439,12.881c-0.053,0.131-0.117,0.27-0.209,0.428c-4.239,7.369-2.68,16.237-2.68,16.237l-0.037,0.011l14.109,101.611
						c0,0,4.201,40.513,40.09,35.536c2.953-0.409,5.369-0.627,7.322-0.686l61.53-8.532
						C280.147,359.756,268.954,316.078,265.284,304.183z M170.762,305.385c0.928,6.681-3.738,12.848-10.418,13.774
						c-6.682,0.926-12.849-3.738-13.775-10.419l-8.902-64.196c-0.926-6.682,3.738-12.849,10.419-13.774
						c6.682-0.928,12.849,3.738,13.775,10.419L170.762,305.385z"/>
					
						<rect x="130.803" y="191.796" transform="matrix(0.9905 -0.1374 0.1374 0.9905 -26.0029 23.1423)" style="fill:#E7B142;" width="47.681" height="16.285"/>
					<path style="opacity:0.5;fill:#FFFFFF;" d="M160.861,207.297l-8.346,1.157l-2.296-16.122l8.345-1.158L160.861,207.297z
						 M135.482,210.816l13.83-1.918l-2.297-16.123l-13.83,1.918L135.482,210.816z"/>
				</g>
				<path style="opacity:0.3;fill:#FFFFFF;" d="M232.164,240.801c10.631,17.055,12.805,34.896,4.856,39.852
					c-7.949,4.954-23.011-4.853-33.643-21.909c-10.631-17.052-12.806-34.895-4.857-39.85
					C206.47,213.939,221.531,223.748,232.164,240.801z"/>
				<path style="opacity:0.1;fill:#3F3E3E;" d="M269.168,321.131c-58.766,25.83-109.326,16.852-131.577,10.464l0.886,6.382
					c0,0,4.201,40.513,40.09,35.536c2.953-0.409,5.369-0.627,7.322-0.686l61.53-8.532
					C270.518,361.092,271.737,338.394,269.168,321.131z"/>
			</g>
			<g>
				<g>
					<path style="fill:#E7B142;" d="M388.728,229.692c-0.904,2.823-3.925,4.376-6.746,3.472c-2.822-0.904-4.376-3.925-3.472-6.746
						c1.747-5.453-1.268-11.311-6.719-13.059l-2.368-0.758c-5.45-1.747-11.308,1.267-13.055,6.718l-14.844,46.303
						c-1.747,5.451,1.266,11.309,6.718,13.057l2.367,0.758c5.452,1.748,11.31-1.266,13.057-6.717
						c0.905-2.821,3.926-4.376,6.747-3.472c2.822,0.904,4.376,3.925,3.472,6.748c-3.554,11.085-15.464,17.213-26.551,13.658
						l-2.367-0.758c-11.085-3.554-17.213-15.464-13.66-26.551l14.844-46.301c3.553-11.087,15.463-17.215,26.549-13.662l2.368,0.76
						C386.152,206.696,392.281,218.605,388.728,229.692z"/>
				</g>
				<g>
					<g>
						
							<rect x="292.805" y="222.857" transform="matrix(0.3053 -0.9523 0.9523 0.3053 7.4826 488.5471)" style="fill:#CB4F24;" width="91.534" height="32.577"/>
						<g>
							<polygon style="opacity:0.3;fill:#FFFFFF;" points="343.344,274.341 315.567,257.548 310.98,271.858 							"/>
							<polygon style="opacity:0.3;fill:#FFFFFF;" points="317.537,251.404 349.899,253.888 322.124,237.094 							"/>
							<polygon style="opacity:0.3;fill:#FFFFFF;" points="330.65,210.497 363.013,212.98 335.238,196.186 							"/>
							<polygon style="opacity:0.3;fill:#FFFFFF;" points="324.095,230.951 356.456,233.436 328.681,216.64 							"/>
						</g>
					</g>
				</g>
				<g>
					<path style="fill:#E7B142;" d="M368.338,187.839c4.703,1.508,7.293,6.544,5.785,11.246l-29.916,93.323
						c-1.508,4.704-6.542,7.294-11.244,5.786l0,0c-4.702-1.507-7.294-6.541-5.786-11.245l29.916-93.324
						C358.6,188.924,363.636,186.331,368.338,187.839L368.338,187.839z"/>
				</g>
			</g>
			<g>
				<g>
					<path style="fill:#72D4F2;" d="M386.434,265.24c0,2.232-1.81,4.042-4.041,4.042h-12.88c-2.232,0-4.041-1.81-4.041-4.042
						v-11.449c0-2.231,1.809-4.041,4.041-4.041h12.88c2.231,0,4.041,1.81,4.041,4.041V265.24z"/>
					<path style="fill:#72D4F2;" d="M131.225,265.24c0,2.232-1.809,4.042-4.041,4.042h-12.879c-2.232,0-4.041-1.81-4.041-4.042
						v-11.449c0-2.231,1.809-4.041,4.041-4.041h12.879c2.232,0,4.041,1.81,4.041,4.041V265.24z"/>
				</g>
				<path style="fill:#19B6C5;" d="M166.105,409.667h164.097c22.569-0.386,27.492-18.84,28.53-25.515l15.956-146.694H122.133
					L137.7,384.891C138.978,392.092,144.322,409.294,166.105,409.667z"/>
				<polygon style="opacity:0.3;fill:#6F5264;" points="370.573,280.962 374.308,241.486 123.143,248.063 				"/>
				<path style="opacity:0.1;fill:#6F5264;" d="M372.401,259.143c-3.918,60.809-32.067,107.768-123.991,107.768
					s-120.073-46.96-123.991-107.768h-2.667c0,70.681,24.998,127.978,126.658,127.978s126.658-57.298,126.658-127.978H372.401z"/>
				<path style="fill:#72D4F2;" d="M373.451,248.055c-3.95,60.809-32.338,107.769-125.041,107.769
					c-92.702,0-121.091-46.961-125.042-107.769h-2.689c0,70.681,25.209,127.979,127.731,127.979
					c102.521,0,127.731-57.298,127.731-127.979H373.451z"/>
				<path style="fill:#19B6C5;" d="M384.79,240.826c0,6.137-4.974,11.112-11.111,11.112H123.143
					c-6.137,0-11.113-4.976-11.113-11.112l0,0c0-6.138,4.977-11.113,11.113-11.113h250.536
					C379.816,229.713,384.79,234.689,384.79,240.826L384.79,240.826z"/>
			</g>
			<g>
				<g>
					<g style="opacity:0.1;">
						<path style="fill:#6F5264;" d="M269.622,307.13c-4.139-19.046-2.556-39.451,0.497-58.538c0.85-5.321,1.687-8.551,4.493-12.546
							l-64.87-2.677c-6.393,10.749-7.98,23.674-6.646,36.138c1.094,11.771,3.979,23.426,2.988,35.314
							c-0.3,3.593-1.18,6.637-2.896,9.75c-0.582,1.055-1.321,2.292-1.351,3.53c-0.056,2.378,3.628,2.259,5.056,2.298
							c3.32,0.092,6.646,0.206,9.948,0.56c6.776,0.722,13.491,1.962,20.144,3.431c3.797,0.836,7.586,1.708,11.379,2.565
							c5.021,1.132,10.058,2.192,15.112,3.159c2.862,0.545,5.924,1.412,8.833,1.583c2.198,0.129,3.033-1.195,2.898-3.358
							C274.751,321.059,271.163,314.218,269.622,307.13z"/>
					</g>
					<g>
						<path style="fill:#BCF7F7;" d="M275.849,300.536c-5.047-19.214-4.289-40.051-1.968-59.608
							c0.646-5.453,1.368-8.775,4.075-12.96h-66.608c-6.099,11.21-7.18,24.434-5.284,37.066c1.618,11.935,5.069,23.678,4.556,35.821
							c-0.154,3.669-0.928,6.806-2.556,10.046c-0.552,1.1-1.257,2.389-1.235,3.649c0.044,2.424,3.814,2.148,5.281,2.129
							c3.406-0.046,6.82-0.069,10.221,0.15c6.977,0.452,13.911,1.431,20.793,2.646c3.927,0.692,7.848,1.421,11.772,2.132
							c5.194,0.942,10.402,1.81,15.625,2.581c2.956,0.436,6.131,1.189,9.121,1.241c2.259,0.038,3.06-1.344,2.829-3.54
							C281.694,314.499,277.728,307.686,275.849,300.536z"/>
					</g>
					<path style="opacity:0.05;fill:#6F5264;" d="M275.849,300.536c-3.493-13.298-4.203-27.372-3.541-41.263
						c-6.039,22.045-21.019,55.183-55.346,43.984c-2.245-0.732-4.366-1.347-6.378-1.86c-0.205,3.436-0.974,6.427-2.52,9.504
						c-0.552,1.1-1.257,2.389-1.235,3.649c0.044,2.424,3.814,2.148,5.281,2.129c3.406-0.046,6.82-0.069,10.221,0.15
						c6.977,0.452,13.911,1.431,20.793,2.646c3.927,0.692,7.848,1.421,11.772,2.132c5.194,0.942,10.402,1.81,15.625,2.581
						c2.956,0.436,6.131,1.189,9.121,1.241c2.259,0.038,3.06-1.344,2.829-3.54C281.694,314.499,277.728,307.686,275.849,300.536z"/>
				</g>
				<ellipse style="opacity:0.4;fill:#FFFFFF;" cx="220.718" cy="257.521" rx="8.315" ry="18.644"/>
			</g>
		</g>
	</g>
	<g>
		<path style="fill:#FFFFFF;" d="M133.805,193.696c6.899,1.27,7.929,2.3,9.199,9.198c1.27-6.898,2.299-7.928,9.197-9.198
			c-6.898-1.27-7.928-2.299-9.197-9.197C141.733,191.398,140.704,192.427,133.805,193.696z"/>
		<path style="fill:#FFFFFF;" d="M207.294,208.332c6.9,1.27,7.929,2.3,9.198,9.198c1.27-6.898,2.299-7.928,9.198-9.198
			c-6.899-1.27-7.928-2.299-9.198-9.197C215.223,206.033,214.193,207.063,207.294,208.332z"/>
		<path style="fill:#FFFFFF;" d="M357.294,191.998c6.899,1.271,7.929,2.3,9.198,9.198c1.271-6.898,2.299-7.928,9.198-9.198
			c-6.899-1.27-7.928-2.299-9.198-9.197C365.223,189.699,364.193,190.729,357.294,191.998z"/>
		<path style="fill:#FFFFFF;" d="M348.294,76.331c6.899,1.271,7.929,2.3,9.198,9.198c1.271-6.898,2.299-7.928,9.198-9.198
			c-6.899-1.27-7.928-2.299-9.198-9.197C356.223,74.032,355.193,75.062,348.294,76.331z"/>
		<path style="fill:#FFFFFF;" d="M281.826,190.331c4,0.736,4.597,1.334,5.333,5.333c0.736-3.999,1.333-4.597,5.333-5.333
			c-4-0.736-4.597-1.332-5.333-5.332C286.423,188.999,285.826,189.595,281.826,190.331z"/>
		<path style="fill:#FFFFFF;" d="M348.492,223.332c4,0.736,4.598,1.334,5.334,5.333c0.736-3.999,1.332-4.597,5.332-5.333
			c-4-0.736-4.596-1.332-5.332-5.332C353.09,222,352.492,222.596,348.492,223.332z"/>
		<path style="fill:#FFFFFF;" d="M171.492,120.665c4,0.736,4.598,1.334,5.334,5.333c0.736-3.999,1.332-4.597,5.332-5.333
			c-4-0.736-4.596-1.332-5.332-5.332C176.09,119.333,175.492,119.929,171.492,120.665z"/>
		<path style="fill:#FFFFFF;" d="M378.492,123.332c4,0.736,4.598,1.334,5.334,5.333c0.736-3.999,1.332-4.597,5.332-5.333
			c-4-0.736-4.596-1.332-5.332-5.332C383.09,122,382.492,122.596,378.492,123.332z"/>
	</g>
	<rect y="409.666" style="fill:#FFFFFF;" width="500" height="90.334"/>
</g>
</svg>
