<svg width="200" height="108" viewBox="0 0 200 108" fill="none" xmlns="http://www.w3.org/2000/svg">
<path d="M172.145 35.2435C170.551 27.2988 168.214 23.2547 167.313 21.9258H32.3823C31.4812 23.255 29.1437 27.2988 27.5503 35.2435H172.145Z" fill="#E8B469"/>
<path d="M28.887 29.8806C28.4171 31.4255 27.9593 33.2053 27.5503 35.2436H172.145C171.737 33.2053 171.278 31.4252 170.809 29.8806H28.887Z" fill="#D6A15B"/>
<path d="M34.0823 23.0513H19.3796C16.0335 30.1985 12.7745 44.0523 15.5316 65.4763C18.7382 90.3974 14.6773 97.1062 13.9269 98.1034C7.7507 101.884 13.4128 109.851 20.6609 107.255C26.6011 105.128 32.828 95.9622 28.7628 64.3729C25.2566 37.1281 32.3605 25.2424 34.0823 23.0513Z" fill="#F9D391"/>
<path d="M186.072 98.1034C185.322 97.1062 181.262 90.3974 184.469 65.4763C187.226 44.0527 183.967 30.1988 180.619 23.0513H165.917C167.639 25.2424 174.744 37.1278 171.237 64.3729C167.172 95.9623 173.399 105.128 179.338 107.255C182.693 108.457 186.625 107.242 188.118 104.539C189.396 102.226 188.473 99.5725 186.072 98.1034Z" fill="#F9D391"/>
<path d="M20.7687 98.1034C21.5191 97.1062 25.5801 90.3974 22.3734 65.4763C19.6164 44.0527 22.8754 30.1988 26.2215 23.0513H19.3797C16.0336 30.1985 12.7746 44.0523 15.5316 65.4763C18.7383 90.3974 14.6773 97.1062 13.9269 98.1034C7.46326 102.06 13.9437 110.376 21.3902 106.957C17.3558 105.02 17.025 100.395 20.7687 98.1034Z" fill="#E8B469"/>
<path d="M178.079 64.3729C181.585 37.1278 174.48 25.2424 172.759 23.0513H165.917C167.639 25.2424 174.744 37.1278 171.237 64.3729C167.172 95.9623 173.399 105.128 179.338 107.255C181.322 107.966 183.584 107.853 185.452 106.957C179.749 104.34 174.18 94.6714 178.079 64.3729Z" fill="#E8B469"/>
<path d="M12.4863 10.5093V18.8835C12.4863 21.7224 15.3449 24.0232 18.8715 24.0232C19.8504 24.0232 176.703 24.0232 181.128 24.0232C184.655 24.0232 187.513 21.7224 187.513 18.8835V10.5093C184.507 10.5093 20.1215 10.5093 12.4863 10.5093Z" fill="#F9D391"/>
<path d="M21.2047 18.8835V10.5093H12.4863V18.8835C12.4863 21.7224 15.3449 24.0232 18.8715 24.0232H27.5898C24.0633 24.0232 21.2047 21.7224 21.2047 18.8835Z" fill="#E8B469"/>
<path d="M192.617 0.234863C189.689 0.234863 10.6143 0.234863 7.38306 0.234863C3.33501 0.234863 0.000244141 2.86841 0.000244141 6.18652C0.000244141 9.46847 3.30493 12.1294 7.38306 12.1294C12.1557 12.1294 182.785 12.1294 192.617 12.1294C196.667 12.1294 200 9.49362 200 6.17803C200 2.89577 196.694 0.234863 192.617 0.234863Z" fill="#C16B3D"/>
<path d="M192.617 6.18221C186.78 6.18221 14.5869 6.18221 7.38302 6.18221C4.65021 6.18221 2.27091 4.98446 0.994346 3.20874C-1.81347 7.11488 1.64278 12.1295 7.38302 12.1295C12.1557 12.1295 182.785 12.1295 192.617 12.1295C196.667 12.1295 200 9.49372 200 6.17812C200 5.09514 199.634 4.08323 199.005 3.20874C197.729 4.98414 195.349 6.18221 192.617 6.18221Z" fill="#AA5733"/>
</svg>
