<svg width="148" height="132" viewBox="0 0 148 132" fill="none" xmlns="http://www.w3.org/2000/svg">
<path d="M131.182 0.794922L134.546 109.104V128.78C134.546 130.276 136.052 131.488 137.909 131.488H144.636C146.494 131.488 148 130.276 148 128.78V3.50265C148 2.00726 146.494 0.794922 144.636 0.794922H131.182Z" fill="#FAB85F"/>
<path d="M0 3.50265V128.78C0 130.276 1.50601 131.488 3.36364 131.488H10.0909C11.9485 131.488 13.4546 130.276 13.4546 128.78V109.104H134.546V95.5655L127.818 79.3191L134.546 63.0727V46.8263L127.818 30.5799L134.546 14.3336V3.50265C134.546 2.00726 133.04 0.794922 131.182 0.794922H3.36364C1.50601 0.794922 0 2.00726 0 3.50265Z" fill="#FDD56F"/>
<path d="M117.728 60.365L107.637 79.3191L117.728 98.2732H131.182C133.04 98.2732 134.546 97.0609 134.546 95.5655V63.0727C134.546 61.5773 133.04 60.365 131.182 60.365H117.728Z" fill="#F89A4F"/>
<path d="M13.4536 63.0727V95.5655C13.4536 97.0609 14.9596 98.2732 16.8173 98.2732H117.726C119.584 98.2732 121.09 97.0609 121.09 95.5655V63.0727C121.09 61.5773 119.584 60.365 117.726 60.365H16.8173C14.9596 60.365 13.4536 61.5773 13.4536 63.0727Z" fill="#FAB85F"/>
<path d="M117.728 11.626L107.637 30.5801L117.728 49.5342H131.182C133.04 49.5342 134.546 48.3218 134.546 46.8264V14.3337C134.546 12.8383 133.04 11.626 131.182 11.626H117.728Z" fill="#F89A4F"/>
<path d="M13.4536 14.3337V46.8264C13.4536 48.3218 14.9596 49.5342 16.8173 49.5342H117.726C119.584 49.5342 121.09 48.3218 121.09 46.8264V14.3337C121.09 12.8383 119.584 11.626 117.726 11.626H16.8173C14.9596 11.626 13.4536 12.8383 13.4536 14.3337Z" fill="#FAB85F"/>
<path d="M80.728 22.4563H67.2734L76.7899 33.2872H90.2426C92.5568 33.2872 94.1911 31.4463 93.4228 29.6895C91.58 25.4763 86.592 22.4563 80.728 22.4563Z" fill="#DEDEDE"/>
<path d="M67.2724 22.4563C61.4085 22.4563 56.4204 25.4763 54.5781 29.6895C53.8098 31.4467 55.4427 33.2872 57.7569 33.2872H76.7889C79.103 33.2872 80.7355 31.4463 79.9673 29.6895C78.1245 25.4763 73.1364 22.4563 67.2724 22.4563Z" fill="#F2F2F2"/>
<path d="M80.728 71.196H67.2734L76.7899 82.027H90.2426C92.5568 82.027 94.1911 80.1861 93.4228 78.4293C91.58 74.2161 86.592 71.196 80.728 71.196Z" fill="#DEDEDE"/>
<path d="M67.2724 71.196C61.4085 71.196 56.4204 74.2161 54.5781 78.4293C53.8098 80.1864 55.4427 82.027 57.7569 82.027H76.7889C79.103 82.027 80.7355 80.1861 79.9673 78.4293C78.1245 74.2161 73.1364 71.196 67.2724 71.196Z" fill="#F2F2F2"/>
</svg>
