<svg width="200" height="162" viewBox="0 0 200 162" fill="none" xmlns="http://www.w3.org/2000/svg">
<path d="M195.736 119.778H183.192C180.837 119.778 178.928 118.241 178.928 116.346V84.3038C178.928 82.4083 180.837 80.8716 183.192 80.8716H195.736C198.091 80.8716 200 82.4083 200 84.3038V116.346C200 118.241 198.091 119.778 195.736 119.778Z" fill="#B6C4CF"/>
<path d="M200 84.3038V116.347C200 118.241 198.089 119.779 195.736 119.779H183.192C180.838 119.779 178.928 118.241 178.928 116.347V113.362H188.886C191.239 113.362 193.149 111.824 193.149 109.927V80.8716H195.736C198.09 80.8716 200 82.4093 200 84.3038Z" fill="#9FACBA"/>
<path d="M119.92 21.4425H48.9985V2.39387C48.9985 1.36184 50.0376 0.525391 51.3196 0.525391H117.599C118.881 0.525391 119.92 1.36184 119.92 2.39387V21.4425H119.92Z" fill="#FDB441"/>
<path d="M119.918 2.39289V16.3512H48.9966V10.4605H108.059C110.3 10.4605 112.117 8.99798 112.117 7.19396V0.524414H117.597C118.879 0.524414 119.918 1.36086 119.918 2.39289Z" fill="#FEA613"/>
<path d="M168.919 161.463H0V20.4265C0 18.1754 2.2668 16.3506 5.06328 16.3506H163.855C166.652 16.3506 168.919 18.1754 168.919 20.4265V161.463Z" fill="#596C76"/>
<path d="M168.919 20.4254V161.462H159.57V20.4254C159.57 18.1743 157.306 16.3511 154.509 16.3511H163.854C166.65 16.3511 168.919 18.1743 168.919 20.4254Z" fill="#465A61"/>
<path d="M147.016 161.474H21.9023V36.73C21.9023 35.5612 23.0793 34.6138 24.5312 34.6138H144.388C145.84 34.6138 147.017 35.5612 147.017 36.73V161.474H147.016Z" fill="#F9F3F1"/>
<path d="M147.018 36.7293V161.475H135.654V36.7293C135.654 35.5614 134.478 34.6143 133.027 34.6143H144.386C145.841 34.6143 147.018 35.5614 147.018 36.7293Z" fill="#F3EAE6"/>
<path d="M76.6567 34.6143H92.2622V161.474H76.6567V34.6143Z" fill="#B6C4CF"/>
<path d="M186.642 96.2665C186.007 96.2665 185.368 96.1011 184.83 95.7602C183.56 94.9539 183.341 93.471 184.343 92.4481L187.095 89.6369C187.643 89.0771 188.476 88.7466 189.361 88.7385C190.258 88.7297 191.089 89.0444 191.653 89.5935L194.543 92.4047C195.574 93.4081 195.399 94.8948 194.153 95.7253C192.906 96.5561 191.059 96.4149 190.028 95.4115L189.451 94.8505L188.945 95.3681C188.366 95.958 187.508 96.2665 186.642 96.2665Z" fill="#596C76"/>
<path d="M189.396 111.912C189.384 111.912 189.373 111.912 189.361 111.912C188.476 111.903 187.643 111.573 187.095 111.013L184.343 108.202C183.341 107.179 183.559 105.696 184.831 104.89C186.101 104.084 187.943 104.259 188.945 105.283L189.452 105.8L190.028 105.239C191.059 104.236 192.906 104.095 194.153 104.925C195.4 105.756 195.574 107.242 194.543 108.246L191.654 111.057C191.097 111.598 190.268 111.912 189.396 111.912Z" fill="#596C76"/>
</svg>
