<svg width="200" height="162" viewBox="0 0 200 162" fill="none" xmlns="http://www.w3.org/2000/svg">
<path d="M6.03638 63.6689H193.964V151.782H6.03638V63.6689Z" fill="#ECF5FF"/>
<path d="M195.975 63.6689H4.02541C0.939083 63.6689 -0.995682 60.9819 0.535568 58.8222L20.059 31.2871C20.7746 30.2777 22.1067 29.6548 23.5488 29.6548H176.451C177.893 29.6548 179.225 30.2777 179.941 31.2871L199.464 58.8222C200.996 60.9819 199.061 63.6689 195.975 63.6689Z" fill="#4F6D8F"/>
<path d="M199.465 58.8222L179.941 31.2871C179.226 30.2777 177.894 29.6548 176.451 29.6548H164.379C165.821 29.6548 167.153 30.2777 167.869 31.2871L187.392 58.8222C188.923 60.9819 186.988 63.6689 183.902 63.6689H195.974C199.061 63.6689 200.996 60.9819 199.465 58.8222Z" fill="#455E7E"/>
<path d="M49.1465 63.6689H138.781V151.782H49.1465V63.6689Z" fill="#DCEAFC"/>
<path d="M138.781 36.1578V151.782H61.2192V36.1578L100 10.2183L138.781 36.1578Z" fill="#ECF5FF"/>
<path d="M100 10.2183L61.2192 36.1575V50.1516L98.4571 25.2444C99.3517 24.646 100.649 24.646 101.543 25.2444L123.031 39.6165C125.361 41.1752 126.709 43.4874 126.709 45.9263V151.782H138.781V36.1578L100 10.2183Z" fill="#DCEAFC"/>
<path d="M146.896 45.8602L101.543 15.5252C100.649 14.9268 99.3513 14.9268 98.4571 15.5252L53.1044 45.8602C51.531 46.9124 49.147 46.0118 49.147 44.3653V34.8418C49.147 34.2638 49.4665 33.716 50.0185 33.3469L98.4571 0.947827C99.3517 0.349422 100.649 0.349422 101.543 0.947827L149.982 33.3469C150.534 33.716 150.854 34.2641 150.854 34.8418V44.3653C150.854 46.0118 148.469 46.9124 146.896 45.8602Z" fill="#DB8894"/>
<path d="M149.982 33.3469L101.543 0.947827C100.648 0.349422 99.3515 0.349422 98.457 0.947827L93.9636 3.95306L132.568 29.7741C136.504 32.4067 138.781 36.3128 138.781 40.4324L146.896 45.8602C148.469 46.9124 150.853 46.0118 150.853 44.3653V34.8418C150.853 34.2641 150.534 33.716 149.982 33.3469Z" fill="#D4717F"/>
<path d="M118.898 151.782H81.1016V100.293C81.1016 99.0409 82.3629 98.0259 83.9184 98.0259H116.081C117.637 98.0259 118.898 99.0412 118.898 100.293V151.782H118.898Z" fill="#CE9775"/>
<path d="M116.082 98.0259H104.01C105.565 98.0259 106.826 99.0412 106.826 100.293V151.781H118.899V100.293C118.899 99.0412 117.637 98.0259 116.082 98.0259Z" fill="#C6855B"/>
<path d="M100 76.1409C108.557 76.1409 115.493 70.5571 115.493 63.6691C115.493 56.7811 108.557 51.1973 100 51.1973C91.4435 51.1973 84.5071 56.7811 84.5071 63.6691C84.5071 70.5571 91.4435 76.1409 100 76.1409Z" fill="#4F6D8F"/>
<path d="M100 51.1973C97.8585 51.1973 95.8187 51.5469 93.9636 52.1793C99.521 54.0739 103.42 58.5048 103.42 63.6691C103.42 68.8334 99.521 73.2643 93.9636 75.1589C95.8187 75.7913 97.8585 76.1409 100 76.1409C108.557 76.1409 115.493 70.5572 115.493 63.6691C115.493 56.781 108.557 51.1973 100 51.1973Z" fill="#455E7E"/>
<path d="M93.1742 130.127C91.5074 130.127 90.1562 129.039 90.1562 127.697V122.11C90.1562 120.768 91.5074 119.681 93.1742 119.681C94.841 119.681 96.1922 120.768 96.1922 122.11V127.697C96.1922 129.039 94.841 130.127 93.1742 130.127Z" fill="#C6855B"/>
<path d="M177.975 120.197H154.77V87.8027C154.77 86.5502 156.031 85.5352 157.586 85.5352H175.159C176.714 85.5352 177.975 86.5505 177.975 87.8027V120.197Z" fill="#BDD8FC"/>
<path d="M175.159 85.5352H163.086C164.642 85.5352 165.903 86.5505 165.903 87.8027V120.197H177.975V87.8027C177.975 86.5502 176.714 85.5352 175.159 85.5352Z" fill="#9DC7FB"/>
<path d="M179.075 129.915H153.671C152.115 129.915 150.854 128.9 150.854 127.647V122.464C150.854 121.212 152.115 120.197 153.671 120.197H179.075C180.631 120.197 181.891 121.212 181.891 122.464V127.647C181.891 128.9 180.63 129.915 179.075 129.915Z" fill="#CE9775"/>
<path d="M179.075 120.197H167.002C168.558 120.197 169.819 121.212 169.819 122.464V127.647C169.819 128.9 168.558 129.915 167.002 129.915H179.075C180.631 129.915 181.891 128.9 181.891 127.647V122.464C181.891 121.212 180.63 120.197 179.075 120.197Z" fill="#C6855B"/>
<path d="M45.2305 120.197H22.0247V87.8027C22.0247 86.5502 23.286 85.5352 24.8415 85.5352H42.4137C43.9696 85.5352 45.2305 86.5505 45.2305 87.8027V120.197Z" fill="#BDD8FC"/>
<path d="M42.4138 85.5352H30.3416C31.8974 85.5352 33.1583 86.5505 33.1583 87.8027V120.197H45.2306V87.8027C45.2306 86.5502 43.9697 85.5352 42.4138 85.5352Z" fill="#9DC7FB"/>
<path d="M46.3297 129.915H20.9254C19.3696 129.915 18.1086 128.9 18.1086 127.647V122.464C18.1086 121.212 19.37 120.197 20.9254 120.197H46.3293C47.8852 120.197 49.1461 121.212 49.1461 122.464V127.647C49.1465 128.9 47.8856 129.915 46.3297 129.915Z" fill="#CE9775"/>
<path d="M46.3297 120.197H34.2571C35.8129 120.197 37.0739 121.212 37.0739 122.464V127.647C37.0739 128.9 35.8125 129.915 34.2571 129.915H46.3293C47.8852 129.915 49.1461 128.9 49.1461 127.647V122.464C49.1465 121.212 47.8856 120.197 46.3297 120.197Z" fill="#C6855B"/>
<path d="M4.02422 151.782H195.976C198.198 151.782 200 153.232 200 155.021V158.261C200 160.05 198.198 161.5 195.976 161.5H4.02422C1.80156 161.5 0 160.05 0 158.26V155.021C0 153.232 1.80156 151.782 4.02422 151.782Z" fill="#BEE49D"/>
<path d="M195.976 151.782H183.904C186.126 151.782 187.928 153.232 187.928 155.021V158.261C187.928 160.05 186.126 161.5 183.904 161.5H195.976C198.198 161.5 200 160.05 200 158.261V155.021C200 153.232 198.198 151.782 195.976 151.782Z" fill="#A3D8A4"/>
</svg>
