<svg width="200" height="162" viewBox="0 0 200 162" fill="none" xmlns="http://www.w3.org/2000/svg">
<path d="M97.8977 61.7999H37.9915V2.36318C37.9915 1.36888 38.993 0.562622 40.2282 0.562622H95.6606C96.8958 0.562622 97.8973 1.36888 97.8973 2.36318L97.8977 61.7999Z" fill="#EAB14D"/>
<path d="M90.9702 0.562256V61.7995H97.8972V2.36313C97.8972 1.36883 96.8956 0.56257 95.6605 0.56257H90.9702V0.562256Z" fill="#E49542"/>
<path d="M71.7325 14.4362H64.1571C63.1622 14.4362 62.356 13.7872 62.356 12.9863V0.562256H73.5337V12.9863C73.5337 13.7872 72.7271 14.4362 71.7325 14.4362Z" fill="#DF6B57"/>
<path d="M166.676 114.858H74.8716V41.9339C74.8716 40.3818 76.4345 39.1237 78.3626 39.1237H164.439C165.674 39.1237 166.676 39.9299 166.676 40.9242V114.858Z" fill="#F1CB86"/>
<path d="M159.749 39.1237V114.858H166.676V40.9242C166.676 39.9299 165.674 39.1237 164.439 39.1237H159.749Z" fill="#ECBE6B"/>
<path d="M124.561 52.9976H116.986C115.991 52.9976 115.185 52.3486 115.185 51.5477V39.1237H126.363V51.5477C126.363 52.3486 125.556 52.9976 124.561 52.9976Z" fill="#365E7D"/>
<path d="M108.196 161.438H2.86016C1.28047 161.438 0 160.407 0 159.135V103.701C0 102.706 1.00156 101.9 2.23672 101.9H105.818C107.131 101.9 108.196 102.758 108.196 103.815V161.438Z" fill="#EAB14D"/>
<path d="M101.269 101.9V161.438H108.196V103.815C108.196 102.758 107.131 101.9 105.818 101.9H101.269Z" fill="#E49542"/>
<path d="M57.8856 115.774H50.3102C49.3153 115.774 48.509 115.125 48.509 114.324V101.9H59.6868V114.324C59.6868 115.125 58.8805 115.774 57.8856 115.774Z" fill="#365E7D"/>
<path d="M197.14 161.438H108.196V114.858H197.763C198.999 114.858 200 115.664 200 116.659V159.135C200 160.407 198.72 161.438 197.14 161.438Z" fill="#EAB14D"/>
<path d="M193.073 114.858V161.438H197.14C198.719 161.438 200 160.407 200 159.135V116.659C200 115.664 198.998 114.858 197.763 114.858H193.073V114.858Z" fill="#E49542"/>
<path d="M157.886 128.732H150.31C149.315 128.732 148.509 128.083 148.509 127.282V114.858H159.687V127.282C159.687 128.083 158.881 128.732 157.886 128.732Z" fill="#DF6B57"/>
<path d="M74.8714 101.9H14.9656V63.6004C14.9656 62.6061 15.9671 61.7998 17.2023 61.7998H74.8714V101.9Z" fill="#F1CB86"/>
<path d="M67.9446 61.7998H74.8715V101.9H67.9446V61.7998Z" fill="#ECBE6B"/>
<path d="M48.7062 75.6738H41.1308C40.1358 75.6738 39.3296 75.0248 39.3296 74.2238V61.7998H50.5073V74.2238C50.5073 75.0248 49.7011 75.6738 48.7062 75.6738Z" fill="#DF6B57"/>
</svg>
