<svg width="88" height="162" viewBox="0 0 88 162" fill="none" xmlns="http://www.w3.org/2000/svg">
<path d="M44.0001 144.625C42.377 144.625 41.061 143.566 41.061 142.259V60.708C41.061 59.4011 42.377 58.342 44.0001 58.342C45.6231 58.342 46.9391 59.4011 46.9391 60.708V142.259C46.9391 143.566 45.6235 144.625 44.0001 144.625Z" fill="#914E20"/>
<path d="M64.7193 86.5797C63.0963 86.5797 61.7803 85.5206 61.7803 84.2137V60.7084C61.7803 59.4015 63.0963 58.3424 64.7193 58.3424C66.3424 58.3424 67.6584 59.4015 67.6584 60.7084V84.2137C67.6584 85.5206 66.3428 86.5797 64.7193 86.5797Z" fill="#914E20"/>
<path d="M87.5906 60.1901L71.4606 2.34773C71.1594 1.26789 69.968 0.5 68.593 0.5H19.4074C18.0324 0.5 16.841 1.26789 16.5399 2.34773L0.409386 60.1901C0.213683 60.8914 0.424618 61.6256 0.982431 62.1866C1.54024 62.7476 2.38438 63.074 3.27696 63.074H84.7227C85.6152 63.074 86.4594 62.7476 87.0172 62.1866C87.5754 61.6256 87.7859 60.891 87.5906 60.1901Z" fill="#FFD039"/>
<path d="M71.2757 63.074H84.723C85.6155 63.074 86.4597 62.7476 87.0175 62.1866C87.5753 61.6256 87.7859 60.8914 87.5905 60.1901L71.4605 2.34773C71.1593 1.26789 69.9679 0.5 68.5929 0.5H53.8257L71.2757 63.074Z" fill="#FFAE47"/>
<path d="M64.7191 81.8478C60.1714 81.8478 56.4714 84.826 56.4714 88.4871V97.4843C56.4714 101.145 60.1714 104.124 64.7191 104.124C69.2667 104.124 72.9667 101.145 72.9667 97.4843V88.4871C72.9667 84.826 69.2671 81.8478 64.7191 81.8478Z" fill="#E93234"/>
<path d="M54.6879 140.573H33.3125C26.1453 140.573 20.3145 145.267 20.3145 151.037C20.3145 152.343 21.6305 153.402 23.2535 153.402H64.7473C66.3703 153.402 67.6863 152.343 67.6863 151.037C67.6859 145.267 61.8551 140.573 54.6879 140.573Z" fill="#C6946A"/>
<path d="M54.6879 140.573H37.1484C44.3156 140.573 50.1465 145.267 50.1465 151.037C50.1465 152.343 48.8305 153.402 47.2074 153.402H64.7469C66.3699 153.402 67.6859 152.343 67.6859 151.037C67.6859 145.267 61.8551 140.573 54.6879 140.573Z" fill="#B27C57"/>
<path d="M66.3215 148.671H21.679C14.5118 148.671 8.68091 153.365 8.68091 159.134C8.68091 160.441 9.99692 161.5 11.62 161.5H76.3809C78.004 161.5 79.32 160.441 79.32 159.134C79.3196 153.365 73.4887 148.671 66.3215 148.671Z" fill="#AA5D24"/>
<path d="M66.3214 148.671H48.782C55.9492 148.671 61.78 153.365 61.78 159.134C61.78 160.441 60.464 161.5 58.841 161.5H76.3804C78.0035 161.5 79.3195 160.441 79.3195 159.134C79.3195 153.365 73.4886 148.671 66.3214 148.671Z" fill="#914E20"/>
</svg>
