<svg width="200" height="134" viewBox="0 0 200 134" fill="none" xmlns="http://www.w3.org/2000/svg">
<path d="M24.2012 133.644H27.4607C29.505 133.644 31.2229 132.08 31.4499 130.011L34.0177 106.607L27.1026 102.511L20.1875 106.607V129.558C20.1875 131.815 21.9847 133.644 24.2012 133.644Z" fill="#7CA1B1"/>
<path d="M175.799 133.644H172.539C170.495 133.644 168.777 132.08 168.55 130.011L165.982 106.607L173.904 102.511L179.813 106.607V129.558C179.813 131.815 178.015 133.644 175.799 133.644Z" fill="#7CA1B1"/>
<path d="M193.656 0.5H6.34366C2.84024 0.5 0 3.3913 0 6.95771V15.714L100 19.8104L200 15.714V6.95771C200 3.3913 197.16 0.5 193.656 0.5Z" fill="#FFE5C2"/>
<path d="M42.3203 30.9283H20.1875V106.607H34.0177L42.3203 30.9283Z" fill="#F6A96C"/>
<path d="M157.68 30.9283H179.812V106.607H165.982L157.68 30.9283Z" fill="#F6A96C"/>
<path d="M41.0277 42.7106L42.3203 30.9283L30.9996 26.8318L20.1875 30.9283V42.7106H41.0277Z" fill="#EA9B58"/>
<path d="M179.812 42.7106V30.9283L173.025 26.8318L157.68 30.9283L158.972 42.7106H179.812Z" fill="#EA9B58"/>
<path d="M0 24.4702C0 28.0366 2.84024 30.9279 6.34366 30.9279H193.656C197.159 30.9279 200 28.0366 200 24.4702V15.714H0V24.4702Z" fill="#9B5E5E"/>
</svg>
