<svg width="52" height="52" viewBox="0 0 52 52" fill="none" xmlns="http://www.w3.org/2000/svg">
<path d="M51.4545 25.9998L48.467 28.9776L48.2387 29.2034L43.9185 24.899L43.8811 24.8636L43.2297 24.2124L41.8071 22.7944L40.4744 21.466L39.37 20.3652L38.5913 19.589L35.9277 16.934L35.3755 16.3836H35.3737L34.8233 15.835L32.1597 13.1782L31.3773 12.4001L30.2748 11.3012L28.944 9.97276L27.5214 8.55664L25.7282 6.76922L24.6238 7.86816L24.5864 7.90548L23.935 8.55477L22.5105 9.97276L21.1796 11.3012L20.0771 12.4001L19.2947 13.1782L16.6311 15.835L16.0808 16.3836H16.0789L15.5267 16.934L12.8631 19.589L12.0845 20.3652L10.9801 21.466L9.64736 22.7944L8.22665 24.2124L7.57338 24.8617L7.53595 24.899L3.21579 29.2052L2.98743 28.9776L0 25.9998L2.98743 23.022L3.21579 22.7963L4.54852 21.466L4.96407 21.0536L6.43157 19.589L9.09517 16.934L9.64736 16.3836L12.0845 13.9543V14.0084C12.3353 13.723 12.5955 13.4468 12.865 13.1782C13.1346 12.9095 13.4116 12.6502 13.698 12.4001H13.6456L16.0789 9.97276L16.6311 9.42422L18.1922 7.86816L19.2947 6.76735L20.7641 5.30272L21.1796 4.89038L22.5105 3.56194H22.5124L22.7407 3.33432L25.7282 0.358398L28.7137 3.33432L28.9421 3.56194H28.944L30.2748 4.89038L30.6904 5.30458L32.1597 6.76735L33.2622 7.86816L34.8233 9.42422L35.3755 9.97276L37.8089 12.4001H37.7584C38.0298 12.6371 38.2956 12.8852 38.552 13.1409C38.5651 13.1521 38.5782 13.1651 38.5913 13.1782C38.6044 13.1912 38.6175 13.2043 38.6288 13.2174C38.8852 13.473 39.1323 13.736 39.37 14.0066V13.9543L45.0229 19.589L46.4904 21.0536L46.9059 21.466L48.2387 22.7944L48.467 23.022L51.4545 25.9998Z" fill="url(#paint0_linear_179_1966)"/>
<path d="M43.6865 28.1726C43.5911 28.9767 43.4413 29.7659 43.2429 30.5346C43.2279 30.5888 43.2148 30.641 43.198 30.6951C42.7843 32.2437 42.1685 33.7102 41.3804 35.0666C41.3542 35.1151 41.3262 35.1618 41.2962 35.2103C40.7103 36.2029 40.029 37.1339 39.2672 37.994C39.0294 38.2646 38.7824 38.5277 38.5259 38.7833C38.5147 38.7963 38.5016 38.8094 38.4885 38.8224C38.4754 38.8355 38.4623 38.8486 38.4492 38.8598L37.7061 39.6005L35.2727 42.0279L34.7205 42.5764L33.1594 44.1325L32.0569 45.2333L30.5875 46.696L30.172 47.1102L28.8411 48.4387H28.8392L25.6253 51.6422L22.4095 48.4387H22.4077L21.0768 47.1102L20.6613 46.6979L19.1919 45.2333L18.0894 44.1325L16.5283 42.5764L15.9761 42.0279L13.5427 39.6005L12.7622 38.8224C12.4926 38.5538 12.2324 38.2776 11.9816 37.9922C11.2198 37.1339 10.5384 36.2029 9.95257 35.2103C9.92262 35.1618 9.89454 35.1151 9.86834 35.0666C9.0803 33.7102 8.46447 32.2437 8.0508 30.6951C8.03395 30.641 8.02085 30.5888 8.00588 30.5346C7.80746 29.7659 7.65772 28.9767 7.56226 28.1726C7.74569 28.0382 7.93288 27.9114 8.1238 27.7882C9.28246 27.0475 10.5852 26.5102 11.9816 26.2266H11.9835C11.9872 26.4038 11.9929 26.5811 12.0022 26.7564C12.0752 28.0756 12.3354 29.3424 12.7584 30.5346C12.9194 30.9899 13.1047 31.4321 13.3106 31.8631C13.8722 33.0329 14.5984 34.1114 15.4576 35.0666C15.6242 35.2551 15.7983 35.4379 15.978 35.617L16.5283 36.1656L19.1919 38.8224L19.9743 39.6005L21.0768 40.6994L22.4077 42.0279L23.8321 43.4458L24.5209 44.1325L25.6253 45.2333L26.7278 44.1325L26.7653 44.0951L27.4185 43.444L28.8411 42.0279L30.172 40.6994L31.2745 39.6005L32.0569 38.8224L34.7205 36.1656L35.2708 35.617C35.4505 35.4379 35.6246 35.2551 35.7912 35.0666C36.6503 34.1114 37.3766 33.0329 37.9382 31.8631C38.1441 31.4321 38.3294 30.9899 38.4903 30.5346C38.9134 29.3424 39.1736 28.0756 39.2466 26.7564C39.2559 26.5811 39.2615 26.4038 39.2653 26.2266H39.2672C40.6635 26.5102 41.9663 27.0475 43.1268 27.7882C43.3178 27.9114 43.5031 28.0382 43.6865 28.1726Z" fill="url(#paint1_linear_179_1966)"/>
<path d="M18.0894 7.86816L16.5283 9.42422L15.9761 9.97276L13.5427 12.4001H11.9816V13.9543L9.54452 16.3836L8.99233 16.934L7.43311 18.4882V7.86816H18.0894Z" fill="url(#paint2_linear_179_1966)"/>
<path d="M30.5295 18.833V23.365H25.981V18.833H30.303L30.3011 18.8367C30.376 18.8349 30.4527 18.833 30.5295 18.833Z" fill="#3FBEAD"/>
<path d="M25.4755 18.833H20.927V23.365H25.4755V18.833Z" fill="#3FBEAD"/>
<path d="M30.5295 13.7959H25.981V18.3279H30.5295V13.7959Z" fill="#3FBEAD"/>
<path d="M25.4719 13.7959V18.3279H20.9253V13.7959C21.002 13.7959 21.0788 13.7978 21.1537 13.7996C21.1537 13.7996 21.1537 13.7978 21.1537 13.7959H25.4738H25.4719Z" fill="#3FBEAD"/>
<path d="M43.8155 7.86816V18.4882L39.2669 13.9543V12.4001H37.7058L35.2725 9.97276L34.7203 9.42422L33.1592 7.86816H43.8155Z" fill="url(#paint3_linear_179_1966)"/>
<path d="M34.7165 26.252C34.6996 26.9852 34.5948 27.6942 34.4114 28.3733C34.2036 29.1476 33.8966 29.8809 33.5035 30.5582C33.1217 31.2149 32.6612 31.8194 32.1315 32.3587C32.1072 32.3848 32.0809 32.409 32.0566 32.4351C32.0304 32.4613 32.0042 32.4855 31.9799 32.5116C31.4389 33.0378 30.8306 33.4968 30.1717 33.8774C29.4922 34.2692 28.7566 34.5771 27.9798 34.7823C27.3003 34.9651 26.5872 35.0696 25.8534 35.0864C25.7785 35.0864 25.7018 35.0902 25.625 35.0902C25.5483 35.0902 25.4715 35.0883 25.3967 35.0864C24.6611 35.0696 23.9498 34.9651 23.2684 34.7823C22.4916 34.5752 21.756 34.2692 21.0765 33.8774C20.3858 33.48 19.7531 32.993 19.1935 32.4351C18.6319 31.8773 18.1452 31.2466 17.7465 30.5582C17.3516 29.8809 17.0446 29.1476 16.8368 28.3733C16.6534 27.6942 16.5486 26.9852 16.5317 26.252C17.1794 26.3826 17.8064 26.5691 18.4092 26.8042C19.3694 27.1811 20.2641 27.683 21.0765 28.2913C21.507 28.6122 25.625 34.1125 25.625 34.1125C25.625 34.1125 29.7412 28.614 30.1717 28.2913C30.9822 27.683 31.8788 27.1811 32.839 26.8042C33.4418 26.5691 34.0688 26.3826 34.7165 26.252Z" fill="#2D231B"/>
<defs>
<linearGradient id="paint0_linear_179_1966" x1="25.8948" y1="16.3183" x2="25.3833" y2="46.0943" gradientUnits="userSpaceOnUse">
<stop stop-color="#3FBEAD"/>
<stop offset="1" stop-color="#0A7E92"/>
</linearGradient>
<linearGradient id="paint1_linear_179_1966" x1="7.56226" y1="38.9344" x2="43.6865" y2="38.9344" gradientUnits="userSpaceOnUse">
<stop stop-color="#3FBEAD"/>
<stop offset="1" stop-color="#0A7E92"/>
</linearGradient>
<linearGradient id="paint2_linear_179_1966" x1="7.88047" y1="8.31222" x2="15.9238" y2="16.3816" gradientUnits="userSpaceOnUse">
<stop stop-color="#3FBEAD"/>
<stop offset="1" stop-color="#0A7E92"/>
</linearGradient>
<linearGradient id="paint3_linear_179_1966" x1="42.9544" y1="8.2805" x2="36.1129" y2="15.8309" gradientUnits="userSpaceOnUse">
<stop stop-color="#3FBEAD"/>
<stop offset="1" stop-color="#0A7E92"/>
</linearGradient>
</defs>
</svg>
