<svg width="52" height="52" viewBox="0 0 52 52" fill="none" xmlns="http://www.w3.org/2000/svg">
<path d="M51.45 25.9993L48.4628 28.9985L48.2345 29.2259L43.9147 24.8906L43.8773 24.8549L43.2259 24.1991L41.8035 22.7709L40.4709 21.4329L39.3666 20.3242L38.588 19.5425L35.9246 16.8684L35.3725 16.3141H35.3706L34.8203 15.7616L32.1569 13.0856L31.3746 12.302L30.2722 11.1952L28.9414 9.85722L27.519 8.43093L25.7259 6.63068L24.6217 7.73751L24.5842 7.7751L23.9329 8.42905L22.5086 9.85722L21.1778 11.1952L20.0754 12.302L19.293 13.0856L16.6297 15.7616L16.0794 16.3141H16.0775L15.5254 16.8684L12.862 19.5425L12.0834 20.3242L10.9791 21.4329L9.64652 22.7709L8.22594 24.1991L7.57273 24.8531L7.53529 24.8906L3.21551 29.2278L2.98717 28.9985L0 25.9993L2.98717 23.0002L3.21551 22.7728L4.54813 21.4329L4.96364 21.0177L6.43102 19.5425L9.09438 16.8684L9.64652 16.3141L12.0834 13.8674V13.9219C12.3342 13.6344 12.5944 13.3562 12.8639 13.0856C13.1334 12.815 13.4104 12.5538 13.6968 12.302H13.6444L16.0775 9.85722L16.6297 9.30475L18.1906 7.73751L19.293 6.6288L20.7623 5.15365L21.1778 4.73835L22.5086 3.40037H22.5104L22.7388 3.17111L25.7259 0.173828L28.7112 3.17111L28.9396 3.40037H28.9414L30.2722 4.73835L30.6877 5.15552L32.1569 6.6288L33.2594 7.73751L34.8203 9.30475L35.3725 9.85722L37.8056 12.302H37.7551C38.0265 12.5407 38.2922 12.7906 38.5487 13.0481C38.5618 13.0593 38.5749 13.0725 38.588 13.0856C38.6011 13.0988 38.6142 13.112 38.6254 13.1251C38.8818 13.3826 39.1289 13.6475 39.3666 13.92V13.8674L45.019 19.5425L46.4864 21.0177L46.9019 21.4329L48.2345 22.7709L48.4628 23.0002L51.45 25.9993Z" fill="white"/>
<path d="M43.6824 28.1875C43.5869 28.9974 43.4372 29.7923 43.2388 30.5666C43.2238 30.6211 43.2107 30.6737 43.1939 30.7282C42.7803 32.2879 42.1645 33.7649 41.3765 35.1311C41.3503 35.1799 41.3222 35.2269 41.2923 35.2758C40.7065 36.2755 40.0252 37.2132 39.2634 38.0795C39.0257 38.352 38.7787 38.617 38.5222 38.8744C38.511 38.8876 38.4979 38.9007 38.4848 38.9139C38.4717 38.927 38.4586 38.9402 38.4455 38.9514L37.7025 39.6975L35.2693 42.1423L34.7172 42.6948L33.1562 44.262L32.0538 45.3707L30.5845 46.844L30.169 47.2612L28.8383 48.5991H28.8364L25.6228 51.8257L22.4073 48.5991H22.4054L21.0746 47.2612L20.6591 46.8459L19.1899 45.3707L18.0875 44.262L16.5265 42.6948L15.9744 42.1423L13.5412 39.6975L12.7607 38.9139C12.4912 38.6433 12.2311 38.3651 11.9803 38.0776C11.2185 37.2132 10.5372 36.2755 9.95139 35.2758C9.92144 35.2269 9.89336 35.1799 9.86716 35.1311C9.07919 33.7649 8.46342 32.2879 8.04978 30.7282C8.03294 30.6737 8.01984 30.6211 8.00486 30.5666C7.80647 29.7923 7.65673 28.9974 7.56128 28.1875C7.7447 28.0522 7.93187 27.9244 8.12278 27.8004C9.28133 27.0544 10.584 26.5132 11.9803 26.2275H11.9821C11.9859 26.4061 11.9915 26.5846 12.0009 26.7612C12.0738 28.0898 12.334 29.3658 12.757 30.5666C12.918 31.0251 13.1033 31.4704 13.3091 31.9045C13.8706 33.0828 14.5968 34.1689 15.4559 35.1311C15.6225 35.3209 15.7966 35.505 15.9763 35.6854L16.5265 36.2379L19.1899 38.9139L19.9722 39.6975L21.0746 40.8043L22.4054 42.1423L23.8297 43.5705L24.5185 44.262L25.6228 45.3707L26.7252 44.262L26.7626 44.2244L27.4158 43.5686L28.8383 42.1423L30.169 40.8043L31.2714 39.6975L32.0538 38.9139L34.7172 36.2379L35.2674 35.6854C35.4471 35.505 35.6212 35.3209 35.7877 35.1311C36.6468 34.1689 37.373 33.0828 37.9345 31.9045C38.1404 31.4704 38.3257 31.0251 38.4867 30.5666C38.9097 29.3658 39.1698 28.0898 39.2428 26.7612C39.2522 26.5846 39.2578 26.4061 39.2615 26.2275H39.2634C40.6597 26.5132 41.9623 27.0544 43.1228 27.8004C43.3137 27.9244 43.499 28.0522 43.6824 28.1875Z" fill="white"/>
<path d="M18.0876 7.73828L16.5266 9.30551L15.9745 9.85799L13.5413 12.3028H11.9804V13.8682L9.54348 16.3148L8.99134 16.8692L7.43225 18.4346V7.73828H18.0876Z" fill="white"/>
<path d="M30.5267 18.7783V23.3428H25.9786V18.7783H30.3002L30.2984 18.7821C30.3732 18.7802 30.45 18.7783 30.5267 18.7783Z" fill="white"/>
<path d="M25.4733 18.7783H20.9252V23.3428H25.4733V18.7783Z" fill="white"/>
<path d="M30.5267 13.7051H25.9786V18.2696H30.5267V13.7051Z" fill="white"/>
<path d="M25.4694 13.7051V18.2696H20.9232V13.7051C20.9999 13.7051 21.0766 13.707 21.1515 13.7088C21.1515 13.7088 21.1515 13.707 21.1515 13.7051H25.4713H25.4694Z" fill="white"/>
<path d="M43.8115 7.73828V18.4346L39.2634 13.8682V12.3028H37.7024L35.2693 9.85799L34.7172 9.30551L33.1562 7.73828H43.8115Z" fill="white"/>
<path d="M34.7135 26.2529C34.6967 26.9914 34.5919 27.7055 34.4085 28.3896C34.2007 29.1694 33.8938 29.9079 33.5007 30.5901C33.1189 31.2515 32.6585 31.8604 32.1288 32.4035C32.1045 32.4298 32.0783 32.4542 32.0539 32.4805C32.0277 32.5068 32.0015 32.5313 31.9772 32.5576C31.4363 33.0875 30.828 33.5498 30.1692 33.9331C29.4898 34.3278 28.7542 34.6378 27.9775 34.8445C27.298 35.0287 26.5849 35.1339 25.8512 35.1508C25.7764 35.1508 25.6996 35.1546 25.6229 35.1546C25.5462 35.1546 25.4694 35.1527 25.3946 35.1508C24.659 35.1339 23.9478 35.0287 23.2665 34.8445C22.4898 34.6359 21.7542 34.3278 21.0748 33.9331C20.3841 33.5329 19.7515 33.0424 19.1919 32.4805C18.6304 31.9186 18.1438 31.2835 17.7451 30.5901C17.3502 29.9079 17.0432 29.1694 16.8355 28.3896C16.6521 27.7055 16.5472 26.9914 16.5304 26.2529C17.178 26.3845 17.805 26.5724 18.4077 26.8092C19.3678 27.1888 20.2625 27.6943 21.0748 28.3069C21.5053 28.6301 25.6229 34.1699 25.6229 34.1699C25.6229 34.1699 29.7387 28.632 30.1692 28.3069C30.9796 27.6943 31.8761 27.1888 32.8363 26.8092C33.4389 26.5724 34.066 26.3845 34.7135 26.2529Z" fill="white"/>
</svg>
