<svg width="122" height="162" viewBox="0 0 122 162" fill="none" xmlns="http://www.w3.org/2000/svg">
<path d="M8.00586 0.5C6.3875 0.5 5.07617 1.55562 5.07617 2.8584V8.20347C5.07617 9.50625 6.3875 10.5619 8.00586 10.5619C9.62422 10.5619 10.9355 9.50625 10.9355 8.20347V2.8584C10.9355 1.55562 9.62422 0.5 8.00586 0.5Z" fill="#C86D36"/>
<path d="M25.6707 0.5C24.0523 0.5 22.741 1.55562 22.741 2.8584V8.20347C22.741 9.50625 24.0523 10.5619 25.6707 10.5619C27.289 10.5619 28.6003 9.50625 28.6003 8.20347V2.8584C28.6003 1.55562 27.2886 0.5 25.6707 0.5Z" fill="#C86D36"/>
<path d="M43.3352 0.5C41.7168 0.5 40.4055 1.55562 40.4055 2.8584V8.20347C40.4055 9.50625 41.7168 10.5619 43.3352 10.5619C44.9536 10.5619 46.2649 9.50625 46.2649 8.20347V2.8584C46.2649 1.55562 44.9536 0.5 43.3352 0.5Z" fill="#C86D36"/>
<path d="M61 0.5C59.3816 0.5 58.0703 1.55562 58.0703 2.8584V8.20347C58.0703 9.50625 59.3816 10.5619 61 10.5619C62.6184 10.5619 63.9297 9.50625 63.9297 8.20347V2.8584C63.9297 1.55562 62.6184 0.5 61 0.5Z" fill="#C86D36"/>
<path d="M78.6648 0.5C77.0464 0.5 75.7351 1.55562 75.7351 2.8584V8.20347C75.7351 9.50625 77.0464 10.5619 78.6648 10.5619C80.2832 10.5619 81.5945 9.50625 81.5945 8.20347V2.8584C81.5945 1.55562 80.2828 0.5 78.6648 0.5Z" fill="#C86D36"/>
<path d="M96.3293 0.5C94.711 0.5 93.3997 1.55562 93.3997 2.8584V8.20347C93.3997 9.50625 94.711 10.5619 96.3293 10.5619C97.9477 10.5619 99.259 9.50625 99.259 8.20347V2.8584C99.259 1.55562 97.9477 0.5 96.3293 0.5Z" fill="#C86D36"/>
<path d="M113.994 0.5C112.376 0.5 111.064 1.55562 111.064 2.8584V8.20347C111.064 9.50625 112.376 10.5619 113.994 10.5619C115.613 10.5619 116.924 9.50625 116.924 8.20347V2.8584C116.924 1.55562 115.613 0.5 113.994 0.5Z" fill="#C86D36"/>
<path d="M8.00586 151.438C6.3875 151.438 5.07617 152.494 5.07617 153.797V159.142C5.07617 160.444 6.3875 161.5 8.00586 161.5C9.62422 161.5 10.9355 160.444 10.9355 159.142V153.797C10.9355 152.494 9.62422 151.438 8.00586 151.438Z" fill="#C86D36"/>
<path d="M25.6707 151.438C24.0523 151.438 22.741 152.494 22.741 153.797V159.142C22.741 160.444 24.0523 161.5 25.6707 161.5C27.289 161.5 28.6003 160.444 28.6003 159.142V153.797C28.6003 152.494 27.2886 151.438 25.6707 151.438Z" fill="#C86D36"/>
<path d="M43.3352 151.438C41.7168 151.438 40.4055 152.494 40.4055 153.797V159.142C40.4055 160.444 41.7168 161.5 43.3352 161.5C44.9536 161.5 46.2649 160.444 46.2649 159.142V153.797C46.2649 152.494 44.9536 151.438 43.3352 151.438Z" fill="#C86D36"/>
<path d="M61 151.438C59.3816 151.438 58.0703 152.494 58.0703 153.797V159.142C58.0703 160.444 59.3816 161.5 61 161.5C62.6184 161.5 63.9297 160.444 63.9297 159.142V153.797C63.9297 152.494 62.6184 151.438 61 151.438Z" fill="#C86D36"/>
<path d="M78.6648 151.438C77.0464 151.438 75.7351 152.494 75.7351 153.797V159.142C75.7351 160.444 77.0464 161.5 78.6648 161.5C80.2832 161.5 81.5945 160.444 81.5945 159.142V153.797C81.5945 152.494 80.2828 151.438 78.6648 151.438Z" fill="#C86D36"/>
<path d="M96.3293 151.438C94.711 151.438 93.3997 152.494 93.3997 153.797V159.142C93.3997 160.444 94.711 161.5 96.3293 161.5C97.9477 161.5 99.259 160.444 99.259 159.142V153.797C99.259 152.494 97.9477 151.438 96.3293 151.438Z" fill="#C86D36"/>
<path d="M113.994 151.438C112.376 151.438 111.064 152.494 111.064 153.797V159.142C111.064 160.444 112.376 161.5 113.994 161.5C115.613 161.5 116.924 160.444 116.924 159.142V153.797C116.924 152.494 115.613 151.438 113.994 151.438Z" fill="#C86D36"/>
<path d="M118.685 156.155H3.31528C1.83638 156.155 0.637939 155.19 0.637939 154V8.00023C0.637939 6.80971 1.83677 5.84497 3.31528 5.84497H118.685C120.164 5.84497 121.362 6.81003 121.362 8.00023V153.999C121.362 155.19 120.163 156.155 118.685 156.155Z" fill="#FED15B"/>
<path d="M109.29 5.84497V156.155H118.685C120.164 156.155 121.362 155.19 121.362 154V8.00023C121.362 6.80971 120.163 5.84497 118.685 5.84497H109.29Z" fill="#FEC344"/>
<path d="M0.637939 46.3381H121.362V115.662H0.637939V46.3381Z" fill="#E94444"/>
<path d="M109.29 46.3381H121.362V115.662H109.29V46.3381Z" fill="#D83131"/>
<path d="M0.637939 17.9121H121.362V30.8698H0.637939V17.9121Z" fill="#80D261"/>
<path d="M109.29 17.9121H121.362V30.8698H109.29V17.9121Z" fill="#68CA44"/>
<path d="M0.637939 131.13H121.362V144.088H0.637939V131.13Z" fill="#80D261"/>
<path d="M109.29 131.13H121.362V144.088H109.29V131.13Z" fill="#68CA44"/>
<path d="M83.5907 84.1843L64.9559 99.1852C62.7711 100.944 59.2293 100.944 57.0446 99.1852L38.4098 84.1843C36.225 82.4255 36.225 79.5744 38.4098 77.8156L57.0446 62.8147C59.2293 61.0559 62.7711 61.0559 64.9559 62.8147L83.5907 77.8156C85.775 79.5744 85.775 82.4258 83.5907 84.1843Z" fill="#FFF0AD"/>
</svg>
