<svg width="200" height="124" viewBox="0 0 200 124" fill="none" xmlns="http://www.w3.org/2000/svg">
<path d="M185.35 121.628C185.35 122.929 184.044 123.99 182.427 123.99C180.81 123.99 179.493 122.929 179.493 121.628V117.144C179.493 115.843 180.811 114.782 182.427 114.782C184.044 114.782 185.35 115.843 185.35 117.144V121.628ZM20.5073 121.628C20.5073 122.929 19.2007 123.99 17.5843 123.99C15.9565 123.99 14.6499 122.929 14.6499 121.628V117.144C14.6499 115.843 15.9565 114.782 17.5843 114.782C19.2007 114.782 20.5073 115.843 20.5073 117.144V121.628ZM51.8655 121.628C51.8655 122.929 50.5479 123.99 48.9311 123.99C47.3144 123.99 46.0081 122.929 46.0081 121.628V117.144C46.0081 115.843 47.3147 114.782 48.9311 114.782C50.5479 114.782 51.8655 115.843 51.8655 117.144V121.628ZM154.003 121.628C154.003 122.929 152.685 123.99 151.068 123.99C149.451 123.99 148.145 122.929 148.145 121.628V117.144C148.145 115.843 149.452 114.782 151.068 114.782C152.685 114.782 154.003 115.843 154.003 117.144V121.628Z" fill="#365E7D"/>
<path fill-rule="evenodd" clip-rule="evenodd" d="M146.385 62.4321H187.111C188.827 62.4321 190.234 63.5642 190.234 64.9459V114.631C190.234 116.013 188.827 117.145 187.111 117.145H146.385C144.669 117.145 143.262 116.013 143.262 114.631V64.9459C143.262 63.5642 144.668 62.4321 146.385 62.4321ZM12.889 62.4321H53.6152C55.3425 62.4321 56.7488 63.5642 56.7488 64.9459V114.631C56.7488 116.013 55.3425 117.145 53.6152 117.145H12.889C11.1726 117.145 9.76636 116.013 9.76636 114.631V64.9459C9.76636 63.5642 11.1726 62.4321 12.889 62.4321Z" fill="#C6865C"/>
<path fill-rule="evenodd" clip-rule="evenodd" d="M177.345 62.4321H187.111C188.827 62.4321 190.233 63.5642 190.233 64.9459V114.631C190.233 116.013 188.827 117.145 187.111 117.145H177.345C179.061 117.145 180.467 116.013 180.467 114.631V64.9459C180.467 63.5642 179.061 62.4321 177.345 62.4321ZM43.8489 62.4321H53.6153C55.3426 62.4321 56.7489 63.5642 56.7489 64.9459V114.631C56.7489 116.013 55.3426 117.145 53.6153 117.145H43.8489C45.5762 117.145 46.9825 116.013 46.9825 114.631V64.9459C46.9829 63.5642 45.5766 62.4321 43.8489 62.4321Z" fill="#C17D4F"/>
<path fill-rule="evenodd" clip-rule="evenodd" d="M3.12266 51.7354H196.877C198.594 51.7354 200 52.8674 200 54.2491V63.056C200 64.4377 198.594 65.5697 196.877 65.5697H3.12266C1.40625 65.5697 0 64.4377 0 63.056V54.2491C0 52.8674 1.40625 51.7354 3.12266 51.7354Z" fill="#CE9875"/>
<path fill-rule="evenodd" clip-rule="evenodd" d="M187.111 51.7354H196.877C198.594 51.7354 200 52.8674 200 54.2491V63.056C200 64.4377 198.594 65.5697 196.877 65.5697H187.111C188.827 65.5697 190.233 64.4377 190.233 63.056V54.2491C190.233 52.8674 188.827 51.7354 187.111 51.7354Z" fill="#C6865C"/>
<path fill-rule="evenodd" clip-rule="evenodd" d="M143.262 81.9263H190.234V100.797H143.262V81.9263ZM9.76636 81.9263H56.7488V100.797H9.76636V81.9263Z" fill="#C17D4F"/>
<path fill-rule="evenodd" clip-rule="evenodd" d="M180.467 81.9263H190.233V100.797H180.467V81.9263ZM46.9829 81.9263H56.7489V100.797H46.9829V81.9263Z" fill="#B16E3D"/>
<path d="M163.957 93.7196C162.341 93.7196 161.034 92.6586 161.034 91.3574C161.034 90.0562 162.341 89.0044 163.957 89.0044H169.538C171.155 89.0044 172.461 90.0562 172.461 91.3574C172.461 92.659 171.155 93.7196 169.538 93.7196H163.957ZM30.4729 93.7196C28.8562 93.7196 27.5386 92.6586 27.5386 91.3574C27.5386 90.0562 28.8562 89.0044 30.4729 89.0044H36.0425C37.6593 89.0044 38.9769 90.0562 38.9769 91.3574C38.9769 92.659 37.6593 93.7196 36.0425 93.7196H30.4729Z" fill="#365E7D"/>
<path fill-rule="evenodd" clip-rule="evenodd" d="M60.5473 0.00927734H139.453C142.675 0.00927734 145.311 2.13089 145.311 4.72482V36.8053C145.311 39.3993 142.675 41.5206 139.453 41.5206H60.5473C57.325 41.5206 54.6895 39.3989 54.6895 36.8053V4.72482C54.6895 2.13089 57.3246 0.00927734 60.5473 0.00927734Z" fill="#BED8FB"/>
<path fill-rule="evenodd" clip-rule="evenodd" d="M129.687 0.00927734H139.453C142.675 0.00927734 145.311 2.13089 145.311 4.72482V36.8053C145.311 39.3993 142.675 41.5206 139.453 41.5206H129.687C132.909 41.5206 135.544 39.3989 135.544 36.8053V4.72482C135.544 2.13089 132.909 0.00927734 129.687 0.00927734Z" fill="#9DC6FB"/>
<path fill-rule="evenodd" clip-rule="evenodd" d="M100 23.2832C114.616 23.2832 126.475 36.8144 126.475 53.5097C126.475 70.2053 114.616 75.1614 100 75.1614C85.3837 75.1614 73.5356 70.2053 73.5356 53.5097C73.5356 36.8141 85.3837 23.2832 100 23.2832Z" fill="#365E7D"/>
<path fill-rule="evenodd" clip-rule="evenodd" d="M99.9999 23.2832C114.616 23.2832 126.475 36.8144 126.475 53.5097C126.475 70.2053 114.616 75.1614 99.9999 75.1614C98.339 75.1614 96.7003 75.0991 95.1167 74.9563C107.408 73.8778 116.709 68.2978 116.709 53.5097C116.709 38.7219 107.408 26.412 95.1167 23.7914C96.7003 23.4615 98.339 23.2832 99.9999 23.2832Z" fill="#2B4D66"/>
<path d="M97.0769 41.8324C97.0769 40.5309 98.3835 39.4702 100 39.4702C101.616 39.4702 102.934 40.5309 102.934 41.8324V84.9125C102.934 86.2137 101.617 87.2746 100 87.2746C98.3832 87.2746 97.0769 86.2137 97.0769 84.9125V41.8324Z" fill="#80B4FB"/>
<path d="M97.0771 97.1781C97.0771 95.8766 98.3837 94.8159 100 94.8159C101.617 94.8159 102.934 95.8766 102.934 97.1781V111.485H118.946C121.371 111.485 123.563 112.278 125.158 113.562C126.752 114.845 127.738 116.61 127.738 118.562V121.628C127.738 122.93 126.42 123.991 124.804 123.991C123.187 123.991 121.88 122.93 121.88 121.628V118.562C121.88 117.912 121.548 117.323 121.017 116.895C120.485 116.467 119.754 116.2 118.946 116.2H102.934V121.628C102.934 122.93 101.617 123.991 99.9997 123.991C98.3829 123.991 97.0767 122.93 97.0767 121.628V116.2H81.054C80.2571 116.2 79.5259 116.467 78.9946 116.895C78.4634 117.323 78.131 117.912 78.131 118.562V121.628C78.131 122.93 76.8134 123.991 75.1966 123.991C73.5798 123.991 72.2622 122.93 72.2622 121.628V118.562C72.2622 116.61 73.2587 114.845 74.8419 113.562C76.4368 112.278 78.6403 111.485 81.054 111.485H97.0767L97.0771 97.1781Z" fill="#80B4FB"/>
<path fill-rule="evenodd" clip-rule="evenodd" d="M82.8149 84.9131H117.185C121.382 84.9131 124.804 87.6762 124.804 91.0459C124.804 94.4152 121.382 97.1783 117.185 97.1783H82.8149C78.6293 97.1783 75.1965 94.4149 75.1965 91.0459C75.1965 87.6762 78.6293 84.9131 82.8149 84.9131Z" fill="#365E7D"/>
<path fill-rule="evenodd" clip-rule="evenodd" d="M107.419 84.9131H117.185C121.382 84.9131 124.803 87.6762 124.803 91.0459C124.803 94.4152 121.382 97.1783 117.185 97.1783H107.419C111.616 97.1783 115.037 94.4149 115.037 91.0459C115.037 87.6762 111.616 84.9131 107.419 84.9131Z" fill="#2B4D66"/>
</svg>
