<svg width="146" height="135" viewBox="0 0 146 135" fill="none" xmlns="http://www.w3.org/2000/svg">
<path d="M73 117.765C113.317 117.765 146 91.4549 146 58.9999C146 26.5448 113.317 0.234863 73 0.234863C32.6832 0.234863 0 26.5448 0 58.9999C0 91.4549 32.6832 117.765 73 117.765Z" fill="#EEF8FF"/>
<path d="M46 23.1989C46 20.8633 48.6291 18.75 52.7798 18.75H80.591C98.1634 18.75 112 25.5345 112 43.7754V44.4429C112 62.6838 97.748 69.6905 79.4842 69.6905H63.9874V95.4948C63.9874 98.4978 59.4212 100.055 54.9939 100.055C50.4272 100.055 46 98.4978 46 95.4948V23.1989ZM63.9874 31.4297V58.3458H79.4842C88.4776 58.3458 94.0126 54.2309 94.0126 45.5552V44.2207C94.0126 35.5451 88.4776 31.4301 79.4842 31.4301L63.9874 31.4297Z" fill="#2C5871"/>
<path d="M27.9319 134.82V125.748H46.3639V134.82H27.9319Z" fill="#EE4747"/>
<path d="M52.1559 134.82V125.748H70.5879V134.82H52.1559Z" fill="#EE4747"/>
<path d="M76.38 134.82V125.748H94.812V134.82H76.38Z" fill="#EE4747"/>
<path d="M100.604 134.82V125.748H119.036V134.82H100.604Z" fill="#EE4747"/>
</svg>
