<svg width="150" height="162" viewBox="0 0 150 162" fill="none" xmlns="http://www.w3.org/2000/svg">
<g clip-path="url(#clip0_268_911)">
<path d="M97.7365 67.6883H52.2637V56.0931C52.2637 55.3781 52.8039 54.7982 53.4701 54.7982H96.5301C97.1963 54.7982 97.7365 55.3781 97.7365 56.0931V67.6883Z" fill="#464646"/>
<path d="M10.7495 148.607H4.03906C3.39189 148.607 2.86719 148.044 2.86719 147.35V91.9983H11.9214V147.35C11.9214 148.044 11.3967 148.607 10.7495 148.607Z" fill="#353535"/>
<path d="M145.961 148.607H139.25C138.603 148.607 138.078 148.044 138.078 147.35V91.9983H147.133V147.35C147.133 148.044 146.608 148.607 145.961 148.607Z" fill="#353535"/>
<path d="M142.491 67.1317C141.662 67.1317 140.869 66.626 140.497 65.766L122.047 23.1199C121.536 21.9385 122.014 20.536 123.114 19.9876C124.215 19.4389 125.521 19.9521 126.033 21.1335L144.483 63.7796C144.994 64.961 144.516 66.3635 143.415 66.9119C143.116 67.0609 142.801 67.1317 142.491 67.1317Z" fill="#595959"/>
<path d="M136.616 21.5665L9.13335 66.8814C7.10835 67.6012 4.92954 66.4015 4.26684 64.2022C3.60415 62.0026 4.70864 59.6361 6.73335 58.9163L134.216 13.6017C136.241 12.8819 138.42 14.0816 139.083 16.2809C139.745 18.4805 138.641 20.8467 136.616 21.5665Z" fill="#464646"/>
<path d="M79.5278 91.9965H70.4736V140.498H79.5278V91.9965Z" fill="#595959"/>
<path d="M145.926 91.9983H4.07422V63.2086H144.753C145.401 63.2086 145.925 63.7717 145.925 64.4664L145.926 91.9983Z" fill="#595959"/>
<path d="M145.926 91.9983H136.872V63.2086H144.754C145.401 63.2086 145.926 63.7717 145.926 64.4664V91.9983Z" fill="#464646"/>
<path d="M145.927 83.588H4.07422V91.9983H145.927V83.588Z" fill="#FFDEA9"/>
<path d="M140.946 83.588H131.892V91.9983H140.946V83.588Z" fill="#FFBF7B"/>
<path d="M79.5273 137.982H70.4731V130.617C70.4731 127.936 72.4984 125.761 74.9972 125.761H75.0036C77.502 125.761 79.5276 127.935 79.5276 130.617L79.5273 137.982Z" fill="#353535"/>
<path d="M67.1528 137.982H58.0986V130.617C58.0986 127.936 60.1239 125.761 62.6227 125.761H62.6291C65.1275 125.761 67.1531 127.935 67.1531 130.617V137.982H67.1528Z" fill="#353535"/>
<path d="M91.9014 137.982H82.8472V130.617C82.8472 127.936 84.8725 125.761 87.3712 125.761H87.3776C89.8761 125.761 91.9017 127.935 91.9017 130.617L91.9014 137.982Z" fill="#353535"/>
<path d="M80.4325 77.0102H69.5671C68.3537 77.0102 67.3699 75.9543 67.3699 74.6518C67.3699 73.3493 68.3537 72.2934 69.5671 72.2934H80.4325C81.6459 72.2934 82.6297 73.3493 82.6297 74.6518C82.6297 75.9543 81.6462 77.0102 80.4325 77.0102Z" fill="#FFDEA9"/>
<path d="M150 84.8442V101.737C150 102.432 149.475 102.995 148.828 102.995H1.17188C0.524707 102.995 0 102.432 0 101.737V84.8442C0 84.1496 0.524707 83.5864 1.17188 83.5864H9.0542V91.9967H140.946V83.5864H148.828C149.475 83.5864 150 84.1492 150 84.8442Z" fill="#464646"/>
<path d="M148.828 102.995H140.946V83.5864H148.828C149.475 83.5864 150 84.1496 150 84.8442V101.737C150 102.432 149.475 102.995 148.828 102.995Z" fill="#353535"/>
<path d="M95.2221 143.876H54.7777C54.1115 143.876 53.5713 143.297 53.5713 142.582V136.761C53.5713 136.046 54.1115 135.466 54.7777 135.466H95.2221C95.8883 135.466 96.4285 136.046 96.4285 136.761V142.582C96.4285 143.297 95.8883 143.876 95.2221 143.876Z" fill="#353535"/>
</g>
<defs>
<clipPath id="clip0_268_911">
<rect width="150" height="161" fill="white" transform="translate(0 0.5)"/>
</clipPath>
</defs>
</svg>
