<svg width="200" height="160" viewBox="0 0 200 160" fill="none" xmlns="http://www.w3.org/2000/svg">
<path d="M119 9.96518L115.875 0.305176H98.6875C96.0987 0.305176 94 2.46773 94 5.13518V6.74518L119 9.96518Z" fill="#B2E5FB"/>
<path d="M117.333 0.305176H115.778V4.33018C115.778 5.6639 114.733 6.74518 113.444 6.74518H94V16.4052H122V5.13518C122 2.46773 119.911 0.305176 117.333 0.305176Z" fill="#91DAFA"/>
<path d="M177 96.9052L175.111 69.5352H160V94.9502L177 96.9052Z" fill="#B2E5FB"/>
<path d="M176.15 69.5352H175.2V93.975C175.2 94.3484 174.902 94.6512 174.535 94.6512H160V98.5152H176.15C177.724 98.5152 179 97.2176 179 95.6172V72.4332C179 70.8327 177.724 69.5352 176.15 69.5352Z" fill="#91DAFA"/>
<path d="M154.804 13.1851H60.705C58.1066 13.1851 56 15.2654 56 17.8314V148.548L157 151.645L154.804 13.1851Z" fill="#DCE6EB"/>
<path d="M155.273 13.1851V146.339C155.273 147.624 154.214 148.665 152.909 148.665H56V154.865H65.4545L108.675 151.765L150.545 154.865H160V17.8354C160 15.2672 157.883 13.1851 155.273 13.1851Z" fill="#C8D2DC"/>
<path d="M143.885 22.04H110.394L108.058 25.1481L105.721 22.04H68.3365C67.0461 22.04 66 23.0837 66 24.3711V148.537L147 151.645L143.885 22.04Z" fill="#C8D2DC"/>
<path d="M144.704 22.04V146.311C144.704 147.599 143.647 148.644 142.343 148.644H66V154.865H151V24.373C151 23.0846 149.943 22.04 148.639 22.04H144.704Z" fill="#A2ABB8"/>
<path d="M2.92969 154.604C1.31133 154.604 0 155.66 0 156.962C0 158.265 1.31133 159.321 2.92969 159.321H197.07C198.689 159.321 200 158.265 200 156.962C200 155.66 198.689 154.604 197.07 154.604H2.92969Z" fill="#70C6DB"/>
<path d="M169.718 83.4182C170.723 83.4182 171.537 82.7628 171.537 81.9544V79.6331L172.069 80.0617C172.424 80.3475 172.89 80.4905 173.355 80.4905C173.821 80.4905 174.286 80.3477 174.641 80.0617C175.351 79.4901 175.351 78.5632 174.641 77.9917L171.004 75.064C170.294 74.4923 169.143 74.4923 168.433 75.064L164.796 77.9917C164.086 78.5634 164.086 79.4903 164.796 80.0617C165.506 80.6334 166.657 80.6334 167.368 80.0617L167.9 79.6331V81.9544C167.9 82.7628 168.714 83.4182 169.718 83.4182Z" fill="#F7F9FA"/>
<path d="M164.795 91.7722L168.432 94.6999C168.787 94.9856 169.253 95.1287 169.718 95.1287C170.183 95.1287 170.649 94.9858 171.004 94.6999L174.641 91.7722C175.351 91.2006 175.351 90.2737 174.641 89.7022C173.931 89.1305 172.779 89.1305 172.069 89.7022L171.537 90.1308V87.8095C171.537 87.0011 170.723 86.3457 169.718 86.3457C168.714 86.3457 167.9 87.0011 167.9 87.8095V90.1308L167.367 89.7022C166.657 89.1305 165.506 89.1305 164.796 89.7022C164.085 90.2737 164.085 91.2008 164.795 91.7722Z" fill="#F7F9FA"/>
</svg>
