<svg width="200" height="128" viewBox="0 0 200 128" fill="none" xmlns="http://www.w3.org/2000/svg">
<path d="M24.4899 92.7098V123.555C24.4899 125.983 26.9348 127.951 29.9504 127.951C32.816 127.951 35.1942 126.168 35.3973 123.867L38.1489 92.7095H24.4899V92.7098Z" fill="#596C76"/>
<path d="M161.851 92.71L164.603 123.867C164.806 126.168 167.184 127.951 170.05 127.951C173.065 127.951 175.51 125.983 175.51 123.556V92.7103H161.851V92.71Z" fill="#596C76"/>
<path d="M161.852 92.71L163.068 106.484H175.51V92.71H161.852Z" fill="#465A61"/>
<path d="M24.4899 92.71V106.484H36.9324L38.1489 92.71H24.4899Z" fill="#465A61"/>
<path d="M187.755 68.725H100V8.79559C100 3.96496 104.864 0.0490723 110.865 0.0490723H176.89C182.891 0.0490723 187.755 3.96496 187.755 8.79559V68.725Z" fill="#01998D"/>
<path d="M176.89 0.0490723H160.92C166.921 0.0490723 171.785 3.96496 171.785 8.79559V68.725H187.755V8.79559C187.755 3.96496 182.891 0.0490723 176.89 0.0490723Z" fill="#008B81"/>
<path d="M100.014 68.725H12.2594V8.79559C12.2594 3.96496 17.1239 0.0490723 23.1246 0.0490723H89.1492C95.15 0.0490723 100.014 3.96496 100.014 8.79559V68.725Z" fill="#01998D"/>
<path d="M175.51 42.5118V74.3474C175.51 76.1366 173.709 77.5869 171.486 77.5869H28.5141C26.2914 77.5869 24.4898 76.1366 24.4898 74.3474V42.5118C24.4898 39.8283 21.7875 37.6526 18.4535 37.6526H6.03633C2.70234 37.6526 0 39.8283 0 42.5118V87.5827C0 92.9501 5.40508 97.3009 12.0723 97.3009H187.927C194.595 97.3009 200 92.9498 200 87.5827V42.5118C200 39.8283 197.297 37.6526 193.963 37.6526H181.546C178.213 37.6526 175.51 39.8283 175.51 42.5118Z" fill="#0AB69F"/>
<path d="M193.964 37.6526H181.719C185.052 37.6526 187.755 39.8283 187.755 42.5118V87.5827C187.755 92.9501 182.35 97.3009 175.683 97.3009H187.928C194.595 97.3009 200 92.9498 200 87.5827V42.5118C200 39.8283 197.298 37.6526 193.964 37.6526Z" fill="#01998D"/>
<path d="M100 77.587H16.6109C14.2152 77.587 12.2734 76.0238 12.2734 74.0953V60.0669C12.2734 58.1383 14.2152 56.5752 16.6109 56.5752H95.6625C98.0582 56.5752 100 58.1383 100 60.0669V77.587Z" fill="#008B81"/>
<path d="M100 77.587H183.389C185.784 77.587 187.726 76.0238 187.726 74.0953V60.0669C187.726 58.1383 185.784 56.5752 183.389 56.5752H104.338C101.942 56.5752 100 58.1383 100 60.0669V77.587Z" fill="#008B81"/>
<path d="M183.389 56.5752H171.982C174.378 56.5752 176.32 58.1383 176.32 60.0669V74.0953C176.32 76.0238 174.378 77.587 171.982 77.587H183.389C185.785 77.587 187.727 76.0238 187.727 74.0953V60.0669C187.726 58.1383 185.784 56.5752 183.389 56.5752Z" fill="#037E73"/>
<path d="M95.6625 56.5752H84.2555C86.6512 56.5752 88.593 58.1383 88.593 60.0669V77.587H100V60.0669C100 58.1383 98.0582 56.5752 95.6625 56.5752Z" fill="#037E73"/>
</svg>
