<svg width="200" height="136" viewBox="0 0 200 136" fill="none" xmlns="http://www.w3.org/2000/svg">
<path d="M185.487 130.717C183.868 130.717 182.554 129.659 182.554 128.356V85.3081C182.554 84.0036 183.868 82.9473 185.487 82.9473C187.106 82.9473 188.42 84.0049 188.42 85.3081V128.356C188.42 129.659 187.106 130.717 185.487 130.717Z" fill="#AABFD5"/>
<path d="M119.231 86.7872C117.61 86.7872 116.298 85.7308 116.298 84.4263V41.3745C116.298 40.07 117.61 39.0137 119.231 39.0137C120.85 39.0137 122.162 40.07 122.162 41.3745V84.4263C122.163 85.7308 120.85 86.7872 119.231 86.7872Z" fill="#AABFD5"/>
<path d="M50.0853 42.8572C48.4648 42.8572 47.1526 41.8008 47.1526 40.4976V2.43898C47.1526 1.13449 48.4648 0.078125 50.0853 0.078125C51.7043 0.078125 53.0165 1.13449 53.0165 2.43898V40.4964C53.0165 41.8008 51.7043 42.8572 50.0853 42.8572Z" fill="#AABFD5"/>
<path d="M197.066 95.3475C196.409 95.3475 195.749 95.1706 195.202 94.8082L59.4513 4.79983H36.6516C35.0327 4.79983 33.7189 3.74224 33.7189 2.43898C33.7189 1.13449 35.0327 0.078125 36.6516 0.078125H60.5026C61.1831 0.078125 61.8423 0.268516 62.3672 0.617362L198.932 91.165C200.181 91.9941 200.361 93.4816 199.331 94.4876C198.752 95.0539 197.911 95.3475 197.066 95.3475Z" fill="#3A4D7B"/>
<path d="M191.005 125.674V134.792C191.005 135.249 190.544 135.62 189.975 135.62H151.155V124.845H189.975C190.542 124.845 191.005 125.216 191.005 125.674ZM118.028 102.88V113.655H156.848C157.416 113.655 157.876 113.284 157.876 112.827V103.709C157.876 103.251 157.416 102.88 156.848 102.88H118.028ZM84.9013 80.9159V91.6908H123.72C124.289 91.6908 124.75 91.3198 124.75 90.8617V81.7438C124.75 81.2868 124.289 80.9159 123.72 80.9159H84.9013ZM51.773 58.9509V69.7258H90.5929C91.162 69.7258 91.6228 69.3548 91.6228 68.8967V59.7787C91.6228 59.3218 91.162 58.9509 90.5929 58.9509H51.773ZM18.6462 36.9858V47.7608H57.4661C58.0352 47.7608 58.496 47.3898 58.496 46.9316V37.815C58.496 37.3568 58.0352 36.9858 57.4661 36.9858H18.6462Z" fill="#56A6E8"/>
<path d="M82.5378 59.7786V68.8965C82.5378 69.3546 82.0754 69.7256 81.5078 69.7256H90.5929C91.162 69.7256 91.6229 69.3546 91.6229 68.8965V59.7786C91.6229 59.3216 91.162 58.9507 90.5929 58.9507H81.5078C82.0754 58.9507 82.5378 59.3216 82.5378 59.7786Z" fill="#2176C7"/>
<path d="M115.665 81.7439V90.8618C115.665 91.32 115.204 91.6909 114.635 91.6909H123.72C124.289 91.6909 124.75 91.32 124.75 90.8618V81.7439C124.75 81.287 124.289 80.916 123.72 80.916H114.635C115.204 80.916 115.665 81.287 115.665 81.7439Z" fill="#2176C7"/>
<path d="M148.791 103.709V112.827C148.791 113.284 148.331 113.655 147.761 113.655H156.848C157.416 113.655 157.877 113.284 157.877 112.827V103.709C157.877 103.251 157.416 102.88 156.848 102.88H147.761C148.331 102.88 148.791 103.251 148.791 103.709Z" fill="#2176C7"/>
<path d="M189.975 124.845H180.89C181.458 124.845 181.92 125.216 181.92 125.674V134.792C181.92 135.249 181.458 135.621 180.89 135.621H189.975C190.544 135.621 191.005 135.249 191.005 134.792V125.674C191.005 125.216 190.543 124.845 189.975 124.845Z" fill="#2176C7"/>
<path d="M49.4095 37.815V46.9316C49.4095 47.3898 48.9487 47.7608 48.3811 47.7608H57.4662C58.0353 47.7608 58.4961 47.3898 58.4961 46.9316V37.815C58.4961 37.3568 58.0353 36.9858 57.4662 36.9858H48.3811C48.9487 36.9858 49.4095 37.3568 49.4095 37.815Z" fill="#2176C7"/>
<path d="M118.028 113.655V91.6908H84.9013V69.7258H51.773V47.7608H18.6462V36.9858H2.05993C0.92163 36.9858 0 37.7278 0 38.6429V133.963C0 134.878 0.92163 135.62 2.05993 135.62H151.155V113.655H118.028Z" fill="#FED89B"/>
<path d="M51.7729 69.7256H84.9013V77.1668H51.7729V69.7256Z" fill="#EAB875"/>
<path d="M84.9014 91.6904H118.028V99.1317H84.9014V91.6904Z" fill="#EAB875"/>
<path d="M2.05993 44.4271H18.6462V36.9858H2.05993C0.92163 36.9858 0 37.7278 0 38.6429V46.0853C0 45.169 0.92163 44.4271 2.05993 44.4271Z" fill="#EAB875"/>
<path d="M18.6462 47.7607H51.773V55.202H18.6462V47.7607Z" fill="#EAB875"/>
<path d="M118.028 113.654H151.155V121.097H118.028V113.654Z" fill="#EAB875"/>
</svg>
