<?xml version="1.0" encoding="utf-8"?>
<!-- Generator: Adobe Illustrator 27.5.0, SVG Export Plug-In . SVG Version: 6.00 Build 0)  -->
<svg version="1.1" xmlns="http://www.w3.org/2000/svg" xmlns:xlink="http://www.w3.org/1999/xlink" x="0px" y="0px"
	 viewBox="0 0 750 500" style="enable-background:new 0 0 750 500;" xml:space="preserve">
<g id="BACKGROUND">
</g>
<g id="OBJECTS">
	<g>
		<path style="opacity:0.2;fill:#4B605C;" d="M714.602,416.003c0,3.966-39.351,7.181-87.893,7.181
			c-48.542,0-87.893-3.215-87.893-7.181s39.351-7.181,87.893-7.181C675.251,408.822,714.602,412.037,714.602,416.003z"/>
		<ellipse style="opacity:0.2;fill:#4B605C;" cx="230.743" cy="449.859" rx="61.584" ry="5.292"/>
		<ellipse style="opacity:0.2;fill:#4B605C;" cx="549.518" cy="442.642" rx="68.605" ry="5.292"/>
		<ellipse style="opacity:0.2;fill:#4B605C;" cx="389.033" cy="451.302" rx="74.574" ry="6.285"/>
		<ellipse style="opacity:0.2;fill:#4B605C;" cx="354.873" cy="423.277" rx="147.224" ry="9.634"/>
		<ellipse style="opacity:0.2;fill:#4B605C;" cx="125.646" cy="427.323" rx="85.438" ry="5.696"/>
	</g>
	<g>
		<g>
			<g>
				<g>
					<rect x="317.886" y="43.76" style="fill:#DDBE66;" width="13.498" height="32.395"/>
					<path style="fill:#FFDE73;" d="M336.446,43.76c0-3.727-3.022-6.749-6.749-6.749h-10.124c-3.727,0-6.749,3.022-6.749,6.749
						v4.049h23.621V43.76z"/>
				</g>
				<g>
					<path style="fill:#FFDE73;" d="M344.881,95.452c0,2.1-1.702,3.802-3.802,3.802h-32.887c-2.1,0-3.802-1.702-3.802-3.802V63.135
						c0-2.1,1.702-3.802,3.802-3.802h32.887c2.1,0,3.802,1.702,3.802,3.802V95.452z"/>
					<path style="fill:#DDBE66;" d="M304.389,72.78v22.671c0,2.1,1.702,3.802,3.802,3.802h32.887c2.1,0,3.802-1.702,3.802-3.802
						V72.78H304.389z"/>
				</g>
			</g>
			<g>
				<path style="fill:#26DDCB;" d="M382.336,290.135c0,11.182-9.065,20.247-20.247,20.247h-74.908
					c-11.182,0-20.247-9.065-20.247-20.247V98.813c0-11.182,9.065-20.247,20.247-20.247h74.908c11.182,0,20.247,9.065,20.247,20.247
					V290.135z"/>
				<path style="fill:#24C6B3;" d="M266.934,111.627v178.507c0,11.182,9.065,20.247,20.247,20.247h74.908
					c11.182,0,20.247-9.065,20.247-20.247V111.627H266.934z"/>
			</g>
		</g>
		<g>
			<g>
				<g>
					<path style="fill:#DE5C83;" d="M488.761,405.114c0,10.629-8.616,19.245-19.245,19.245H253.972
						c-10.629,0-19.245-8.616-19.245-19.245V149.155c0-10.629,8.616-19.245,19.245-19.245h215.544
						c10.629,0,19.245,8.616,19.245,19.245V405.114z"/>
					<path style="fill:#BC5074;" d="M488.761,158.778v-9.622c0-10.629-8.616-19.245-19.245-19.245H253.972
						c-10.629,0-19.245,8.616-19.245,19.245v9.622H488.761z"/>
					<path style="fill:#DE5C83;" d="M508.968,138.089c0,6.643-5.385,12.028-12.028,12.028H233.283
						c-6.643,0-12.028-5.385-12.028-12.028l0,0c0-6.643,5.385-12.028,12.028-12.028H496.94
						C503.583,126.061,508.968,131.446,508.968,138.089L508.968,138.089z"/>
					<path style="fill:#FF88B9;" d="M508.944,138.57c0.006-0.161,0.024-0.319,0.024-0.481c0-6.643-5.385-12.028-12.028-12.028
						H233.283c-6.643,0-12.028,5.385-12.028,12.028c0,0.163,0.018,0.32,0.024,0.481H508.944z"/>
				</g>
				<g>
					<path style="fill:#BC5074;" d="M488.761,221.707v-15.623c-11.023,41.902-42.197,75.719-82.498,90.401
						c-0.061-0.139-0.121-0.279-0.182-0.418c-1.09-2.479-3.873-3.736-6.454-2.914c-12.386,3.95-25.295,5.953-38.367,5.953
						c-15,0-29.699-2.618-43.688-7.783c-1.401-0.517-2.956-0.417-4.281,0.273c-1.139,0.594-2.014,1.581-2.478,2.765
						c-36.553-15.197-64.839-46.391-76.087-84.792v14.529c13.843,33.861,40.885,60.977,74.71,74.893
						c-0.032,0.101-0.059,0.195-0.092,0.299c-0.872,2.704,0.548,5.616,3.216,6.593c15.606,5.718,31.991,8.618,48.7,8.618
						c14.849,0,29.496-2.299,43.532-6.834c1.419-0.459,2.58-1.494,3.194-2.853c0.559-1.234,0.616-2.629,0.179-3.901
						C445.092,287.377,474.599,258.33,488.761,221.707z"/>
				</g>
			</g>
			<g>
				<g>
					<path style="fill:#BC5074;" d="M361.439,152.461v14.449c0,0-30.389,38.348-27.495,41.243
						c2.894,2.894,25.325-13.748,25.325-13.748s-7.236,78.868,2.894,78.144c10.13-0.724,10.853-51.372,10.853-51.372
						s0,52.82,7.236,53.543c7.236,0.724,7.236-54.267,7.236-54.267s2.894,49.925,9.406,49.925s6.512-51.372,6.512-51.372
						s2.171,39.796,7.236,40.519c5.065,0.724,5.788-5.065,6.512-65.844c0.724-60.779,1.447-40.498,1.447-40.498L361.439,152.461z"/>
					<path style="fill:#BC5074;" d="M401.853,154.526v14.449c0,0-30.389,14.473-27.495,17.367
						c2.894,2.894,25.324-13.748,25.324-13.748s-7.236,78.868,2.894,78.144c10.13-0.723,10.853-51.372,10.853-51.372
						s0,52.82,7.236,53.543c7.236,0.724,7.236-54.267,7.236-54.267s2.894,49.925,9.406,49.925c6.512,0,6.512-51.372,6.512-51.372
						s2.171,39.796,7.236,40.519c5.065,0.724,6.512-5.061,6.512-65.844c0-23.037,1.447-16.622,1.447-16.622L401.853,154.526z"/>
				</g>
				<g>
					<g>
						<path style="fill:#EFDD59;" d="M359.466,119.669c-0.904,1.155-1.82,2.299-2.747,3.432v38.499c0,0-30.389,38.348-27.495,41.243
							c2.894,2.894,25.324-13.748,25.324-13.748s-7.236,78.868,2.894,78.144c10.13-0.724,10.853-51.372,10.853-51.372
							s0,52.82,7.236,53.543c7.236,0.724,7.236-54.267,7.236-54.267s2.894,49.925,9.406,49.925s6.512-51.373,6.512-51.373
							s2.171,39.796,7.236,40.519c5.065,0.723,5.788-5.065,6.512-65.844c0.724-60.779,1.447-68.014,1.447-68.014L359.466,119.669z"
							/>
					</g>
					<g>
						<path style="fill:#FFFF7B;" d="M447.772,120.597l-47.847-0.606c-0.969,1.541-2.189,2.977-3.433,4.365v17.358
							c0,0-30.389,38.349-27.495,41.243c2.894,2.894,25.324-13.748,25.324-13.748s-7.236,78.868,2.894,78.144
							c10.13-0.723,10.853-51.372,10.853-51.372s0,52.82,7.236,53.543c7.236,0.724,7.236-54.267,7.236-54.267
							s2.894,49.925,9.406,49.925c6.512,0,6.512-51.372,6.512-51.372s2.171,39.796,7.236,40.519
							c5.065,0.724,5.788-5.065,6.512-65.844c0.322-27.077,0.645-39.507,0.903-44.978
							C451.307,122.583,449.522,121.626,447.772,120.597z"/>
					</g>
				</g>
			</g>
			<g>
				<g>
					<g>
						<path style="fill:#64827D;" d="M361.26,298.304c-75.344,0-136.64-61.296-136.64-136.64c0-1.329,1.077-2.406,2.406-2.406h7.749
							v4.811h-5.322c1.287,71.586,59.919,129.423,131.807,129.423c71.887,0,130.52-57.837,131.807-129.423h-4.262v-4.811h6.689
							c1.329,0,2.406,1.077,2.406,2.406C497.9,237.008,436.604,298.304,361.26,298.304z"/>
					</g>
					<g>
						<path style="fill:#4B605C;" d="M234.775,159.259h-3.777c-0.031,1.604-0.063,3.208-0.089,4.811h3.866V159.259z"/>
						<path style="fill:#4B605C;" d="M492.426,159.259h-3.621v4.811h3.426C492.314,162.467,492.382,160.864,492.426,159.259z"/>
					</g>
				</g>
				<g>
					<path style="fill:#FFFFFF;" d="M408.025,289.628c-0.644-1.49-1.291-2.981-1.943-4.466c-1.09-2.479-3.873-3.736-6.454-2.914
						c-12.386,3.951-25.295,5.953-38.367,5.953c-15,0-29.699-2.618-43.688-7.783c-1.401-0.517-2.956-0.417-4.281,0.273
						c-1.324,0.691-2.295,1.909-2.673,3.356c-0.357,1.367-0.773,2.786-1.274,4.339c-0.872,2.704,0.548,5.616,3.216,6.593
						c15.606,5.718,31.991,8.618,48.7,8.618c14.849,0,29.496-2.299,43.532-6.833c1.419-0.459,2.58-1.494,3.194-2.853
						C408.602,292.552,408.616,290.997,408.025,289.628z"/>
					<path style="opacity:0.2;fill:#4B605C;" d="M407.716,288.92c-0.653,1.122-1.676,1.988-2.924,2.391
						c-14.036,4.534-28.683,6.833-43.532,6.833c-16.709,0-33.094-2.9-48.7-8.618c-1.255-0.46-2.219-1.355-2.813-2.447
						c-0.133,0.432-0.257,0.854-0.403,1.307c-0.872,2.704,0.548,5.616,3.216,6.593c15.606,5.718,31.991,8.618,48.7,8.618
						c14.849,0,29.496-2.299,43.532-6.833c1.419-0.459,2.58-1.494,3.194-2.853c0.616-1.358,0.63-2.913,0.038-4.282
						C407.922,289.392,407.819,289.156,407.716,288.92z"/>
				</g>
			</g>
		</g>
	</g>
	<g>
		<g>
			<g>
				<path style="fill:#FF9FE6;" d="M669.666,195.954c0,4.798-3.89,8.688-8.688,8.688h-38.662c-4.798,0-8.688-3.89-8.688-8.688
					V162.07c0-4.798,3.89-8.688,8.688-8.688h38.662c4.798,0,8.688,3.89,8.688,8.688V195.954z"/>
				<path style="opacity:0.3;fill:#4B605C;" d="M613.628,164.677v24.326c0,4.798,3.89,8.688,8.688,8.688h38.662
					c4.798,0,8.688-3.89,8.688-8.688v-24.326H613.628z"/>
			</g>
			<g>
				<path style="fill:#FFCAF5;" d="M677.483,239.764c0,4.798-3.89,8.688-8.688,8.688h-54.297c-4.798,0-8.688-3.89-8.688-8.688
					v-60.812c0-4.798,3.89-8.688,8.688-8.688h54.297c4.798,0,8.688,3.89,8.688,8.688V239.764z"/>
				<g style="opacity:0.7;">
					<defs>
						<path id="SVGID_1_" style="opacity:0.7;" d="M677.483,239.764c0,4.798-3.89,8.688-8.688,8.688h-54.297
							c-4.798,0-8.688-3.89-8.688-8.688v-60.812c0-4.798,3.89-8.688,8.688-8.688h54.297c4.798,0,8.688,3.89,8.688,8.688V239.764z"/>
					</defs>
					<clipPath id="SVGID_00000054252912366955185090000005434909961594079126_">
						<use xlink:href="#SVGID_1_"  style="overflow:visible;"/>
					</clipPath>
					<path style="clip-path:url(#SVGID_00000054252912366955185090000005434909961594079126_);fill:#FF9FE6;" d="M613.505,210.876
						c0,1.799-0.847,3.258-1.892,3.258l0,0c-1.045,0-1.892-1.458-1.892-3.258V117.05c0-1.799,0.847-3.258,1.892-3.258l0,0
						c1.045,0,1.892,1.459,1.892,3.258V210.876z"/>
					<path style="clip-path:url(#SVGID_00000054252912366955185090000005434909961594079126_);fill:#FF9FE6;" d="M620.166,210.876
						c0,1.799-0.847,3.258-1.892,3.258l0,0c-1.045,0-1.892-1.458-1.892-3.258V117.05c0-1.799,0.847-3.258,1.892-3.258l0,0
						c1.045,0,1.892,1.459,1.892,3.258V210.876z"/>
					<path style="clip-path:url(#SVGID_00000054252912366955185090000005434909961594079126_);fill:#FF9FE6;" d="M626.827,210.876
						c0,1.799-0.847,3.258-1.892,3.258l0,0c-1.045,0-1.892-1.458-1.892-3.258V117.05c0-1.799,0.847-3.258,1.892-3.258l0,0
						c1.045,0,1.892,1.459,1.892,3.258V210.876z"/>
					<path style="clip-path:url(#SVGID_00000054252912366955185090000005434909961594079126_);fill:#FF9FE6;" d="M633.488,210.876
						c0,1.799-0.847,3.258-1.892,3.258l0,0c-1.045,0-1.892-1.458-1.892-3.258V117.05c0-1.799,0.847-3.258,1.892-3.258l0,0
						c1.045,0,1.892,1.459,1.892,3.258V210.876z"/>
					<path style="clip-path:url(#SVGID_00000054252912366955185090000005434909961594079126_);fill:#FF9FE6;" d="M640.149,210.876
						c0,1.799-0.847,3.258-1.892,3.258l0,0c-1.045,0-1.892-1.458-1.892-3.258V117.05c0-1.799,0.847-3.258,1.892-3.258l0,0
						c1.045,0,1.892,1.459,1.892,3.258V210.876z"/>
					<path style="clip-path:url(#SVGID_00000054252912366955185090000005434909961594079126_);fill:#FF9FE6;" d="M646.81,210.876
						c0,1.799-0.847,3.258-1.892,3.258l0,0c-1.045,0-1.892-1.458-1.892-3.258V117.05c0-1.799,0.847-3.258,1.892-3.258l0,0
						c1.045,0,1.892,1.459,1.892,3.258V210.876z"/>
					<path style="clip-path:url(#SVGID_00000054252912366955185090000005434909961594079126_);fill:#FF9FE6;" d="M653.594,210.876
						c0,1.799-0.847,3.258-1.892,3.258l0,0c-1.045,0-1.892-1.458-1.892-3.258V117.05c0-1.799,0.847-3.258,1.892-3.258l0,0
						c1.045,0,1.892,1.459,1.892,3.258V210.876z"/>
					<path style="clip-path:url(#SVGID_00000054252912366955185090000005434909961594079126_);fill:#FF9FE6;" d="M660.255,210.876
						c0,1.799-0.847,3.258-1.892,3.258l0,0c-1.045,0-1.892-1.458-1.892-3.258V117.05c0-1.799,0.847-3.258,1.892-3.258l0,0
						c1.045,0,1.892,1.459,1.892,3.258V210.876z"/>
					<path style="clip-path:url(#SVGID_00000054252912366955185090000005434909961594079126_);fill:#FF9FE6;" d="M666.916,210.876
						c0,1.799-0.847,3.258-1.892,3.258l0,0c-1.045,0-1.892-1.458-1.892-3.258V117.05c0-1.799,0.847-3.258,1.892-3.258l0,0
						c1.045,0,1.892,1.459,1.892,3.258V210.876z"/>
					<path style="clip-path:url(#SVGID_00000054252912366955185090000005434909961594079126_);fill:#FF9FE6;" d="M673.577,210.876
						c0,1.799-0.847,3.258-1.892,3.258l0,0c-1.045,0-1.892-1.458-1.892-3.258V117.05c0-1.799,0.847-3.258,1.892-3.258l0,0
						c1.045,0,1.892,1.459,1.892,3.258V210.876z"/>
				</g>
			</g>
		</g>
		<g>
			<g>
				<path style="fill:#FF8AD2;" d="M701.591,399.18c0,9.596-7.779,17.376-17.376,17.376h-85.137
					c-9.596,0-17.376-7.779-17.376-17.376V233.249c0-9.596,7.779-17.376,17.376-17.376h85.137c9.596,0,17.376,7.779,17.376,17.376
					V399.18z"/>
				<path style="opacity:0.3;fill:#4B605C;" d="M684.215,215.873h-8.688c9.596,0,17.376,7.78,17.376,17.376V399.18
					c0,9.596-7.78,17.376-17.376,17.376h8.688c9.596,0,17.376-7.779,17.376-17.376V233.249
					C701.591,223.653,693.812,215.873,684.215,215.873z"/>
				<path style="opacity:0.4;fill:#FFCAF5;" d="M591.549,399.18V233.249c0-9.596,7.78-17.376,17.376-17.376h-9.846
					c-9.596,0-17.376,7.78-17.376,17.376V399.18c0,9.596,7.779,17.376,17.376,17.376h9.846
					C599.329,416.556,591.549,408.777,591.549,399.18z"/>
			</g>
			<path style="fill:#FFCAF5;" d="M684.508,360.881c0,4.798-3.89,8.688-8.688,8.688h-68.346c-4.798,0-8.688-3.89-8.688-8.688V260.1
				c0-4.798,3.89-8.688,8.688-8.688h68.346c4.798,0,8.688,3.89,8.688,8.688V360.881z"/>
		</g>
	</g>
	<g>
		<g>
			<g>
				<g>
					<path style="fill:#A5F268;" d="M182.28,226.718h-1.13c-1.66-8.177-8.888-14.332-17.555-14.332H74.917
						c-8.667,0-15.895,6.155-17.555,14.332h-1.082c-1.979,0-3.583,1.604-3.583,3.583v29.859c0,1.979,1.604,3.583,3.583,3.583h0.723
						v145.19c0,9.894,8.021,17.915,17.915,17.915h88.677c9.894,0,17.915-8.021,17.915-17.915v-145.19h0.77
						c1.979,0,3.583-1.604,3.583-3.583v-29.859C185.863,228.322,184.259,226.718,182.28,226.718z M95.818,352.125
						c0,4.947-4.01,8.958-8.958,8.958h-9.853c-4.947,0-8.958-4.01-8.958-8.958v-71.661c0-4.947,4.01-8.958,8.958-8.958h9.853
						c4.947,0,8.958,4.01,8.958,8.958V352.125z"/>
					<g>
						<g>
							<path style="fill:#8FCC5A;" d="M56.279,263.743h0.723v12.541h12.086c1.502-2.84,4.483-4.777,7.92-4.777h9.853
								c3.437,0,6.417,1.937,7.92,4.777h86.729v-12.541h0.77c1.979,0,3.583-1.604,3.583-3.583v-29.859
								c0-1.979-1.604-3.583-3.583-3.583h-1.13c-1.66-8.177-8.888-14.332-17.555-14.332H74.917c-8.667,0-15.895,6.155-17.555,14.332
								h-1.082c-1.979,0-3.583,1.604-3.583,3.583v29.859C52.696,262.138,54.301,263.743,56.279,263.743z"/>
							<path style="fill:#8FCC5A;" d="M57.002,408.856v0.077c0,9.894,8.021,17.915,17.915,17.915h88.677
								c9.894,0,17.915-8.021,17.915-17.915v-0.077H57.002z"/>
						</g>
						<path style="fill:#8FCC5A;" d="M95.818,271.506h-8.958c4.947,0,8.958,4.01,8.958,8.958v71.661c0,4.947-4.01,8.958-8.958,8.958
							h8.958c4.947,0,8.958-4.01,8.958-8.958v-71.661C104.776,275.516,100.766,271.506,95.818,271.506z"/>
					</g>
				</g>
				<g>
					<path style="fill:#8FCC5A;" d="M62.275,261.447c6.884,0.417,13.777,0.666,20.673,0.737c14.431,0.148,28.854-0.263,43.278-0.639
						c19.818-0.517,39.632-0.501,59.447-0.286c0.113-0.348,0.19-0.713,0.19-1.099v-29.859c0-1.979-1.604-3.583-3.583-3.583h-1.13
						c-1.66-8.177-8.888-14.332-17.555-14.332H74.917c-8.667,0-15.895,6.155-17.555,14.332h-1.082c-1.979,0-3.583,1.604-3.583,3.583
						v29.859c0,0.223,0.027,0.44,0.066,0.651C55.954,261.1,59.158,261.258,62.275,261.447z"/>
					<path style="fill:#CBFF80;" d="M184.404,207.891c-4.32-6.859-30.089-18.438-49.842-27.902h-15.426h-0.363h-15.426
						c-19.753,9.465-44.626,21.044-48.945,27.902c-6.012,9.545-4.548,14.347-4.548,14.347h139.098
						C188.952,222.238,190.415,217.436,184.404,207.891z"/>
				</g>
			</g>
			<g>
				<g>
					<path style="fill:#A5F268;" d="M189.124,267.487c0,2.055-1.666,3.721-3.721,3.721H53.109c-2.055,0-3.721-1.666-3.721-3.721
						v-8.682c0-2.055,1.666-3.721,3.721-3.721h132.294c2.055,0,3.721,1.666,3.721,3.721V267.487z"/>
					<path style="fill:#A5F268;" d="M189.124,248.975c0,2.055-1.666,3.721-3.721,3.721H53.109c-2.055,0-3.721-1.666-3.721-3.721
						v-8.682c0-2.055,1.666-3.721,3.721-3.721h132.294c2.055,0,3.721,1.666,3.721,3.721V248.975z"/>
					<path style="fill:#A5F268;" d="M189.124,229.865c0,2.055-1.666,3.721-3.721,3.721H53.109c-2.055,0-3.721-1.666-3.721-3.721
						v-8.682c0-2.055,1.666-3.721,3.721-3.721h132.294c2.055,0,3.721,1.666,3.721,3.721V229.865z"/>
				</g>
				<g>
					<path style="fill:#A5F268;" d="M189.124,417.891c0,4.947-4.01,8.958-8.958,8.958H58.346c-4.947,0-8.958-4.01-8.958-8.958
						v-47.254c0-4.947,4.011-8.958,8.958-8.958h121.82c4.947,0,8.958,4.01,8.958,8.958V417.891z"/>
					<g>
						<path style="fill:#CBFF80;" d="M189.093,370.04c-0.309-4.667-4.182-8.36-8.928-8.36H58.346c-4.746,0-8.619,3.693-8.927,8.36
							H189.093z"/>
						<path style="fill:#8FCC5A;" d="M49.7,420.202c1.021,3.825,4.499,6.646,8.646,6.646h121.82c4.146,0,7.625-2.821,8.646-6.646
							H49.7z"/>
					</g>
				</g>
			</g>
		</g>
		<g>
			<g>
				<path style="fill:#4E9BAD;" d="M134.808,172.375c0,1.979-1.604,3.583-3.583,3.583h-24.484c-1.979,0-3.583-1.604-3.583-3.583
					v-34.636c0-1.979,1.604-3.583,3.583-3.583h24.484c1.979,0,3.583,1.604,3.583,3.583V172.375z"/>
				<path style="opacity:0.5;fill:#72E2FC;" d="M134.808,138.61v-0.871c0-1.979-1.604-3.583-3.583-3.583h-24.484
					c-1.979,0-3.583,1.604-3.583,3.583v0.871H134.808z"/>
			</g>
			<g>
				<path style="fill:#5DB7D1;" d="M139.287,161.626c0-1.979-1.604-3.583-3.583-3.583h-33.442c-1.979,0-3.583,1.604-3.583,3.583
					c0,0,0.006,11.985,0.006,12.006v7.396l40.649-0.638L139.287,161.626z"/>
				<path style="opacity:0.5;fill:#72E2FC;" d="M139.287,161.742l0-0.116c0-1.979-1.604-3.583-3.583-3.583h-33.442
					c-1.979,0-3.583,1.604-3.583,3.583c0,0,0,0.043,0,0.116H139.287z"/>
			</g>
		</g>
	</g>
	<g>
		<g>
			<path style="fill:#5DB7D1;" d="M575.132,234.189c0,0-23.274,0.358-22.481-3.876c0.868-4.635,9.302-17.83,9.302-17.83
				l-31.783-24.031c0,0-26.357,38.76-33.334,55.815c-6.977,17.055,15.504,31.008,15.504,31.008l0.365,10.078h-5.791
				c-4.281,0-7.752,3.471-7.752,7.752v141.863c0,4.281,3.471,7.752,7.752,7.752h85.273c4.281,0,7.752-3.471,7.752-7.752V352.02
				v-58.916v-34.109C599.938,245.295,588.832,234.189,575.132,234.189z"/>
			<path style="fill:#70E0F9;" d="M508.464,434.967V293.104c0-4.281,3.471-7.752,7.752-7.752h5.791l-0.365-10.078
				c0,0-22.481-13.954-15.504-31.008c5.497-13.437,23.016-40.335,30.205-51.147l-6.173-4.667c0,0-26.357,38.76-33.334,55.815
				c-6.977,17.055,15.504,31.008,15.504,31.008l0.365,10.078h-5.791c-4.281,0-7.752,3.471-7.752,7.752v141.863
				c0,4.281,3.471,7.752,7.752,7.752h9.302C511.935,442.719,508.464,439.248,508.464,434.967z"/>
			<g>
				<path style="fill:#458999;" d="M544.124,164.42l0.102,0.145C544.935,163.294,545.033,163.026,544.124,164.42z"/>
				<path style="fill:#458999;" d="M575.132,234.189c0,0-19.897,1.034-18.863-6.46c0.335-2.428,5.685-15.246,5.685-15.246
					l-6.718-6.202c-7.161,11.558-8.976,18.359-10.078,20.931c-5.426,12.662,16.021,13.178,16.021,13.178
					c14.729,1.292,24.807,11.106,24.807,24.807v34.109v58.916v82.947c0,0.531-0.055,1.049-0.156,1.55h6.358
					c4.281,0,7.752-3.471,7.752-7.752V352.02v-58.916v-34.109C599.938,245.295,588.832,234.189,575.132,234.189z"/>
			</g>
			<path style="fill:#458999;" d="M512.675,285.568h52.472c2.518,0,4.559-3.089,4.559-5.607s-2.041-4.559-4.559-4.559h-52.802
				L512.675,285.568z"/>
		</g>
		<g>
			<polygon style="fill:#C45379;" points="569.397,190.855 571.104,178.83 567.108,175.856 563.112,172.882 559.116,169.908 
				548.086,174.994 538.916,187.315 546.811,194.784 546.459,195.257 548.633,196.507 550.455,198.231 550.807,197.758 
				560.227,203.176 			"/>
			<path style="fill:#DE5C83;" d="M567.537,213.46c-1.846,2.48-5.353,2.995-7.834,1.148l-30.729-22.871
				c-2.48-1.846-2.995-5.353-1.148-7.834l0,0c1.846-2.48,5.353-2.995,7.834-1.149l30.729,22.871
				C568.869,207.472,569.383,210.98,567.537,213.46L567.537,213.46z"/>
			<polygon style="fill:#FF88B9;" points="569.371,190.318 571.104,178.83 567.108,175.856 563.112,172.882 559.116,169.908 
				548.608,174.865 			"/>
		</g>
	</g>
	<g>
		<g>
			<g>
				<path style="fill:#D8AE2B;" d="M440.204,423.95v-3.527c0-3.945,3.078-7.162,6.962-7.403c-0.154-0.01-0.308-0.023-0.465-0.023
					H328.996c-0.542,0-1.069,0.062-1.579,0.172c3.343,0.724,5.848,3.695,5.848,7.255v3.527c0,3.56-2.505,6.531-5.848,7.255
					c0.509,0.11,1.036,0.172,1.579,0.172h117.706c0.157,0,0.31-0.014,0.465-0.023C443.282,431.112,440.204,427.895,440.204,423.95z"
					/>
				<path style="fill:#FFF18D;" d="M448.326,411.857c0,1.025-0.831,1.857-1.857,1.857H326.9c-1.025,0-1.857-0.831-1.857-1.857
					v-24.879c0-1.025,0.831-1.857,1.857-1.857h119.569c1.025,0,1.857,0.831,1.857,1.857V411.857z"/>
				<path style="fill:#FFF18D;" d="M448.326,450.104c0,1.025-0.831,1.857-1.857,1.857H326.9c-1.025,0-1.857-0.831-1.857-1.857
					V432.28c0-1.025,0.831-1.857,1.857-1.857h119.569c1.025,0,1.857,0.831,1.857,1.857V450.104z"/>
			</g>
			<g style="opacity:0.6;">
				<defs>
					<path id="SVGID_00000097477154163347546910000013400574068341878165_" style="opacity:0.6;" d="M444.465,413.713h2.004
						c1.025,0,1.857-0.831,1.857-1.857v-24.879c0-1.025-0.831-1.857-1.857-1.857H326.9c-1.025,0-1.857,0.831-1.857,1.857v24.879
						c0,1.025,0.831,1.857,1.857,1.857h2.103c2.517,1.188,4.262,3.742,4.262,6.71v3.527c0,2.784-1.536,5.202-3.803,6.473H326.9
						c-1.025,0-1.857,0.831-1.857,1.857v17.824c0,1.025,0.831,1.857,1.857,1.857h119.569c1.025,0,1.857-0.831,1.857-1.857V432.28
						c0-1.025-0.831-1.857-1.857-1.857h-2.454c-2.272-1.268-3.812-3.686-3.812-6.473v-3.527
						C440.204,417.455,441.947,414.9,444.465,413.713z"/>
				</defs>
				<clipPath id="SVGID_00000051378258415050029510000002302910682256190360_">
					<use xlink:href="#SVGID_00000097477154163347546910000013400574068341878165_"  style="overflow:visible;"/>
				</clipPath>
				<g style="clip-path:url(#SVGID_00000051378258415050029510000002302910682256190360_);">
					<g>
						<path style="fill:#D8AE2B;" d="M343.982,404.616c1.197,0,1.197-1.857,0-1.857
							C342.784,402.759,342.784,404.616,343.982,404.616L343.982,404.616z"/>
					</g>
					<g>
						<path style="fill:#D8AE2B;" d="M336.926,400.159c1.197,0,1.197-1.857,0-1.857
							C335.729,398.303,335.729,400.159,336.926,400.159L336.926,400.159z"/>
					</g>
					<g>
						<path style="fill:#D8AE2B;" d="M330.613,410.557c1.197,0,1.197-1.857,0-1.857S329.416,410.557,330.613,410.557
							L330.613,410.557z"/>
					</g>
					<g>
						<path style="fill:#D8AE2B;" d="M362.548,404.987c1.197,0,1.197-1.857,0-1.857S361.351,404.987,362.548,404.987
							L362.548,404.987z"/>
					</g>
					<g>
						<path style="fill:#D8AE2B;" d="M365.89,436.921c1.197,0,1.197-1.857,0-1.857C364.693,435.065,364.693,436.921,365.89,436.921
							L365.89,436.921z"/>
					</g>
					<g>
						<path style="fill:#D8AE2B;" d="M336.184,438.778c1.197,0,1.197-1.857,0-1.857S334.986,438.778,336.184,438.778
							L336.184,438.778z"/>
					</g>
					<g>
						<path style="fill:#D8AE2B;" d="M346.952,446.576c1.197,0,1.197-1.857,0-1.857
							C345.755,444.719,345.755,446.576,346.952,446.576L346.952,446.576z"/>
					</g>
					<g>
						<path style="fill:#D8AE2B;" d="M389.284,404.987c1.197,0,1.197-1.857,0-1.857S388.087,404.987,389.284,404.987
							L389.284,404.987z"/>
					</g>
					<g>
						<path style="fill:#D8AE2B;" d="M413.421,403.873c1.197,0,1.197-1.857,0-1.857
							C412.223,402.016,412.223,403.873,413.421,403.873L413.421,403.873z"/>
					</g>
					<g>
						<path style="fill:#D8AE2B;" d="M401.167,395.703c1.197,0,1.197-1.857,0-1.857
							C399.969,393.847,399.969,395.703,401.167,395.703L401.167,395.703z"/>
					</g>
					<g>
						<path style="fill:#D8AE2B;" d="M399.31,411.671c1.197,0,1.197-1.857,0-1.857S398.113,411.671,399.31,411.671L399.31,411.671z"
							/>
					</g>
					<g>
						<path style="fill:#D8AE2B;" d="M426.046,400.159c1.197,0,1.197-1.857,0-1.857S424.849,400.159,426.046,400.159
							L426.046,400.159z"/>
					</g>
					<g>
						<path style="fill:#D8AE2B;" d="M435.329,408.329c1.197,0,1.197-1.857,0-1.857S434.132,408.329,435.329,408.329
							L435.329,408.329z"/>
					</g>
					<g>
						<path style="fill:#D8AE2B;" d="M439.414,399.046c1.197,0,1.197-1.857,0-1.857S438.217,399.046,439.414,399.046
							L439.414,399.046z"/>
					</g>
					<g>
						<path style="fill:#D8AE2B;" d="M431.987,439.521c1.197,0,1.197-1.857,0-1.857C430.79,437.664,430.79,439.521,431.987,439.521
							L431.987,439.521z"/>
					</g>
					<g>
						<path style="fill:#D8AE2B;" d="M387.056,434.693c1.197,0,1.197-1.857,0-1.857S385.859,434.693,387.056,434.693
							L387.056,434.693z"/>
					</g>
					<g>
						<path style="fill:#D8AE2B;" d="M395.597,449.547c1.197,0,1.197-1.857,0-1.857C394.399,447.69,394.399,449.547,395.597,449.547
							L395.597,449.547z"/>
					</g>
					<g>
						<path style="fill:#D8AE2B;" d="M417.877,436.55c1.197,0,1.197-1.857,0-1.857C416.679,434.693,416.679,436.55,417.877,436.55
							L417.877,436.55z"/>
					</g>
					<g>
						<path style="fill:#D8AE2B;" d="M419.362,445.462c1.197,0,1.197-1.857,0-1.857S418.165,445.462,419.362,445.462
							L419.362,445.462z"/>
					</g>
					<g>
						<path style="fill:#D8AE2B;" d="M399.681,438.778c1.197,0,1.197-1.857,0-1.857S398.484,438.778,399.681,438.778
							L399.681,438.778z"/>
					</g>
					<g>
						<path style="fill:#D8AE2B;" d="M352.151,402.759c3.592,0,3.592-5.57,0-5.57C348.559,397.189,348.559,402.759,352.151,402.759
							L352.151,402.759z"/>
					</g>
					<g>
						<path style="fill:#D8AE2B;" d="M374.059,412.414c3.592,0,3.592-5.57,0-5.57C370.467,406.844,370.467,412.414,374.059,412.414
							L374.059,412.414z"/>
					</g>
					<g>
						<path style="fill:#D8AE2B;" d="M339.154,437.293c3.592,0,3.592-5.57,0-5.57C335.562,431.723,335.562,437.293,339.154,437.293
							L339.154,437.293z"/>
					</g>
					<g>
						<path style="fill:#D8AE2B;" d="M354.008,444.719c3.592,0,3.592-5.57,0-5.57C350.416,439.149,350.416,444.719,354.008,444.719
							L354.008,444.719z"/>
					</g>
					<g>
						<path style="fill:#D8AE2B;" d="M333.213,455.488c3.592,0,3.592-5.57,0-5.57C329.621,449.918,329.621,455.488,333.213,455.488
							L333.213,455.488z"/>
					</g>
					<g>
						<path style="fill:#D8AE2B;" d="M371.46,447.319c3.592,0,3.592-5.57,0-5.57C367.868,441.749,367.868,447.319,371.46,447.319
							L371.46,447.319z"/>
					</g>
					<g>
						<path style="fill:#D8AE2B;" d="M407.479,434.693c3.592,0,3.592-5.57,0-5.57C403.887,429.123,403.887,434.693,407.479,434.693
							L407.479,434.693z"/>
					</g>
					<g>
						<path style="fill:#D8AE2B;" d="M429.017,449.918c3.592,0,3.592-5.57,0-5.57S425.425,449.918,429.017,449.918L429.017,449.918z
							"/>
					</g>
					<g>
						<path style="fill:#D8AE2B;" d="M439.785,441.006c3.592,0,3.592-5.57,0-5.57C436.193,435.436,436.193,441.006,439.785,441.006
							L439.785,441.006z"/>
					</g>
					<g>
						<path style="fill:#D8AE2B;" d="M426.417,407.957c3.592,0,3.592-5.57,0-5.57S422.826,407.957,426.417,407.957L426.417,407.957z
							"/>
					</g>
					<g>
						<path style="fill:#D8AE2B;" d="M401.909,403.501c3.592,0,3.592-5.57,0-5.57S398.318,403.501,401.909,403.501L401.909,403.501z
							"/>
					</g>
					<g>
						<path style="fill:#D8AE2B;" d="M376.659,395.332c3.592,0,3.592-5.57,0-5.57C373.067,389.762,373.067,395.332,376.659,395.332
							L376.659,395.332z"/>
					</g>
					<g>
						<path style="fill:#D8AE2B;" d="M383.343,403.13c3.592,0,3.592-5.57,0-5.57C379.751,397.56,379.751,403.13,383.343,403.13
							L383.343,403.13z"/>
					</g>
					<g>
						<path style="fill:#D8AE2B;" d="M355.493,412.599c4.789,0,4.789-7.427,0-7.427S350.704,412.599,355.493,412.599
							L355.493,412.599z"/>
					</g>
					<g>
						<path style="fill:#D8AE2B;" d="M377.773,439.335c4.789,0,4.789-7.427,0-7.427S372.984,439.335,377.773,439.335
							L377.773,439.335z"/>
					</g>
					<g>
						<path style="fill:#D8AE2B;" d="M386.685,450.475c4.789,0,4.789-7.427,0-7.427
							C381.895,443.048,381.895,450.475,386.685,450.475L386.685,450.475z"/>
					</g>
					<g>
						<path style="fill:#D8AE2B;" d="M411.193,455.674c4.789,0,4.789-7.427,0-7.427
							C406.404,448.247,406.404,455.674,411.193,455.674L411.193,455.674z"/>
					</g>
					<g>
						<path style="fill:#D8AE2B;" d="M412.307,415.57c4.789,0,4.789-7.427,0-7.427C407.517,408.143,407.517,415.57,412.307,415.57
							L412.307,415.57z"/>
					</g>
					<g>
						<path style="fill:#D8AE2B;" d="M419.733,396.632c4.789,0,4.789-7.427,0-7.427
							C414.944,389.205,414.944,396.632,419.733,396.632L419.733,396.632z"/>
					</g>
					<g>
						<path style="fill:#D8AE2B;" d="M447.955,407.029c4.789,0,4.789-7.427,0-7.427
							C443.165,399.603,443.165,407.029,447.955,407.029L447.955,407.029z"/>
					</g>
					<g>
						<path style="fill:#D8AE2B;" d="M324.672,402.944c4.789,0,4.789-7.427,0-7.427
							C319.883,395.518,319.883,402.944,324.672,402.944L324.672,402.944z"/>
					</g>
					<g>
						<path style="fill:#D8AE2B;" d="M325.415,446.019c4.789,0,4.789-7.427,0-7.427
							C320.626,438.592,320.626,446.019,325.415,446.019L325.415,446.019z"/>
					</g>
					<g>
						<path style="fill:#D8AE2B;" d="M358.092,455.302c4.789,0,4.789-7.427,0-7.427
							C353.303,447.876,353.303,455.302,358.092,455.302L358.092,455.302z"/>
					</g>
					<g>
						<path style="fill:#D8AE2B;" d="M447.955,450.475c4.789,0,4.789-7.427,0-7.427
							C443.165,443.048,443.165,450.475,447.955,450.475L447.955,450.475z"/>
					</g>
				</g>
			</g>
		</g>
		<g>
			<path style="fill:#239BAF;" d="M446.469,385.121H326.9c-1.025,0-1.857,0.831-1.857,1.857v5.941h123.283v-5.941
				C448.326,385.952,447.495,385.121,446.469,385.121z"/>
			<path style="fill:#2BC6D6;" d="M448.326,388.091v-1.114c0-1.025-0.831-1.857-1.857-1.857H326.9c-1.025,0-1.857,0.831-1.857,1.857
				v1.114H448.326z"/>
		</g>
	</g>
	<g>
		<g>
			<path style="fill:#26DDCB;" d="M218.045,311.052c13.858-20.635,16.775-34.342,7.752-40.556v-8.989
				c0-6.512,5.279-11.792,11.792-11.792h17.688c6.512,0,11.792,5.279,11.792,11.792c0,0,0.006,0.113,0.018,0.32
				c0.003,0.061,0.007,0.131,0.012,0.21c0.007,0.118,0.014,0.251,0.023,0.407c0.012,0.207,0.025,0.437,0.041,0.71
				c0.026,0.453,0.057,0.999,0.094,1.626c0.02,0.354,0.042,0.724,0.065,1.13c0.025,0.429,0.051,0.887,0.079,1.373
				c0.035,0.613,0.073,1.27,0.113,1.97c0.025,0.432,0.051,0.884,0.077,1.348c0.028,0.496,0.058,1.005,0.088,1.535
				c0.021,0.361,0.042,0.73,0.064,1.107c0.019,0.325,0.038,0.657,0.057,0.993c0.033,0.567,0.066,1.148,0.1,1.747
				c0.02,0.345,0.04,0.696,0.06,1.05c0.041,0.721,0.084,1.463,0.128,2.224c0.005,0.089,0.01,0.179,0.015,0.269
				c0.045,0.785,0.091,1.59,0.138,2.414c0.056,0.969,0.113,1.964,0.171,2.985c0.011,0.199,0.023,0.398,0.034,0.599
				c0.08,1.399,0.163,2.842,0.247,4.326c0.021,0.371,0.042,0.743,0.064,1.118c0.082,1.437,0.166,2.907,0.252,4.411
				c0.024,0.421,0.048,0.844,0.073,1.271c0.05,0.87,0.1,1.746,0.15,2.635c0.001,0.013,0.002,0.027,0.002,0.041
				c2.446,42.852,6.087,107.25,6.087,110.757v28.89c0,6.512-5.279,11.792-11.792,11.792h-70.751
				c-6.512,0-11.792-5.279-11.792-11.792v-15.919C180.989,386.16,203.572,330.581,218.045,311.052z"/>
			<g style="opacity:0.8;">
				<path style="fill:#29FFEF;" d="M237.589,249.715h17.688c6.512,0,11.792,5.279,11.792,11.792c0,0,0.004,0.072,0.012,0.203
					h-29.491c-5.562,0-10.213,3.856-11.455,9.037c-0.113-0.083-0.22-0.17-0.337-0.251v-8.989
					C225.797,254.995,231.077,249.715,237.589,249.715z"/>
			</g>
			<path style="fill:#24C6B3;" d="M274.653,442.862c-1.609,4.599-5.974,7.903-11.122,7.903h-70.751
				c-5.148,0-9.513-3.304-11.122-7.903H274.653z"/>
		</g>
		<g>
			<g>
				<path style="fill:#29FFEF;" d="M288.218,215.904c0,0-4.521,25.995,7.346,48.035l-4.521,1.695c0,0-13.563-21.474-15.823-49.73
					C272.96,187.649,288.218,215.904,288.218,215.904z"/>
				<path style="fill:#26DDCB;" d="M287.434,231.423c-2.978,1.29-5.891,2.721-8.776,4.215c-1.595-5.998-2.872-12.653-3.438-19.734
					c-2.26-28.256,12.998,0,12.998,0S287.109,222.296,287.434,231.423z"/>
			</g>
			<g>
				<rect x="292.174" y="204.037" style="fill:#29FFEF;" width="14.693" height="17.518"/>
				<rect x="292.174" y="215.389" style="fill:#26DDCB;" width="14.693" height="6.167"/>
			</g>
			<g>
				<path style="fill:#239BAF;" d="M294.434,202.907v19.214c0,0-23.17,0.565-28.256,10.172c-5.086,9.607,1.13,16.388-2.26,17.519
					c-3.391,1.13-21.474,2.26-21.474,2.26s-12.998,1.695-12.998-2.26c0-3.956,1.605-17.036-5.651-18.649
					c-15.258-3.391-22.039-10.172-20.344-18.084C205.146,205.167,259.397,193.865,294.434,202.907z"/>
				<path style="opacity:0.2;fill:#FFFFFF;" d="M203.451,213.079c1.695-7.912,55.946-19.214,90.983-10.172v10.172H203.451z"/>
			</g>
		</g>
	</g>
</g>
</svg>
