<svg width="150" height="122" viewBox="0 0 150 122" fill="none" xmlns="http://www.w3.org/2000/svg">
<path d="M24.0298 82.9248H125.969V90.6043H24.0298V82.9248Z" fill="#E29A74"/>
<path d="M112.73 82.9248L114.354 90.6043H125.969V82.9248H112.73Z" fill="#D97F4A"/>
<path d="M16.4457 119.549L45.8804 29.7539H23.9451L5.18245 118.536C4.86965 120.021 6.2916 121.375 8.16499 121.375H13.5159C14.8966 121.375 16.102 120.623 16.4457 119.549Z" fill="#CA6D36"/>
<path d="M133.554 119.549L104.85 29.7539H126.054L144.817 118.536C145.13 120.021 143.707 121.375 141.835 121.375H136.484C135.104 121.375 133.898 120.623 133.554 119.549Z" fill="#AD5E2E"/>
<path d="M133.166 31.0844H16.833C12.7081 31.0844 9.36353 28.3952 9.36353 25.0787V13.8091H140.636V25.0787C140.636 28.3952 137.292 31.0844 133.166 31.0844Z" fill="#E29A74"/>
<path d="M130.37 13.8091V25.0787C130.37 28.3952 127.026 31.0844 122.9 31.0844H133.166C137.292 31.0844 140.636 28.3952 140.636 25.0787V13.8091H130.37Z" fill="#D97F4A"/>
<path d="M143.716 22.4466H6.28361C2.81296 22.4466 0 20.185 0 17.3954V5.67713C0 2.88667 2.81296 0.625 6.28361 0.625H143.716C147.186 0.625 149.999 2.88667 149.999 5.67713V17.3954C150 20.185 147.187 22.4466 143.716 22.4466Z" fill="#F64738"/>
<path d="M143.716 0.625H139.735V17.3954C139.735 20.185 136.921 22.4466 133.451 22.4466H143.716C147.187 22.4466 150 20.185 150 17.3954V5.67713C150 2.88667 147.187 0.625 143.716 0.625Z" fill="#D63D31"/>
</svg>
