<svg width="100" height="108" viewBox="0 0 100 108" fill="none" xmlns="http://www.w3.org/2000/svg">
<g clip-path="url(#clip0_268_897)">
<path d="M33.566 100.2H14.3357V107.667H33.566V100.2Z" fill="#1E6882"/>
<path d="M89.2117 100.2H69.9814V107.667H89.2117V100.2Z" fill="#1E6882"/>
<path d="M98.4171 0.333313H5.12939V100.462H98.4171V0.333313Z" fill="#247396"/>
<path d="M75.4987 0.333313L6.0708 100.462H5.12939V70.2448L53.605 0.333313H75.4987Z" fill="#3D8AA5"/>
<path d="M92.8949 0.333313L23.4645 100.462H14.0518L83.4773 0.333313H92.8949Z" fill="#3D8AA5"/>
<path d="M92.0636 93.6418H11.4841V7.15356H92.0634V93.642H92.0636V93.6418ZM15.1427 89.7149H88.4044V11.0807H15.1427V89.7149Z" fill="#1E6882"/>
<path d="M16.7226 20.7539H1.58276V40.5173H16.7226V20.7539Z" fill="#4091AD"/>
<path d="M16.7226 60.2781H1.58276V80.0415H16.7226V60.2781Z" fill="#4091AD"/>
<path d="M52.5586 69.9308C62.6189 69.9308 70.7743 61.1773 70.7743 50.3794C70.7743 39.5814 62.6189 30.8279 52.5586 30.8279C42.4984 30.8279 34.343 39.5814 34.343 50.3794C34.343 61.1773 42.4984 69.9308 52.5586 69.9308Z" fill="#E6E6E6"/>
<path d="M52.5586 29.3885C41.7746 29.3885 33.001 38.8056 33.001 50.3804C33.001 61.9552 41.7744 71.3722 52.5586 71.3722C63.3428 71.3722 72.1162 61.9554 72.1162 50.3804C72.1162 38.8054 63.3426 29.3885 52.5586 29.3885ZM52.5586 57.286C49.0111 57.286 46.125 54.188 46.125 50.3806C46.125 46.573 49.0113 43.475 52.5586 43.475C56.1061 43.475 58.9924 46.573 58.9924 50.3806C58.9924 54.188 56.1062 57.286 52.5586 57.286ZM57.9836 42.5214C56.8072 41.5833 55.4137 40.9424 53.9002 40.7019V32.3308C57.5457 32.6402 60.8676 34.1967 63.4961 36.6044L57.9836 42.5214ZM51.2172 40.7019C49.7037 40.9426 48.3105 41.5835 47.134 42.5214L41.6215 36.6046C44.25 34.1967 47.5719 32.6404 51.2174 32.331V40.7019H51.2172ZM45.2365 44.558C44.3625 45.8206 43.7654 47.3164 43.5414 48.9408H35.7422C36.0305 45.028 37.4807 41.4625 39.7238 38.6412L45.2365 44.558ZM43.5414 51.8204C43.7656 53.4448 44.3627 54.9402 45.2365 56.203L39.724 62.1198C37.4807 59.2985 36.0307 55.733 35.7424 51.8202L43.5414 51.8204ZM47.134 58.2394C48.3104 59.1775 49.7037 59.8184 51.2172 60.0588V68.43C47.5717 68.1206 44.25 66.564 41.6213 64.1564L47.134 58.2394ZM53.9002 60.0591C55.4137 59.8184 56.8068 59.1775 57.9836 58.2396L63.4961 64.1564C60.8676 66.5642 57.5457 68.1206 53.9002 68.43V60.0591ZM59.8807 56.2032C60.7547 54.9406 61.3518 53.4451 61.5758 51.8206H69.375C69.0867 55.7334 67.6365 59.2987 65.3934 62.1202L59.8807 56.2032ZM61.576 48.9404C61.3518 47.3159 60.7547 45.8206 59.8809 44.5576L65.3934 38.6408C67.6367 41.4621 69.0867 45.0276 69.375 48.9404H61.576Z" fill="#1E6882"/>
</g>
<defs>
<clipPath id="clip0_268_897">
<rect width="100" height="107.333" fill="white" transform="translate(0 0.333313)"/>
</clipPath>
</defs>
</svg>
