<svg width="200" height="140" viewBox="0 0 200 140" fill="none" xmlns="http://www.w3.org/2000/svg">
<path d="M122.858 130.121L108.536 132.477L100.545 133.791L77.1394 130.121L88.0586 113.856L101.361 107.614L111.945 113.856L116.651 120.868L122.858 130.121Z" fill="#27425B"/>
<path d="M122.858 130.121L108.536 132.477H94.1482L100.001 120.868H116.65L122.858 130.121Z" fill="#405872"/>
<path d="M151.242 134.721C151.242 135.992 150.601 137.142 149.568 137.973C148.532 138.805 147.104 139.321 145.528 139.321H54.4754C51.3153 139.321 48.761 137.261 48.761 134.721C48.761 133.45 49.3973 132.299 50.4333 131.468C51.4664 130.637 52.8946 130.121 54.4754 130.121H145.528C148.683 130.121 151.242 132.181 151.242 134.721Z" fill="#27425B"/>
<path d="M151.242 134.721C151.242 135.992 150.601 137.142 149.568 137.973C148.532 138.805 147.104 139.321 145.528 139.321H74.3362C71.1807 139.321 68.6218 137.261 68.6218 134.721C68.6218 133.45 69.2627 132.299 70.2957 131.468C71.3318 130.637 72.76 130.121 74.3362 130.121H145.528C148.683 130.121 151.242 132.181 151.242 134.721Z" fill="#405872"/>
<path d="M182.402 0.505859H17.598C7.87811 0.505859 0 6.84774 0 14.6722V99.6913C0 107.515 7.87811 113.858 17.598 113.858H182.402C192.122 113.858 200 107.515 200 99.6913V14.6722C200 6.84774 192.122 0.505859 182.402 0.505859Z" fill="#405872"/>
<path d="M187.756 16.7445V97.6216C187.756 101.144 184.206 103.999 179.829 103.999H20.1689C15.7927 103.999 12.2466 101.144 12.2466 97.6216V16.7445C12.2466 13.2179 15.7927 10.3633 20.1689 10.3633H179.829C184.206 10.3633 187.756 13.2179 187.756 16.7445Z" fill="#B7D0E5"/>
<path d="M117.667 10.3633L61.0504 103.999H34.0957L90.7119 10.3633H117.667Z" fill="#D4E8F4"/>
<path d="M140.246 10.3633L83.6302 103.999H70.1567L126.773 10.3633H140.246Z" fill="#D4E8F4"/>
<path d="M187.756 16.7445V40.2535L149.209 103.999H117.038L173.654 10.3633H179.829C184.206 10.3633 187.756 13.2179 187.756 16.7445Z" fill="#D4E8F4"/>
</svg>
