<svg width="200" height="154" viewBox="0 0 200 154" fill="none" xmlns="http://www.w3.org/2000/svg">
<path d="M104.581 7.8479L7.66455 11.6569V135.645L105.223 139.058L192.756 135.645V11.6569L104.581 7.8479Z" fill="#E8AD8C"/>
<path d="M69.3613 9.59668H131.058V137.622H69.3613V9.59668Z" fill="#C8EFFE"/>
<path d="M184.546 11.657H192.756V135.645H184.546V11.657Z" fill="#E19974"/>
<path d="M122.849 9.59668H131.059V137.622H122.849V9.59668Z" fill="#99E6FC"/>
<path d="M61.1519 11.657H69.3616V135.645H61.1519V11.657Z" fill="#E19974"/>
<path d="M51.5989 87.4546C49.9809 87.4546 48.6692 86.3987 48.6692 85.0962V76.6572C48.6692 75.3548 49.9809 74.2988 51.5989 74.2988C53.2168 74.2988 54.5286 75.3548 54.5286 76.6572V85.0962C54.5286 86.3987 53.2168 87.4546 51.5989 87.4546Z" fill="#DC8758"/>
<path d="M148.401 87.4546C146.783 87.4546 145.471 86.3987 145.471 85.0962V76.6572C145.471 75.3548 146.783 74.2988 148.401 74.2988C150.019 74.2988 151.331 75.3548 151.331 76.6572V85.0962C151.331 86.3987 150.019 87.4546 148.401 87.4546Z" fill="#DC8758"/>
<path d="M198.499 11.6569H1.56602C0.701172 11.6569 0 11.0925 0 10.396V1.86391C0 1.16772 0.701172 0.603271 1.56602 0.603271H198.498C199.328 0.603271 200 1.14445 200 1.81171V10.4485C200 11.1158 199.328 11.6569 198.499 11.6569Z" fill="#D77F4A"/>
<path d="M199.999 1.84569V10.4164C199.999 11.1016 199.309 11.6576 198.458 11.6576H190.428C191.279 11.6576 191.97 11.1016 191.97 10.4164V1.84569C191.97 1.1605 191.279 0.604859 190.428 0.604859H198.458C199.309 0.604544 199.999 1.1605 199.999 1.84569Z" fill="#C86D36"/>
<path d="M192.754 135.646V152.139C192.754 152.834 192.055 153.397 191.191 153.397H185.207C184.977 153.397 184.75 153.356 184.547 153.274C184.262 153.171 184.02 152.998 183.855 152.771L180.133 147.608H20.2852L16.5625 152.771C16.2812 153.158 15.7695 153.397 15.2109 153.397H9.22656C8.36328 153.397 7.66406 152.834 7.66406 152.139V135.646H192.754Z" fill="#D77F4A"/>
<path d="M192.754 135.646V152.139C192.754 152.834 192.055 153.397 191.191 153.397H185.207C184.977 153.397 184.75 153.356 184.547 153.274V135.646H192.754Z" fill="#C86D36"/>
</svg>
