<svg width="200" height="162" viewBox="0 0 200 162" fill="none" xmlns="http://www.w3.org/2000/svg">
<path d="M162.834 64.231H100V12.7065C100 11.4909 101.224 10.5054 102.734 10.5054H124.914L131.417 13.6499L137.92 10.5054H160.099C161.609 10.5054 162.834 11.4909 162.834 12.7065V64.231Z" fill="#EDBA94"/>
<path d="M100 12.7065V64.231H108.048V10.5054H102.734C101.224 10.5054 100 11.4909 100 12.7065Z" fill="#E5A87F"/>
<path d="M100 64.231H37.1665V12.7065C37.1665 11.4909 38.3907 10.5054 39.9009 10.5054H62.0802L68.5833 13.6499L75.0864 10.5054H97.2657C98.7759 10.5054 100 11.4909 100 12.7065V64.231Z" fill="#EDBA94"/>
<path d="M37.1665 12.7065V64.231H45.2149V10.5054H39.9009C38.3907 10.5054 37.1665 11.4909 37.1665 12.7065Z" fill="#E5A87F"/>
<path d="M73.3688 23.7376L69.2439 21.9905C68.9079 21.8483 68.5075 21.8458 68.1688 21.9835L63.7817 23.7715C63.0021 24.0891 62.0806 23.6332 62.0806 22.9297V10.5054H75.0864V22.9027C75.0864 23.6127 74.1493 24.068 73.3688 23.7376Z" fill="#FD6930"/>
<path d="M136.202 23.7376L132.077 21.9905C131.741 21.8483 131.341 21.8458 131.002 21.9835L126.615 23.7715C125.836 24.0891 124.914 23.6332 124.914 22.9297V10.5054H137.92V22.9027C137.92 23.6127 136.982 24.068 136.202 23.7376Z" fill="#FD6930"/>
<path d="M162.834 144.52H100V92.9951C100 91.7794 101.224 90.7939 102.734 90.7939H124.914L131.417 93.9385L137.92 90.7939H160.099C161.609 90.7939 162.834 91.7794 162.834 92.9951V144.52Z" fill="#EDBA94"/>
<path d="M100 92.9951V144.52H108.048V90.7939H102.734C101.224 90.7939 100 91.7794 100 92.9951Z" fill="#E5A87F"/>
<path d="M136.202 104.026L132.077 102.279C131.741 102.137 131.341 102.135 131.002 102.272L126.615 104.06C125.836 104.378 124.914 103.922 124.914 103.219V90.7939H137.92V103.191C137.92 103.901 136.982 104.357 136.202 104.026Z" fill="#FD6930"/>
<path d="M100 144.52H37.1665V92.9951C37.1665 91.7794 38.3907 90.7939 39.9009 90.7939H62.0802L68.5833 93.9385L75.0864 90.7939H97.2657C98.7759 90.7939 100 91.7794 100 92.9951V144.52Z" fill="#EDBA94"/>
<path d="M37.1665 92.9951V144.52H45.2149V90.7939H39.9009C38.3907 90.7939 37.1665 91.7794 37.1665 92.9951Z" fill="#E5A87F"/>
<path d="M21.0938 60.9321H178.906V70.9946H21.0938V60.9321Z" fill="#685E67"/>
<path d="M25 144.52H12.5V2.70117C12.5 1.4855 13.7242 0.5 15.2344 0.5H22.2656C23.7758 0.5 25 1.4855 25 2.70117V144.52Z" fill="#897E8B"/>
<path d="M21.0938 0.5H15.2344C13.7242 0.5 12.5 1.4855 12.5 2.70117V144.52H18.3594V2.70117C18.3594 1.4855 19.5836 0.5 21.0938 0.5Z" fill="#7D717F"/>
<path d="M187.5 144.52H175V2.75293C175 1.53725 176.224 0.551758 177.734 0.551758H184.766C186.276 0.551758 187.5 1.53725 187.5 2.75293V144.52Z" fill="#897E8B"/>
<path d="M183.594 0.551758H177.734C176.224 0.551758 175 1.53725 175 2.75293V144.52H180.859V2.75293C180.859 1.53725 182.084 0.551758 183.594 0.551758Z" fill="#7D717F"/>
<path d="M73.3688 104.026L69.2439 102.279C68.9079 102.137 68.5075 102.135 68.1688 102.272L63.7817 104.06C63.0021 104.378 62.0806 103.922 62.0806 103.219V90.7939H75.0864V103.191C75.0864 103.901 74.1493 104.357 73.3688 104.026Z" fill="#FD6930"/>
<path d="M87.3332 133.742H75.0863C73.4191 133.742 72.0684 132.655 72.0684 131.313C72.0684 129.971 73.4195 128.883 75.0863 128.883H87.3332C89.0004 128.883 90.3512 129.971 90.3512 131.313C90.3512 132.655 89.0004 133.742 87.3332 133.742Z" fill="#E5A87F"/>
<path d="M150.167 133.742H137.92C136.253 133.742 134.902 132.655 134.902 131.313C134.902 129.971 136.253 128.883 137.92 128.883H150.167C151.834 128.883 153.185 129.971 153.185 131.313C153.185 132.655 151.833 133.742 150.167 133.742Z" fill="#E5A87F"/>
<path d="M87.3332 53.4532H75.0863C73.4191 53.4532 72.0684 52.3655 72.0684 51.0237C72.0684 49.6819 73.4195 48.5942 75.0863 48.5942H87.3332C89.0004 48.5942 90.3512 49.6819 90.3512 51.0237C90.3512 52.3655 89.0004 53.4532 87.3332 53.4532Z" fill="#E5A87F"/>
<path d="M150.167 53.4532H137.92C136.253 53.4532 134.902 52.3655 134.902 51.0237C134.902 49.6819 136.253 48.5942 137.92 48.5942H150.167C151.834 48.5942 153.185 49.6819 153.185 51.0237C153.185 52.3655 151.833 53.4532 150.167 53.4532Z" fill="#E5A87F"/>
<path d="M34.7656 161.5H15.2344C13.7242 161.5 12.5 160.515 12.5 159.299V148.293H37.5V159.299C37.5 160.515 36.2758 161.5 34.7656 161.5Z" fill="#897E8B"/>
<path d="M18.3594 159.299V148.293H12.5V159.299C12.5 160.515 13.7242 161.5 15.2344 161.5H21.0938C19.5836 161.5 18.3594 160.515 18.3594 159.299Z" fill="#7D717F"/>
<path d="M184.766 161.5H165.234C163.724 161.5 162.5 160.515 162.5 159.299V148.293H187.5V159.299C187.5 160.515 186.276 161.5 184.766 161.5Z" fill="#897E8B"/>
<path d="M168.359 159.299V148.293H162.5V159.299C162.5 160.515 163.724 161.5 165.234 161.5H171.094C169.584 161.5 168.359 160.515 168.359 159.299Z" fill="#7D717F"/>
<path d="M197.266 151.438H2.73438C1.22422 151.438 0 150.452 0 149.236V143.576C0 142.36 1.22422 141.375 2.73438 141.375H197.266C198.776 141.375 200 142.36 200 143.576V149.236C200 150.452 198.776 151.438 197.266 151.438Z" fill="#685E67"/>
</svg>
