<svg width="200" height="162" viewBox="0 0 200 162" fill="none" xmlns="http://www.w3.org/2000/svg">
<g clip-path="url(#clip0_268_1469)">
<path d="M39.3463 139.985V146.565C39.3463 148.739 41.1079 150.5 43.2809 150.5H48.5262C50.6991 150.5 52.4608 148.739 52.4608 146.565V139.985H39.3463Z" fill="#636D77"/>
<path d="M97.5383 139.985V146.565C97.5383 148.739 99.2999 150.5 101.473 150.5H106.718C108.891 150.5 110.653 148.739 110.653 146.565V139.985H97.5383Z" fill="#636D77"/>
<path opacity="0.15" d="M44.5922 146.565V139.985H39.3463V146.565C39.3463 148.739 41.1079 150.5 43.2809 150.5H48.5262H48.5268C46.3538 150.5 44.5922 148.739 44.5922 146.565Z" fill="#020202"/>
<path opacity="0.15" d="M102.784 146.565V139.985H97.5386V146.565C97.5386 148.739 99.3002 150.5 101.473 150.5H106.718H106.719C104.546 150.5 102.784 148.739 102.784 146.565Z" fill="#020202"/>
<path d="M58.1595 140.642H41.7996C36.4763 140.642 32.1615 136.327 32.1615 131.004V10.1381C32.1612 4.81455 36.4761 0.5 41.7993 0.5H108.2C113.523 0.5 117.838 4.81455 117.838 10.1381V42.427V131.004C117.838 136.326 113.523 140.642 108.2 140.642L58.1595 140.642Z" fill="#7DE3EA"/>
<path d="M117.838 10.1381C117.838 4.81455 113.524 0.5 108.2 0.5H41.7993C36.4761 0.5 32.1613 4.81455 32.1613 10.1381V57.7086H117.839V18.0022" fill="#49D0E2"/>
<g opacity="0.55">
<path d="M107.624 48.4566C106.267 48.4566 105.165 47.3559 105.165 45.9974V11.9917C105.165 10.6332 106.266 9.53247 107.624 9.53247C108.983 9.53247 110.084 10.6332 110.084 11.9917V45.9977C110.084 47.3556 108.983 48.4566 107.624 48.4566Z" fill="#F5F5F5"/>
</g>
<g opacity="0.55">
<path d="M107.624 128.781C106.267 128.781 105.165 127.681 105.165 126.322V124.671C105.165 123.312 106.266 122.212 107.624 122.212C108.983 122.212 110.084 123.312 110.084 124.671V126.322C110.084 127.681 108.983 128.781 107.624 128.781Z" fill="#F5F5F5"/>
</g>
<g opacity="0.55">
<path d="M107.624 119.15C106.267 119.15 105.165 118.05 105.165 116.691V69.2595C105.165 67.901 106.266 66.8003 107.624 66.8003C108.983 66.8003 110.084 67.901 110.084 69.2595V116.691C110.084 118.05 108.983 119.15 107.624 119.15Z" fill="#F5F5F5"/>
</g>
<path d="M32.1613 57.7083V65.9052H36.0674H49.1824H55.74C57.9129 65.9052 59.6745 64.1436 59.6745 61.9707V57.7083H32.1613Z" fill="#A8F2F4"/>
<path d="M44.1704 42.7569C42.8125 42.7569 41.7112 41.6562 41.7112 40.2978V20.0583C41.7112 18.6998 42.8122 17.5991 44.1704 17.5991H48.1049C49.4634 17.5991 50.5641 18.6998 50.5641 20.0583C50.5641 21.4162 49.4634 22.5175 48.1049 22.5175H46.6295V40.298C46.6293 41.656 45.5283 42.7569 44.1704 42.7569Z" fill="#636D77"/>
<path opacity="0.15" d="M37.4071 131.004V10.1381C37.4071 4.81455 41.7219 0.5 47.0455 0.5H41.7996C36.4763 0.5 32.1615 4.81455 32.1615 10.1381V131.004C32.1615 136.327 36.4763 140.642 41.7996 140.642H47.0455C41.7219 140.642 37.4071 136.327 37.4071 131.004Z" fill="#020202"/>
</g>
<g clip-path="url(#clip1_268_1469)">
<path d="M100.52 158.105C100.52 159.98 102.04 161.5 103.915 161.5C105.791 161.5 107.311 159.98 107.311 158.105C107.311 157.203 107.311 154.618 107.311 153.703H100.52C100.52 154.672 100.52 157.135 100.52 158.105Z" fill="#606C7C"/>
<path d="M167.698 153.703V154.709V157.098V158.104C167.698 159.979 169.218 161.5 171.094 161.5C172.969 161.5 174.489 159.979 174.489 158.104V157.098C174.489 156.836 174.489 154.558 174.489 153.703H167.698Z" fill="#606C7C"/>
<path d="M173.987 36.5H101.113C96.9192 36.5 93.4875 39.9316 93.4875 44.1257V49.2021C93.4875 53.7595 93.4875 155.869 93.4875 151.691C93.4875 153.351 94.8457 154.709 96.5059 154.709H178.503C180.163 154.709 181.521 153.351 181.521 151.691C181.521 146.014 181.521 55.0559 181.521 49.4956V44.0344C181.521 39.8906 178.131 36.5 173.987 36.5Z" fill="#E6E6E6"/>
<path d="M100.393 151.69C100.393 146.004 100.393 54.7727 100.393 49.2019V44.1255C100.393 39.9316 103.825 36.5 108.019 36.5H101.113C96.9192 36.5 93.4875 39.9316 93.4875 44.1255V49.2019C93.4875 54.7734 93.4875 146.004 93.4875 151.69C93.4875 153.35 94.8457 154.709 96.5059 154.709H103.412C101.752 154.709 100.393 153.351 100.393 151.69Z" fill="#CCCCCC"/>
<path d="M137.504 130.531C151.357 130.531 162.587 119.301 162.587 105.448C162.587 91.5948 151.357 80.3647 137.504 80.3647C123.651 80.3647 112.421 91.5948 112.421 105.448C112.421 119.301 123.651 130.531 137.504 130.531Z" fill="#A5E4F2"/>
<path d="M127.545 111.198C121.795 101.24 123.652 88.9778 131.31 81.1367C129.137 81.6919 127.002 82.5491 124.963 83.7261C112.966 90.6523 108.856 105.993 115.782 117.99C122.709 129.986 138.049 134.097 150.046 127.17C152.084 125.994 153.894 124.573 155.461 122.969C144.842 125.68 133.294 121.157 127.545 111.198Z" fill="#7DDBF4"/>
<path d="M93.4875 147.674C93.4875 148.715 93.4875 150.688 93.4875 151.691C93.4875 153.351 94.8457 154.709 96.5059 154.709H178.503C180.163 154.709 181.521 153.351 181.521 151.691C181.521 150.679 181.521 148.702 181.521 147.674H93.4875Z" fill="#51C6E5"/>
<path d="M103.411 154.709C101.752 154.708 100.393 153.35 100.393 151.69C100.393 150.678 100.393 148.702 100.393 147.674H93.4876V149.435C93.6588 150.793 92.8988 152.89 94.8214 154.191C95.1317 154.402 95.4093 154.513 95.6856 154.592C95.9471 154.666 96.2677 154.668 103.411 154.709Z" fill="#34B3D1"/>
<path d="M181.523 57.9673H93.488V65.0022H181.523V57.9673Z" fill="#606C7C"/>
<path d="M100.395 57.9673H93.488V65.0022H100.395V57.9673Z" fill="#4E5B68"/>
<path d="M153.359 57.9673H120.109V65.0022H153.359V57.9673Z" fill="#4E5B68"/>
<path d="M162.487 115.259C161.874 115.259 161.302 115.072 160.825 114.755C157.125 124.012 148.066 130.57 137.504 130.57C123.663 130.57 112.402 119.309 112.402 105.468C112.402 91.6265 123.663 80.3657 137.504 80.3657C148.066 80.3657 157.125 86.9236 160.825 96.1809C161.302 95.8638 161.874 95.6777 162.487 95.6777H167.858C163.717 82.8667 151.676 73.5747 137.504 73.5747C119.918 73.5747 105.611 87.8821 105.611 105.468C105.611 123.054 119.918 137.362 137.504 137.362C151.676 137.362 163.717 128.07 167.858 115.259L162.487 115.259Z" fill="#606C7C"/>
<path d="M143.305 133.966C125.719 133.966 111.412 119.658 111.412 102.072C111.412 91.5415 116.543 82.188 124.436 76.3767C113.348 81.3774 105.611 92.5359 105.611 105.468C105.611 123.054 119.918 137.361 137.505 137.361C144.57 137.361 151.106 135.051 156.397 131.146C152.4 132.954 147.969 133.966 143.305 133.966Z" fill="#4E5B68"/>
<path d="M151.821 97.5635C151.219 97.5635 150.628 97.2766 150.263 96.7434C147.375 92.5291 142.605 90.0134 137.504 90.0134C136.463 90.0134 135.618 89.1689 135.618 88.127C135.618 87.085 136.462 86.2405 137.504 86.2405C143.85 86.2405 149.783 89.3694 153.375 94.6104C153.964 95.4697 153.745 96.644 152.885 97.2329C152.559 97.4565 152.188 97.5635 151.821 97.5635Z" fill="#CDF3F9"/>
<path d="M137.504 130.57C148.066 130.57 157.125 124.013 160.825 114.755C160.888 114.797 160.954 114.836 161.02 114.874C160.097 114.356 159.468 113.368 159.468 112.24V107.683C154.009 107.709 153.993 112.712 148.506 112.712C143.003 112.712 143.003 107.681 137.501 107.681C131.999 107.681 131.999 112.712 126.497 112.712C120.995 112.712 120.995 107.681 115.494 107.681C114.292 107.681 113.354 107.921 112.562 108.296C113.972 120.811 124.619 130.57 137.504 130.57Z" fill="#5FBBE0"/>
<path d="M137.504 130.57C148.066 130.57 157.125 124.013 160.825 114.755C160.888 114.797 160.954 114.836 161.02 114.874C160.097 114.356 159.468 113.368 159.468 112.24V107.683C154.009 107.709 153.993 112.712 148.506 112.712C143.003 112.712 143.003 107.681 137.501 107.681C131.999 107.681 131.999 112.712 126.497 112.712C120.995 112.712 120.995 107.681 115.494 107.681C114.292 107.681 113.354 107.921 112.562 108.296C113.972 120.811 124.619 130.57 137.504 130.57Z" fill="#51C6E5"/>
<path d="M128.349 112.489C127.805 112.63 127.196 112.712 126.498 112.712C120.996 112.712 120.996 107.681 115.494 107.681C114.301 107.681 113.367 107.918 112.579 108.289C112.956 111.61 114.005 114.91 115.782 117.989C122.709 129.986 138.049 134.096 150.046 127.17C152.084 125.993 153.894 124.573 155.462 122.968C145.313 125.56 134.322 121.54 128.349 112.489Z" fill="#34B3D1"/>
<path d="M171.094 75.4609H163.157C162.115 75.4609 161.271 74.6165 161.271 73.5745C161.271 72.5325 162.115 71.688 163.157 71.688H171.094C172.135 71.688 172.98 72.5325 172.98 73.5745C172.98 74.6165 172.135 75.4609 171.094 75.4609Z" fill="#F7AB31"/>
<path d="M105.612 50.7061C107.555 50.7061 109.129 49.1313 109.129 47.1887C109.129 45.2461 107.555 43.6714 105.612 43.6714C103.669 43.6714 102.095 45.2461 102.095 47.1887C102.095 49.1313 103.669 50.7061 105.612 50.7061Z" fill="#CCCCCC"/>
<path d="M105.611 47.1887C104.96 46.0618 105.007 44.7261 105.613 43.6741C105.014 43.6731 104.408 43.822 103.852 44.1426C102.17 45.1138 101.594 47.2651 102.565 48.9475C103.536 50.6299 105.687 51.2063 107.37 50.2349C107.925 49.9141 108.357 49.4634 108.656 48.9446C107.442 48.9429 106.261 48.3154 105.611 47.1887Z" fill="#B7B7B7"/>
<path d="M181.521 45.3022H143.35C142.308 45.3022 141.463 46.1467 141.463 47.1887C141.463 48.2307 142.308 49.0752 143.35 49.0752H181.521V45.3022Z" fill="#CCCCCC"/>
<path d="M168.859 115.259H162.487C160.826 115.259 159.468 113.9 159.468 112.24V98.6958C159.468 97.0356 160.826 95.6775 162.487 95.6775H168.859C170.519 95.6775 171.877 97.0356 171.877 98.6958V112.24C171.877 113.9 170.519 115.259 168.859 115.259Z" fill="#CCCCCC"/>
<path d="M168.859 115.259H162.487C160.826 115.259 159.468 113.9 159.468 112.24V98.6958C159.468 97.0356 160.826 95.6775 162.487 95.6775H168.859C170.519 95.6775 171.877 97.0356 171.877 98.6958V112.24C171.877 113.9 170.519 115.259 168.859 115.259Z" fill="#CCCCCC"/>
<path d="M168.859 106.726H162.487C160.826 106.726 159.468 105.367 159.468 103.707V112.24C159.468 113.9 160.826 115.259 162.487 115.259H168.859C170.519 115.259 171.877 113.9 171.877 112.24V103.707C171.877 105.367 170.519 106.726 168.859 106.726Z" fill="#B7B7B7"/>
<path d="M165.675 104.21C164.633 104.21 163.787 103.366 163.787 102.324C163.787 101.282 164.631 100.437 165.673 100.437H165.675C166.717 100.437 167.562 101.282 167.562 102.324C167.562 103.366 166.717 104.21 165.675 104.21Z" fill="#E6E6E6"/>
<path d="M165.675 110.499C164.633 110.499 163.787 109.654 163.787 108.612C163.787 107.57 164.631 106.726 165.673 106.726H165.675C166.717 106.726 167.562 107.57 167.562 108.612C167.562 109.654 166.717 110.499 165.675 110.499Z" fill="#E6E6E6"/>
<path d="M119.084 50.7061C121.026 50.7061 122.601 49.1313 122.601 47.1887C122.601 45.2461 121.026 43.6714 119.084 43.6714C117.141 43.6714 115.566 45.2461 115.566 47.1887C115.566 49.1313 117.141 50.7061 119.084 50.7061Z" fill="#CCCCCC"/>
<path d="M119.083 47.1887C118.432 46.0618 118.479 44.7261 119.084 43.6741C118.486 43.6731 117.879 43.822 117.324 44.1426C115.642 45.1138 115.065 47.2651 116.037 48.9475C117.008 50.6299 119.159 51.2063 120.842 50.2349C121.397 49.9141 121.829 49.4634 122.127 48.9446C120.914 48.9429 119.733 48.3154 119.083 47.1887Z" fill="#B7B7B7"/>
<path d="M132.555 50.7061C134.498 50.7061 136.073 49.1313 136.073 47.1887C136.073 45.2461 134.498 43.6714 132.555 43.6714C130.613 43.6714 129.038 45.2461 129.038 47.1887C129.038 49.1313 130.613 50.7061 132.555 50.7061Z" fill="#CCCCCC"/>
<path d="M132.555 47.1887C131.904 46.0618 131.951 44.7261 132.556 43.6741C131.958 43.6731 131.351 43.822 130.796 44.1426C129.114 45.1138 128.537 47.2651 129.509 48.9475C130.48 50.6299 132.631 51.2063 134.313 50.2349C134.869 49.9141 135.301 49.4634 135.599 48.9446C134.385 48.9429 133.205 48.3154 132.555 47.1887Z" fill="#B7B7B7"/>
</g>
<defs>
<clipPath id="clip0_268_1469">
<rect width="150" height="150" fill="white" transform="translate(0 0.5)"/>
</clipPath>
<clipPath id="clip1_268_1469">
<rect width="125" height="125" fill="white" transform="translate(75 36.5)"/>
</clipPath>
</defs>
</svg>
