<svg width="1920" height="537" viewBox="0 0 1920 537" fill="none" xmlns="http://www.w3.org/2000/svg">
<g opacity="0.3">
<path d="M632.733 536.117C622.773 536.117 613.078 535.679 603.761 534.806C584.222 532.973 566.17 529.21 550.106 523.621C532.84 517.616 517.697 509.434 505.093 499.301C479.763 478.936 467.09 454.547 454.833 430.96C452.424 426.329 449.935 421.54 447.408 416.893C430.161 385.223 408.298 357.481 380.574 332.083C325.27 281.419 247.494 238.18 155.65 207.043C49.4334 171.034 -64.7667 153.096 -165.916 156.536C-225.367 158.558 -303.917 177.789 -339.024 210.633C-359.858 230.125 -361.538 251.756 -343.879 273.184L-344.229 273.275C-353.488 262.037 -357.523 250.77 -356.216 239.789C-355.018 229.715 -349.346 219.868 -339.355 210.521C-323.464 195.653 -297.259 182.477 -263.571 172.414C-232.441 163.116 -197.77 157.4 -165.939 156.318C-113.005 154.519 -56.7059 158.511 1.39215 168.183C54.0572 176.953 106.025 189.963 155.85 206.855C247.748 238.01 325.571 281.272 380.906 331.967C408.645 357.382 430.519 385.139 447.778 416.827C450.309 421.473 452.798 426.264 455.203 430.896C467.448 454.465 480.113 478.837 505.409 499.172C529.873 518.841 562.987 530.756 603.827 534.586C660.384 539.89 729.063 528.796 787.538 504.908C871.807 470.484 930.29 420.378 986.851 371.923C996.765 363.43 1007.01 354.648 1017.16 346.168C1043.51 324.146 1079.2 295.611 1121.6 270.189C1164.95 244.205 1209 225.114 1256.27 211.823C1285.21 203.687 1315.87 198.206 1347.41 195.533C1376.54 193.062 1407.38 192.909 1439.07 195.073C1493.42 198.789 1551.97 209.283 1618.07 227.154C1748.23 262.345 1878.25 305.059 2004.52 354.113C2124.54 400.737 2242.24 453.495 2354.37 510.917L2354.11 511.077C2121.68 392.043 1873.98 296.583 1617.9 227.348C1473.22 188.232 1358.37 183.359 1256.45 212.015C1152.75 241.167 1080.32 293.776 1017.48 346.286C1007.34 354.764 997.089 363.547 987.175 372.04C930.599 420.511 872.096 470.633 787.769 505.08C760.52 516.213 729.864 524.896 699.12 530.189C682.879 532.986 666.734 534.814 651.128 535.625C644.909 535.955 638.771 536.117 632.733 536.117Z" fill="#FFE492"/>
<path d="M642.472 524.033C617.072 524.033 593.545 521.327 572.518 515.986C549.071 510.03 528.839 500.802 512.378 488.559C510.921 487.474 509.476 486.353 508.082 485.223C483.021 464.946 469.785 440.874 456.989 417.594C454.399 412.889 451.725 408.022 449.013 403.3C432.856 375.183 413.402 350.402 389.531 327.544C386.591 324.73 383.547 321.91 380.476 319.163C324.359 268.934 245.951 226.243 153.729 195.705C46.7458 160.311 -67.778 143.115 -168.746 147.287C-227.765 149.752 -305.954 169.298 -341.21 201.889C-362.322 221.405 -364.711 243.079 -348.127 264.57L-348.481 264.656C-357.174 253.392 -360.746 242.104 -359.093 231.11C-357.575 221.012 -351.672 211.143 -341.542 201.777C-325.489 186.935 -299.361 173.744 -265.989 163.629C-235.144 154.28 -200.624 148.4 -168.781 147.071C-115.912 144.887 -59.5515 148.497 -1.26846 157.799C51.5238 166.225 103.738 178.916 153.922 195.519C246.197 226.075 324.648 268.792 380.8 319.048C383.871 321.798 386.919 324.62 389.859 327.436C413.745 350.309 433.211 375.103 449.375 403.235C452.091 407.957 454.765 412.824 457.355 417.531C470.147 440.797 483.371 464.851 508.398 485.1C509.789 486.226 511.233 487.347 512.686 488.429C546.702 513.737 593.441 524.033 642.592 524.033C642.861 524.033 643.127 524.033 643.397 524.033C643.089 524.03 642.781 524.033 642.472 524.033ZM652.957 523.882C698.651 522.569 745.803 512.743 786.253 498.126C873.508 466.466 936.218 417.568 996.867 370.28C999.364 368.331 1001.86 366.386 1004.36 364.441C1009.84 360.172 1016.34 355.117 1022.98 350.022C1052.74 327.173 1088.77 300.587 1130.25 276.657C1174.39 251.195 1218.49 232.3 1265.07 218.89C1293.68 210.66 1323.93 204.862 1354.96 201.658C1383.71 198.689 1414.09 197.85 1445.25 199.163C1499.08 201.434 1556.96 210.041 1622.21 225.48C1685.81 240.509 1738.1 254.655 1786.75 270.001C1855.68 291.762 1921.33 316.834 1976.47 338.489C2104.65 388.979 2230.42 446.31 2350.28 508.892L2350.02 509.049C2230.17 446.476 2104.41 389.149 1976.25 338.666C1921.12 317.013 1855.48 291.945 1786.57 270.191C1737.93 254.849 1685.66 240.707 1622.06 225.682C1479.93 192.05 1366.55 189.952 1265.24 219.084C1160.1 249.353 1085.22 302.609 1023.29 350.152C1016.65 355.247 1010.15 360.299 1004.67 364.57C1002.17 366.513 999.676 368.46 997.179 370.409C936.511 417.712 873.778 466.628 786.461 498.311C764.81 506.134 741.772 512.348 717.983 516.779C695.839 520.9 674.01 523.282 652.957 523.882Z" fill="#FFE492"/>
<path d="M653.21 512.238C650.154 512.238 647.118 512.202 644.105 512.126C618.728 511.499 595.243 508.241 574.305 502.438C551.406 496.093 531.566 486.694 515.34 474.5C513.899 473.414 512.461 472.29 511.074 471.16C486.295 450.982 472.508 427.232 459.18 404.266C456.402 399.479 453.527 394.529 450.614 389.725C433.66 361.703 413.693 337.12 389.565 314.57C386.579 311.782 383.488 308.985 380.371 306.26C323.441 256.469 244.401 214.326 151.801 184.387C44.0553 149.607 -70.7922 133.151 -171.583 138.056C-228.333 140.862 -306.294 159.293 -343.361 193.128C-364.777 212.676 -367.894 234.409 -352.378 255.975L-352.736 256.055C-360.866 244.756 -363.968 233.443 -361.964 222.429C-360.123 212.299 -353.973 202.404 -343.689 193.016C-327.467 178.209 -301.423 165.013 -268.371 154.851C-237.815 145.457 -203.453 139.417 -171.618 137.843C-118.81 135.275 -62.3884 138.501 -3.92435 147.432C48.9989 155.517 101.456 167.888 151.994 184.201C244.647 214.16 323.73 256.327 380.695 306.146C383.812 308.873 386.906 311.67 389.892 314.462C414.032 337.025 434.011 361.623 450.973 389.66C453.886 394.466 456.76 399.417 459.538 404.204C472.863 427.156 486.638 450.89 511.386 471.044C512.774 472.174 514.203 473.295 515.644 474.377C581.576 523.923 698.419 518.603 784.965 491.355C875.861 462.486 943.411 414.504 1008.74 368.102L1009.41 367.626C1015.74 363.128 1022.28 358.479 1028.79 353.888C1097.5 305.46 1173.03 255.69 1273.87 225.967C1302.18 217.64 1332 211.525 1362.51 207.792C1390.89 204.321 1420.81 202.797 1451.44 203.262C1504.84 204.073 1562.05 210.796 1626.35 223.815C1693.92 237.449 1744.76 249.981 1791.22 264.451C1857.4 285.11 1921.51 311.215 1978.08 334.248C2104.02 385.805 2227.87 443.884 2346.19 506.869L2345.93 507.025C2227.62 444.046 2103.78 385.973 1977.85 334.42C1921.29 311.392 1857.19 285.291 1791.03 264.639C1744.59 250.173 1693.76 237.645 1626.22 224.016C1486.85 195.795 1374.95 196.475 1274.04 226.155C1173.27 255.859 1097.78 305.607 1029.09 354.018C1022.58 358.608 1016.04 363.259 1009.71 367.755L1009.04 368.232C976.483 391.355 942.822 415.265 906.471 436.622C865.62 460.623 825.936 478.586 785.15 491.539C742.48 504.972 695.999 512.238 653.21 512.238Z" fill="#FFE492"/>
<path d="M2341.85 504.991C2225.07 441.607 2103.14 382.788 1979.46 330.168C1974.22 327.956 1968.97 325.733 1963.71 323.503C1910.13 300.816 1854.74 277.356 1795.5 259.08C1738.03 241.399 1679.78 230.588 1630.38 222.345C1494.03 199.45 1383.6 202.907 1282.86 233.218C1179.43 264.427 1099.3 316.243 1034.9 357.88C1031.04 360.379 1027.18 362.882 1023.32 365.388C1020.47 367.238 1017.61 369.088 1014.76 370.935C978.094 394.667 944.745 415.884 907.897 435.244C865.801 457.361 825.227 473.558 783.848 484.764C745.07 495.267 703.644 500.823 665.112 500.825C658.092 500.825 651.176 500.642 644.379 500.269C619.564 498.909 596.592 495.086 576.1 488.906C553.741 482.163 534.294 472.586 518.291 460.437C516.862 459.349 515.436 458.223 514.057 457.091C489.57 437.019 475.248 413.603 461.399 390.958C458.417 386.081 455.331 381.035 452.21 376.138C434.446 348.205 413.963 323.818 389.596 301.583C386.563 298.817 383.423 296.046 380.263 293.344C322.516 243.991 242.848 202.395 149.875 173.054C41.3658 138.889 -73.8015 123.176 -174.415 128.808C-243.198 132.735 -313.534 155.56 -345.461 184.314C-367.212 203.903 -371.069 225.704 -356.624 247.361L-356.986 247.436C-364.55 236.097 -367.185 224.749 -364.82 213.707C-362.643 203.54 -356.239 193.613 -345.789 184.199C-329.397 169.436 -303.439 156.24 -270.718 146.041C-240.455 136.607 -206.27 130.41 -174.454 128.595C-121.708 125.641 -65.2282 128.485 -6.58304 137.045C46.4674 144.79 99.1748 156.841 150.067 172.864C243.098 202.223 322.809 243.842 380.591 293.226C383.754 295.93 386.895 298.702 389.927 301.469C414.31 323.717 434.801 348.116 452.576 376.063C455.697 380.962 458.783 386.005 461.765 390.885C475.606 413.516 489.921 436.918 514.377 456.966C515.756 458.096 517.178 459.219 518.604 460.306C587.433 512.56 704.419 506.033 783.682 484.568C878.25 458.956 950.617 412.119 1014.47 370.793C1017.32 368.943 1020.17 367.093 1023.03 365.245C1026.89 362.74 1030.75 360.236 1034.62 357.737C1071.37 333.972 1107.67 310.876 1147.57 289.595C1193.46 265.12 1237.65 246.617 1282.68 233.029C1310.69 224.6 1340.09 218.168 1370.08 213.914C1398.1 209.936 1427.56 207.728 1457.64 207.348C1510.7 206.68 1567.25 211.518 1630.5 222.138C1679.91 230.385 1738.18 241.201 1795.69 258.892C1854.95 277.175 1910.36 300.641 1963.95 323.333C1969.21 325.562 1974.46 327.785 1979.7 329.998C2103.4 382.622 2225.33 441.448 2342.12 504.838L2341.85 504.991Z" fill="#FFE492"/>
<path d="M2337.76 502.954C2220.32 437.953 2100.32 378.385 1981.07 325.91C1973.93 322.77 1966.64 319.534 1959.58 316.405C1909.02 293.998 1856.74 270.827 1799.96 253.515C1743.26 236.289 1684.53 227.241 1634.55 220.665C1501.52 202.991 1392.56 209.222 1291.66 240.276C1195.43 270.003 1120.03 314.706 1047.12 357.936L1039.11 362.681C1032.79 366.431 1026.25 370.306 1019.8 374.107C946.818 417.089 873.754 457.374 782.546 477.978C760.413 482.979 737.687 486.444 714.992 488.283C690.621 490.256 666.947 490.284 644.626 488.365C620.381 486.28 597.929 481.9 577.893 475.348C556.088 468.217 537.03 458.465 521.255 446.364C519.833 445.269 518.419 444.141 517.051 443.011C492.865 423.057 478.026 399.986 463.677 377.674C460.475 372.695 457.161 367.546 453.817 362.546C435.229 334.698 414.237 310.508 389.638 288.592C386.564 285.854 383.377 283.104 380.167 280.424C321.607 231.509 241.311 190.461 147.956 161.716C38.6805 128.17 -76.8104 113.197 -177.251 119.56C-245.406 123.97 -315.422 146.955 -347.511 175.458C-369.624 195.097 -374.244 216.982 -360.874 238.749L-361.24 238.82C-368.237 227.431 -370.399 216.04 -367.667 204.966C-365.147 194.756 -358.477 184.79 -347.842 175.346C-331.274 160.632 -305.407 147.449 -273.033 137.22C-243.071 127.752 -209.07 121.406 -177.297 119.349C-124.613 116.011 -68.0753 118.471 -9.24518 126.661C43.9362 134.065 96.8864 145.795 148.137 161.529C241.546 190.288 321.888 231.362 380.483 280.306C383.693 282.988 386.883 285.739 389.958 288.478C414.572 310.404 435.576 334.608 454.171 362.47C457.516 367.47 460.83 372.622 464.032 377.6C478.373 399.9 493.204 422.96 517.363 442.89C518.727 444.016 520.141 445.141 521.559 446.237C588.732 497.764 700.342 496.317 782.396 477.78C873.531 457.192 946.563 416.923 1019.52 373.961C1025.97 370.159 1032.5 366.285 1038.83 362.535L1046.83 357.789C1082.63 336.57 1119.63 314.626 1159.82 294.213C1205.35 271.094 1248.41 253.39 1291.47 240.086C1319.2 231.552 1348.19 224.803 1377.62 220.029C1405.3 215.54 1434.31 212.646 1463.83 211.428C1516.65 209.248 1572.52 212.202 1634.64 220.454C1684.64 227.034 1743.4 236.084 1800.14 253.325C1856.95 270.644 1909.24 293.821 1959.81 316.235C1966.87 319.363 1974.17 322.598 1981.3 325.739C2100.56 378.219 2220.58 437.791 2338.03 502.798L2337.76 502.954Z" fill="#FFE492"/>
<path d="M2333.68 500.925C2217.25 435.202 2099.15 374.888 1982.68 321.662C1973.92 317.663 1964.95 313.503 1956.27 309.482C1908.44 287.316 1858.98 264.396 1804.42 247.963C1747.99 231.033 1688.99 223.82 1638.72 218.999C1509.37 206.404 1401.89 215.413 1300.47 247.346C1211.96 275.332 1139.29 314.993 1069.02 353.348C1061.62 357.384 1053.97 361.556 1046.52 365.599C1037.77 370.347 1031.09 373.955 1024.85 377.292C991.437 395.159 951.657 415.731 909.912 432.843C865.674 450.974 823.585 463.523 781.239 471.208C758.972 475.249 736.342 477.798 713.974 478.781C689.958 479.837 666.704 479.061 644.864 476.472C621.202 473.666 599.273 468.731 579.68 461.803C558.434 454.291 539.773 444.363 524.214 432.302C522.811 431.208 521.405 430.079 520.041 428.944C496.174 409.125 480.839 386.409 466.004 364.441C462.563 359.346 459.006 354.079 455.419 348.962C435.995 321.192 414.491 297.2 389.673 275.61C386.552 272.895 383.319 270.172 380.063 267.513C320.689 219.035 239.761 178.535 146.029 150.388C35.9943 117.459 -79.8203 103.23 -180.084 110.319C-237.134 114.442 -311.646 133.434 -349.507 166.566C-372.017 186.265 -377.42 208.25 -365.124 230.142L-365.49 230.207C-371.921 218.759 -373.601 207.319 -370.488 196.201C-367.613 185.94 -360.666 175.931 -349.831 166.45C-333.085 151.796 -307.315 138.635 -275.299 128.384C-245.637 118.888 -211.841 112.398 -180.13 110.106C-127.507 106.384 -70.9079 108.461 -11.9005 116.279C41.408 123.343 94.6049 134.754 146.21 150.198C239.996 178.361 320.971 218.885 380.379 267.391C383.635 270.049 386.871 272.777 389.992 275.494C414.822 297.094 436.338 321.1 455.774 348.882C459.365 354.001 462.921 359.269 466.362 364.364C481.185 386.32 496.517 409.023 520.357 428.822C521.721 429.954 523.123 431.081 524.526 432.172C580.408 475.499 676.333 490.015 781.12 470.999C876.015 453.78 953.426 415.186 1024.58 377.133C1030.82 373.795 1037.5 370.188 1046.25 365.44C1053.7 361.397 1061.35 357.225 1068.75 353.188C1103.34 334.306 1139.12 314.782 1177.28 296.499C1220.42 275.823 1260.66 259.682 1300.28 247.155C1327.75 238.508 1356.31 231.442 1385.19 226.155C1412.54 221.146 1441.09 217.569 1470.03 215.519C1522.72 211.788 1577.92 212.856 1638.78 218.781C1689.08 223.607 1748.13 230.821 1804.61 247.767C1859.2 264.21 1908.67 287.137 1956.51 309.309C1965.19 313.331 1974.16 317.49 1982.92 321.49C2099.4 374.722 2217.51 435.04 2333.95 500.768L2333.68 500.925Z" fill="#FFE492"/>
<path d="M2329.59 498.898C2214.17 432.448 2097.99 371.387 1984.28 317.414C1974.6 312.824 1964.67 308.005 1955.06 303.345C1909.28 281.149 1861.95 258.199 1808.89 242.409C1752.41 225.681 1693.28 220.344 1642.88 217.33C1519.4 209.746 1410.27 221.877 1309.27 254.414C1228.85 280.44 1159.92 315.256 1093.25 348.927C1079.78 355.728 1065.86 362.762 1052.32 369.465C1044.04 373.569 1036.71 377.172 1029.89 380.479C998.171 395.844 955.983 415.546 910.901 431.646C865.603 447.822 822.76 458.549 779.924 464.438C733.204 470.861 686.577 470.908 645.086 464.578C622.018 461.057 600.609 455.567 581.455 448.26C560.775 440.37 542.511 430.27 527.164 418.245C525.773 417.15 524.378 416.018 523.022 414.884C499.495 395.215 483.681 372.872 468.392 351.267C464.693 346.04 460.87 340.637 457.013 335.386C436.738 307.69 414.721 283.892 389.702 262.636C386.535 259.945 383.256 257.245 379.954 254.611C319.767 206.57 238.211 166.616 144.102 139.07C33.3077 106.759 -82.8305 93.2724 -182.92 101.089C-250.751 106.501 -318.479 129.227 -351.446 157.637C-374.388 177.408 -380.588 199.507 -369.375 221.545L-369.745 221.603C-375.606 210.087 -376.8 198.586 -373.298 187.421C-370.061 177.101 -362.817 167.041 -351.77 157.519C-334.847 142.934 -309.177 129.803 -277.535 119.544C-248.185 110.028 -214.601 103.396 -182.974 100.873C-130.413 96.7676 -73.7525 98.4623 -14.564 105.908C38.8756 112.631 92.3189 123.722 144.279 138.876C238.443 166.439 320.045 206.415 380.27 254.486C383.572 257.12 386.851 259.822 390.022 262.515C415.052 283.784 437.081 307.593 457.368 335.302C461.225 340.553 465.047 345.958 468.746 351.185C484.028 372.779 499.834 395.111 523.338 414.761C524.694 415.895 526.085 417.023 527.476 418.118C582.399 461.165 676.736 478.401 779.832 464.229C873.818 451.306 955.436 416.261 1029.63 380.318C1036.45 377.01 1043.79 373.409 1052.07 369.306C1065.6 362.602 1079.52 355.571 1092.99 348.77C1159.67 315.092 1228.62 280.267 1309.08 254.231C1336.29 245.462 1364.44 238.081 1392.74 232.29C1419.8 226.752 1447.88 222.49 1476.21 219.62C1528.89 214.283 1583.42 213.466 1642.91 217.118C1693.35 220.135 1752.53 225.474 1809.06 242.221C1862.17 258.022 1909.52 280.981 1955.31 303.186C1964.92 307.845 1974.85 312.662 1984.53 317.253C2098.25 371.229 2214.44 432.295 2329.87 498.749L2329.59 498.898Z" fill="#FFE492"/>
<path d="M2325.51 496.865C2211.11 429.682 2096.85 367.877 1985.89 313.163C1975.69 308.135 1965.2 302.811 1955.06 297.662C1910.95 275.278 1865.35 252.131 1813.35 236.85C1756.64 220.265 1697.46 216.83 1647.04 215.657C1528.23 212.69 1420.62 227.678 1318.08 261.479C1246.17 285.296 1182.06 315.44 1120.06 344.59C1098.75 354.614 1078.61 364.082 1058.13 373.325C1049.8 377.088 1042.21 380.469 1034.93 383.658C987.942 404.217 948.848 419.082 911.896 430.437C865.538 444.683 821.944 453.588 778.619 457.659C761.811 459.237 745.065 460.024 728.624 460.024C699.478 460.024 671.277 457.558 645.315 452.672C598.329 443.829 559.574 427.513 530.124 404.176C528.737 403.07 527.354 401.938 526.013 400.808C502.844 381.31 486.587 359.364 470.866 338.138C466.882 332.761 462.767 327.202 458.617 321.796C437.475 294.165 414.941 270.565 389.742 249.647C386.528 246.98 383.203 244.304 379.854 241.693C318.855 194.091 236.667 154.684 142.18 127.735C30.6265 96.0456 -85.8316 83.2981 -185.748 91.841C-253.86 97.7857 -319.634 120.081 -353.307 148.642C-376.715 168.494 -383.735 190.725 -373.617 212.932L-373.991 212.985C-379.273 201.389 -379.975 189.819 -376.071 178.596C-372.457 168.207 -364.909 158.091 -353.627 148.523C-336.526 134.019 -310.968 120.93 -279.711 110.671C-250.678 101.141 -217.329 94.3789 -185.806 91.6276C-133.306 87.1384 -76.584 88.4493 -17.2182 95.5238C36.3523 101.908 90.0385 112.681 142.357 127.541C236.898 154.507 319.132 193.935 380.17 241.566C383.519 244.179 386.844 246.855 390.061 249.525C415.277 270.453 437.821 294.065 458.971 321.708C463.121 327.114 467.24 332.674 471.221 338.052C486.934 359.267 503.183 381.204 526.333 400.686C527.673 401.813 529.053 402.945 530.44 404.049C585.432 447.63 675.866 467.092 778.553 457.443C876.304 448.258 962.885 414.904 1034.69 383.485C1041.97 380.296 1049.56 376.918 1057.89 373.155C1078.36 363.911 1098.5 354.446 1119.82 344.421C1181.82 315.265 1245.94 285.117 1317.88 261.291C1344.9 252.386 1372.62 244.688 1400.3 238.409C1427.1 232.329 1454.73 227.38 1482.41 223.704C1535.2 216.694 1589.06 213.99 1647.06 215.439C1697.51 216.612 1756.75 220.051 1813.53 236.656C1865.57 251.948 1911.19 275.106 1955.31 297.498C1965.46 302.647 1975.94 307.971 1986.14 312.997C2097.11 367.715 2211.38 429.527 2325.78 496.714L2325.51 496.865Z" fill="#FFE492"/>
<path d="M2321.42 494.836C2206.46 425.958 2097.23 365.142 1987.49 308.912C1977.02 303.548 1966.71 298.069 1955.8 292.269C1913.13 269.594 1869.01 246.149 1817.81 231.295C1760.39 214.716 1698.61 213.336 1651.21 213.987C1537.8 215.342 1431.71 233.189 1326.88 268.548C1263.99 289.867 1205.92 315.467 1149.76 340.227C1120.24 353.24 1092.36 365.528 1063.93 377.191C1055.5 380.656 1047.65 383.813 1039.97 386.842C992.342 405.592 951.961 419.06 912.882 429.229C865.45 441.571 821.104 448.654 777.309 450.884C754.806 452.029 732.458 451.813 710.884 450.243C688.042 448.581 666.056 445.392 645.538 440.767C600.059 430.514 562.225 413.473 533.084 390.115C531.708 389.007 530.336 387.873 529.003 386.743C506.223 367.445 489.558 345.917 473.44 325.099C469.14 319.545 464.694 313.801 460.22 308.216C438.192 280.645 415.15 257.241 389.777 236.669C386.513 234.025 383.141 231.373 379.755 228.786C317.942 181.621 235.126 142.761 140.261 116.41C52.7017 92.1898 -37.5935 79.5522 -120.394 79.5522C-143.802 79.5522 -166.594 80.5613 -188.576 82.6033C-255.868 88.977 -321.229 111.352 -355.098 139.607C-379.003 159.552 -386.875 181.933 -377.863 204.33L-378.24 204.377C-382.945 192.691 -383.142 181.041 -378.826 169.753C-374.826 159.289 -366.951 149.105 -355.422 139.486C-338.144 125.072 -312.706 112.038 -281.85 101.789C-252.723 92.1143 -220.492 85.4063 -188.645 82.392C-136.208 77.5189 -79.4234 78.4483 -19.8766 85.1498C33.8211 91.1915 87.7578 101.643 140.431 116.214C235.349 142.58 318.216 181.461 380.067 228.654C383.457 231.241 386.833 233.896 390.096 236.541C415.481 257.125 438.535 280.539 460.575 308.123C465.048 313.708 469.499 319.452 473.799 325.008C489.909 345.818 506.566 367.337 529.327 386.62C530.66 387.748 532.032 388.882 533.403 389.988C587.899 433.666 676.784 455.78 777.278 450.666C878.967 445.489 970.965 413.741 1039.76 386.661C1047.44 383.631 1055.28 380.475 1063.71 377.012C1092.14 365.353 1120.01 353.063 1149.52 340.052C1205.69 315.29 1263.77 289.683 1326.69 268.358C1380.66 250.154 1433.62 236.886 1488.61 227.796C1541.63 219.029 1594.82 214.44 1651.21 213.768C1683.37 213.326 1709.62 214.093 1733.8 216.18C1765.02 218.876 1792.56 223.755 1818 231.099C1869.24 245.966 1913.38 269.424 1956.07 292.109C1966.98 297.909 1977.29 303.386 1987.76 308.751C2097.5 364.982 2206.74 425.803 2321.71 494.685L2321.42 494.836Z" fill="#FFE492"/>
<path d="M2317.33 492.798C2203.43 423.165 2096.06 361.625 1989.1 304.654C1978.51 299.017 1968.08 293.211 1957.03 287.063C1915.64 264.031 1872.85 240.211 1822.27 225.73C1764.38 209.229 1702.67 209.888 1655.37 212.305C1548.35 217.586 1443.78 238.292 1335.69 275.603C1282.43 294.075 1231.72 315.215 1182.68 335.66C1143.91 351.821 1107.3 367.087 1069.74 381.04C1061.25 384.196 1052.93 387.215 1045.01 390.009C997.29 406.836 954.393 419.263 913.869 428C865.346 438.462 820.249 443.727 775.999 444.094C753.485 444.279 731.225 443.141 709.852 440.706C687.446 438.153 665.883 434.162 645.762 428.841C601.844 417.225 564.927 399.46 536.039 376.037C534.683 374.931 533.319 373.795 531.99 372.658C509.638 353.595 492.61 332.523 476.142 312.144C471.483 306.379 466.663 300.415 461.82 294.617C438.89 267.097 415.335 243.892 389.812 223.671C386.502 221.051 383.084 218.423 379.651 215.859C317.026 169.132 233.577 130.82 138.335 105.066C25.2676 74.6208 -91.8416 63.3568 -191.411 73.3486C-257.832 80.1299 -322.758 102.563 -356.816 130.497C-381.261 150.547 -390.007 173.097 -382.116 195.711L-382.494 195.752C-386.609 183.964 -386.293 172.224 -381.55 160.858C-377.145 150.308 -368.934 140.051 -357.136 130.374C-339.689 116.063 -314.377 103.094 -283.937 92.8666C-255.147 83.1939 -223.177 76.3717 -191.481 73.1352C-139.101 67.8805 -82.2588 68.4239 -22.5348 74.7545C31.294 80.4598 85.4734 90.5918 138.501 104.87C233.801 130.637 317.295 168.972 379.955 215.727C383.392 218.291 386.814 220.922 390.124 223.544C415.663 243.775 439.225 266.991 462.167 294.522C467.014 300.32 471.83 306.284 476.493 312.052C492.953 332.421 509.973 353.485 532.31 372.535C533.639 373.67 535.003 374.806 536.355 375.91C591.425 420.561 676.53 444.702 775.992 443.874C856.696 443.205 942.113 426.029 1044.8 389.822C1052.72 387.027 1061.04 384.011 1069.53 380.854C1107.07 366.903 1143.69 351.642 1182.45 335.481C1231.49 315.034 1282.21 293.89 1335.48 275.413C1389.98 256.6 1442.09 242.361 1494.79 231.875C1548.18 221.254 1600.7 214.779 1655.34 212.083C1702.68 209.662 1764.47 209.004 1822.45 225.532C1873.08 240.03 1915.9 263.86 1957.31 286.904C1968.35 293.051 1978.78 298.856 1989.36 304.49C2096.33 361.463 2203.71 423.008 2317.62 492.645L2317.33 492.798Z" fill="#FFE492"/>
<path d="M2313.25 490.771C2200.41 420.382 2094.9 358.113 1990.7 300.408C1980.13 294.55 1969.68 288.463 1958.63 282.018C1918.41 258.574 1876.82 234.331 1826.74 220.178C1768.3 203.737 1706.69 206.443 1659.54 210.637C1558.85 219.423 1458.74 242.314 1344.49 282.673C1301.65 297.879 1259.77 314.559 1219.28 330.69C1170.1 350.281 1123.65 368.788 1075.55 384.906C1066.88 387.812 1058.3 390.602 1050.05 393.194C1001.48 408.447 957.255 419.435 914.858 426.784C891.111 430.9 867.668 433.882 845.181 435.648C821.195 437.53 797.479 438.093 774.692 437.321C728.457 435.753 685.156 428.892 645.992 416.93C603.696 404.01 567.699 385.522 539.005 361.977C537.656 360.862 536.304 359.723 534.982 358.594C513.108 339.811 495.776 319.238 479.019 299.345C473.944 293.323 468.7 287.096 463.425 281.037C439.57 253.562 415.503 230.554 389.849 210.693C386.493 208.095 383.025 205.49 379.549 202.952C316.111 156.66 232.035 118.897 136.414 93.7444C22.592 63.9218 -94.8371 53.3995 -194.241 64.1137C-300.677 75.7637 -404.393 126.1 -386.36 187.11L-386.741 187.145C-391.254 171.883 -388.61 156.848 -378.889 142.453C-370.011 129.307 -355.442 116.934 -335.587 105.683C-317.126 95.2214 -294.978 86.189 -269.763 78.8363C-245.781 71.8437 -219.691 66.6775 -194.318 63.9003C-142 58.2618 -85.0963 58.4235 -25.1912 64.3833C28.7686 69.7501 83.1945 79.563 136.576 93.5503C232.25 118.72 316.377 156.505 379.854 202.823C383.333 205.363 386.801 207.967 390.161 210.568C415.827 230.437 439.905 253.459 463.772 280.944C469.047 287.003 474.291 293.23 479.366 299.255C496.119 319.141 513.443 339.705 535.306 358.477C536.624 359.607 537.972 360.745 539.321 361.858C594.471 407.108 678.069 433.83 774.715 437.108C856.533 439.878 946.535 425.455 1049.87 393.009C1058.11 390.417 1066.68 387.629 1075.35 384.723C1123.44 368.609 1169.88 350.105 1219.06 330.515C1259.55 314.383 1301.43 297.7 1344.29 282.492C1458.58 242.115 1558.73 219.216 1659.48 210.423C1691.16 207.605 1717.39 206.704 1742.03 207.59C1773.53 208.722 1801.29 212.776 1826.91 219.984C1877.04 234.152 1918.66 258.41 1958.9 281.867C1969.96 288.31 1980.4 294.397 1990.97 300.253C2095.18 357.962 2200.68 420.233 2313.53 490.627L2313.25 490.771Z" fill="#FFE492"/>
<path d="M2309.17 488.737C2197.39 417.58 2093.75 354.587 1992.31 296.153C1981.82 290.107 1971.44 283.775 1960.46 277.067C1921.33 253.174 1880.87 228.466 1831.2 214.616C1771.49 198.037 1707.01 203.447 1663.71 208.959C1546.17 223.733 1440.84 258.081 1353.3 289.737C1321.84 301.16 1290.46 313.261 1260.11 324.963C1199.23 348.437 1141.72 370.609 1081.36 388.765C1072.48 391.436 1063.65 393.996 1055.1 396.374C1005.58 410.128 960.03 419.676 915.857 425.558C865.781 432.227 817.852 433.905 773.39 430.541C727.715 427.085 684.929 418.495 646.228 405.007C605.635 390.863 570.559 371.653 541.969 347.911C540.636 346.796 539.291 345.656 537.977 344.522C516.646 326.084 499.098 306.076 482.125 286.727C476.565 280.385 470.812 273.83 465.033 267.45C439.891 239.631 416.013 217.471 389.892 197.708C386.49 195.133 382.979 192.554 379.454 190.038C315.195 144.186 230.487 106.97 134.489 82.4129C19.911 53.2157 -97.8417 43.433 -197.076 54.8695C-303.894 67.3432 -405.49 116.996 -390.609 178.502L-390.991 178.53C-394.682 163.271 -391.488 148.251 -381.5 133.888C-372.345 120.729 -357.692 108.343 -337.94 97.0794C-319.522 86.5744 -297.49 77.4752 -272.452 70.0298C-248.612 62.9402 -222.573 57.6252 -197.153 54.6561C-144.893 48.6338 -87.9314 48.4138 -27.849 54.0006C26.2418 59.0289 80.9144 68.5226 134.651 82.2167C230.706 106.787 315.46 144.024 379.75 189.904C383.276 192.423 386.79 195.004 390.196 197.578C416.332 217.351 440.218 239.523 465.372 267.353C471.151 273.733 476.904 280.29 482.464 286.632C499.434 305.975 516.977 325.976 538.293 344.405C539.607 345.539 540.948 346.678 542.281 347.793C597.859 393.944 679.951 423.255 773.436 430.328C857.281 436.671 949.356 425.5 1054.93 396.18C1063.47 393.804 1072.3 391.247 1081.17 388.575C1141.52 370.424 1199.02 348.256 1259.89 324.784C1290.24 313.082 1321.63 300.979 1353.09 289.553C1411.95 268.269 1460.92 252.544 1507.18 240.066C1561.64 225.378 1612.81 215.134 1663.62 208.747C1694.59 204.806 1721.58 203.02 1746.15 203.292C1777.78 203.641 1805.65 207.281 1831.37 214.422C1881.11 228.289 1921.59 253.012 1960.74 276.92C1971.72 283.626 1982.09 289.959 1992.59 296C2094.03 354.436 2197.67 417.434 2309.45 488.593L2309.17 488.737Z" fill="#FFE492"/>
<path d="M2305.08 486.707C2194.39 414.78 2092.61 351.06 1993.92 291.902C1983.57 285.698 1973.33 279.146 1962.48 272.207C1924.39 247.833 1885 222.629 1835.67 209.06C1775.3 192.52 1711 200.125 1667.88 207.286C1561.38 224.818 1466.39 258.2 1362.11 296.803C1343.3 303.791 1324.28 311.004 1305.88 317.981C1235.12 344.813 1161.96 372.557 1087.17 392.627C1078.08 395.068 1068.99 397.399 1060.14 399.555C1010.28 411.699 962.072 420.034 916.847 424.332C865.616 429.201 816.912 429.009 772.076 423.765C727.04 418.497 684.775 408.175 646.451 393.086C607.669 377.816 573.507 357.886 544.917 333.851C543.595 332.734 542.262 331.591 540.956 330.457C520.268 312.451 502.609 293.094 485.532 274.376C479.378 267.632 473.017 260.658 466.624 253.873C440.5 226.081 416.125 204.112 389.915 184.732C386.474 182.188 382.914 179.63 379.338 177.133C314.278 131.713 228.945 95.0444 132.562 71.0868C17.2333 42.5149 -100.839 33.4739 -199.912 45.6306C-303.339 58.4601 -406.812 106.371 -394.863 169.897L-395.244 169.919C-398.115 154.659 -394.37 139.656 -384.116 125.326C-374.688 112.152 -359.945 99.7558 -340.302 88.4788C-304.059 67.6757 -252.92 51.9807 -199.997 45.4172C-147.798 39.0132 -90.7748 38.4095 -30.5113 43.6232C23.7104 48.3151 78.6258 57.4876 132.717 70.8885C229.154 94.859 314.536 131.551 379.639 176.993C383.219 179.492 386.779 182.05 390.224 184.596C416.444 203.987 440.831 225.965 466.963 253.767C473.356 260.555 479.721 267.528 485.875 274.273C502.948 292.986 520.603 312.338 541.279 330.336C542.582 331.47 543.915 332.611 545.237 333.728C602.437 381.816 680.903 412.876 772.15 423.551C856.642 433.435 953.479 425.296 1059.98 399.356C1068.82 397.2 1077.91 394.872 1086.99 392.433C1161.75 372.369 1234.91 344.63 1305.65 317.802C1324.05 310.825 1343.08 303.612 1361.89 296.624C1407.54 279.726 1460.65 260.344 1513.37 244.161C1568.51 227.235 1619.01 215.106 1667.76 207.081C1698.44 201.986 1725.43 199.342 1750.26 199.002C1781.58 198.57 1810.36 201.891 1835.83 208.868C1857.93 214.947 1880.17 224.018 1903.82 236.602C1924.71 247.713 1944.06 260.093 1962.77 272.065C1973.61 279.001 1983.85 285.554 1994.19 291.755C2092.88 350.915 2194.67 414.637 2305.37 486.566L2305.08 486.707Z" fill="#FFE492"/>
<path d="M2300.99 484.674C2191.39 411.971 2091.47 347.524 1995.52 287.65C1985.36 281.311 1975.3 274.56 1964.64 267.414C1927.54 242.534 1889.18 216.806 1840.13 203.504C1794.3 191.112 1739.31 191.802 1672.04 205.613C1577.97 224.814 1493.89 256.931 1404.87 290.936C1393.78 295.171 1382.32 299.548 1370.92 303.871C1366.45 305.568 1361.98 307.269 1357.51 308.969C1272.69 341.245 1184.98 374.621 1092.97 396.489C1083.67 398.701 1074.32 400.804 1065.19 402.736C1014.23 413.501 964.661 420.354 917.853 423.101C865.439 426.176 815.952 424.119 770.778 416.986C726.443 409.985 684.698 397.932 646.702 381.161C609.873 364.905 576.628 344.257 547.887 319.786C546.577 318.667 545.256 317.522 543.957 316.386C524.056 298.944 506.454 280.369 489.427 262.405C482.534 255.13 475.402 247.607 468.239 240.285C441.105 212.513 416.236 190.733 389.965 171.745C386.474 169.223 382.872 166.691 379.25 164.218C313.365 119.237 227.4 83.1144 130.64 59.7562C14.563 31.8118 -103.837 23.5104 -202.744 36.3872C-304.271 49.7148 -407.598 98.0181 -399.109 161.29L-399.494 161.307C-401.54 146.046 -397.248 131.06 -386.729 116.766C-377.023 103.577 -362.196 91.1657 -342.656 79.8801C-306.568 59.0339 -255.606 43.106 -202.833 36.1781C-150.692 29.3904 -93.6108 28.4028 -33.17 33.2457C21.1827 37.5969 76.3485 46.4503 130.794 59.5579C227.608 82.9311 313.627 119.074 379.539 164.078C383.161 166.551 386.771 169.087 390.262 171.609C416.545 190.608 441.428 212.394 468.57 240.177C475.737 247.499 482.865 255.025 489.763 262.3C506.782 280.259 524.383 298.83 544.277 316.265C545.576 317.401 546.893 318.544 548.203 319.663C606.644 369.42 683.642 402.999 770.878 416.772C856.992 430.369 955.965 425.576 1065.05 402.529C1074.18 400.597 1083.52 398.496 1092.82 396.286C1184.8 374.427 1272.49 341.057 1357.3 308.785C1361.76 307.084 1366.23 305.385 1370.7 303.688C1382.1 299.365 1393.56 294.988 1404.65 290.755C1493.69 256.743 1577.8 224.618 1671.9 205.408C1702.3 199.168 1729.28 195.668 1754.39 194.705C1785.82 193.499 1814.72 196.395 1840.3 203.308C1862.26 209.266 1884.23 218.378 1907.44 231.166C1927.92 242.45 1946.74 255.07 1964.94 267.274C1975.59 274.417 1985.65 281.166 1995.81 287.503C2091.76 347.379 2191.68 411.828 2301.29 484.533L2300.99 484.674Z" fill="#FFE492"/>
<path d="M2296.91 482.644C2196.87 414.896 2096.01 347.859 1997.13 283.399C1987.06 276.875 1977.08 269.865 1966.52 262.445C1932.17 238.309 1893.24 210.953 1844.59 197.949C1798.22 185.579 1743.14 187.539 1676.2 203.939C1596.6 223.375 1526.16 251.953 1451.58 282.209C1428.23 291.684 1404.08 301.483 1379.72 310.936C1337.2 327.472 1291.2 344.97 1242.99 360.906C1191.35 377.975 1144.18 390.876 1098.77 400.35C1089.23 402.34 1079.62 404.214 1070.22 405.915C1018.19 415.323 967.266 420.677 918.874 421.828C865.304 423.1 815.035 419.193 769.46 410.206C685.299 393.405 611.742 358.252 550.835 305.723C549.537 304.601 548.227 303.454 546.936 302.318C528.044 285.646 510.751 268.058 494.028 251.048C486.156 243.042 478.018 234.762 469.83 226.704C441.664 198.938 416.294 177.351 389.993 158.766C386.452 156.265 382.803 153.757 379.138 151.31C312.452 106.763 225.855 71.1896 128.717 48.4286C11.8891 21.1095 -106.831 13.552 -205.576 27.1469C-307.719 41.2894 -408.457 88.9524 -403.359 152.686L-403.744 152.694C-404.966 137.428 -400.118 122.46 -389.341 108.203C-379.354 94.9963 -364.442 82.5722 -345.014 71.278C-326.712 60.6371 -305.018 51.333 -280.539 43.6224C-256.773 36.1382 -231.585 30.5235 -205.672 26.9355C-153.589 19.7661 -96.4465 18.3948 -35.8285 22.8646C18.6553 26.8816 74.0638 35.4138 128.864 48.2281C226.06 71.002 312.706 106.597 379.431 151.166C383.095 153.615 386.752 156.125 390.293 158.626C416.606 177.221 441.987 198.818 470.165 226.592C478.353 234.652 486.491 242.932 494.363 250.94C511.086 267.948 528.375 285.534 547.26 302.199C548.547 303.338 549.861 304.483 551.155 305.604C612.016 358.093 685.507 393.217 769.587 410.001C856.195 427.078 960.111 425.595 1070.1 405.708C1079.5 404.007 1089.1 402.135 1098.63 400.147C1200.16 378.967 1293.05 344.375 1379.49 310.757C1403.85 301.305 1428 291.507 1451.35 282.032C1525.95 251.77 1596.4 223.185 1676.04 203.74C1743.09 187.314 1798.28 185.354 1844.76 197.753C1866.54 203.576 1888.17 212.706 1910.89 225.658C1930.92 237.08 1949.17 249.907 1966.82 262.309C1977.39 269.729 1987.36 276.737 1997.42 283.257C2096.31 347.719 2197.17 414.756 2297.21 482.506L2296.91 482.644Z" fill="#FFE492"/>
<path d="M2292.82 480.612C2194.31 412.489 2095.37 344.706 1998.73 279.147C1988.98 272.551 1979.31 265.418 1969.06 257.867C1935.55 233.168 1897.57 205.172 1849.05 192.387C1802.13 180.039 1746.95 183.269 1680.36 202.259C1610.59 222.126 1546.49 250.178 1484.5 277.31C1453.41 290.913 1421.27 304.98 1388.52 317.997C1336.83 338.563 1293.33 354.252 1251.64 367.372C1200.22 383.55 1152.12 395.599 1104.57 404.207C1094.81 405.975 1084.95 407.618 1075.26 409.091C1024.77 416.76 975.183 420.641 927.751 420.644C925.115 420.644 922.495 420.631 919.875 420.607C865.036 420.107 813.99 414.324 768.152 403.422C746.028 398.131 724.361 391.414 703.758 383.458C684.392 375.98 665.362 367.172 647.194 357.279C614.508 339.482 583.952 318.015 553.789 291.655C552.495 290.521 551.204 289.384 549.921 288.244C532.42 272.691 515.863 256.433 499.853 240.71C490.609 231.635 481.053 222.249 471.428 213.113C441.793 184.966 416.69 164.197 390.022 145.777C386.435 143.299 382.74 140.815 379.029 138.392C311.533 94.2865 224.309 59.261 126.793 37.0974C9.21756 10.4057 -109.826 3.5899 -208.409 17.9028C-308.638 32.496 -409.244 80.5212 -407.606 144.075L-407.992 144.078C-408.755 114.475 -387.789 86.3257 -347.366 62.6743C-329.094 51.9838 -307.516 42.6129 -283.226 34.8161C-259.591 27.2306 -234.453 21.4692 -208.506 17.6915C-156.484 10.1383 -99.2798 8.3853 -38.4846 12.4821C16.1302 16.1627 71.7853 24.3757 126.936 36.8947C224.513 59.0734 311.787 94.1204 379.326 138.252C383.036 140.677 386.739 143.163 390.326 145.641C417.006 164.072 442.121 184.847 471.763 213.005C481.388 222.143 490.948 231.529 500.188 240.605C516.198 256.325 532.751 272.581 550.248 288.13C551.531 289.27 552.818 290.407 554.113 291.539C618.207 347.552 688.269 384.085 768.303 403.224C879.154 429.59 996.356 420.855 1075.16 408.884C1084.84 407.411 1094.7 405.77 1104.45 404.002C1213.8 384.204 1313.58 347.546 1388.3 317.823C1421.04 304.81 1453.18 290.743 1484.26 277.142C1546.27 250.006 1610.38 221.945 1680.19 202.069C1709.98 193.571 1736.95 188.353 1762.63 186.119C1794.29 183.364 1823.43 185.408 1849.22 192.196C1870.94 197.92 1892.37 207.123 1914.71 220.328C1934.4 231.962 1952.18 245.066 1969.37 257.74C1979.61 265.289 1989.28 272.419 1999.03 279.011C2095.66 344.57 2194.61 412.353 2293.12 480.476L2292.82 480.612Z" fill="#FFE492"/>
<path d="M2288.74 478.582L2000.34 274.897C1990.92 268.246 1981.57 261.007 1971.67 253.346C1938.99 228.062 1901.95 199.406 1853.52 186.834C1806.69 174.677 1749.83 179.304 1684.52 200.588C1621.74 221.048 1564.48 248.257 1509.1 274.572C1473 291.724 1435.68 309.459 1397.33 325.068C1282.06 371.983 1181.32 399.692 1080.31 412.274C1038.4 417.492 997.058 420.118 956.966 420.118C944.813 420.118 932.783 419.877 920.881 419.394C864.748 417.117 812.923 409.462 766.85 396.646C724.15 384.765 685.086 367.994 647.441 345.371C617.379 327.306 588.561 305.77 556.753 277.595C539.965 262.726 523.708 247.276 507.987 232.336C472.407 198.527 435.617 163.566 390.069 132.797C320.203 85.6039 228.498 48.5947 124.867 25.7691C6.54758 -0.293024 -112.82 -6.36922 -211.241 8.66171C-306.53 23.214 -409.953 69.1024 -411.856 135.471L-412.241 135.466C-411.39 105.801 -389.77 77.6561 -349.72 54.0736C-313.508 32.7509 -264.365 16.5491 -211.341 8.45256C-159.377 0.517712 -102.112 -1.61909 -41.143 2.10468C13.6028 5.4468 69.5045 13.3428 125.009 25.5685C176.287 36.8628 224.987 51.7298 269.761 69.7579C314.909 87.9369 355.486 109.098 390.361 132.654C435.929 163.434 472.731 198.404 508.318 232.222C524.039 247.16 540.296 262.607 557.08 277.474C603.488 318.584 669.292 369.257 767.024 396.447C879.105 427.628 999.204 422.147 1080.22 412.058C1181.19 399.485 1281.88 371.787 1397.1 324.889C1435.44 309.287 1472.76 291.552 1508.85 274.404C1564.24 248.085 1621.52 220.869 1684.33 200.398C1749.75 179.078 1806.73 174.446 1853.68 186.635C1875.36 192.265 1896.59 201.548 1918.58 215.017C1937.93 226.874 1955.24 240.267 1971.98 253.217C1981.88 260.878 1991.23 268.112 2000.65 274.762L2289.04 478.446L2288.74 478.582Z" fill="#FFE492"/>
<path d="M2286.42 462.917C2212.98 406.204 2149.97 360.184 2088.12 318.093C2058.1 297.646 2027.44 277.519 1997 258.273C1987.79 252.451 1978.66 246.259 1969 239.702C1944.73 223.222 1919.63 206.181 1890.74 193.535C1875.23 186.732 1860.3 181.861 1845.09 178.644C1798.42 168.672 1743.66 175.266 1682.34 198.244C1650.6 210.119 1621.7 223.632 1597.62 235.284C1572.12 247.619 1546.97 261.223 1522.65 274.378C1487.69 293.288 1451.54 312.84 1412.67 329.633C1389.03 339.881 1365.05 349.039 1341.42 356.853C1294.14 372.485 1243.4 385.367 1190.59 395.138C1157.97 401.109 1125.19 405.622 1093.16 408.55C1065.56 411.064 1037.91 412.515 1010.98 412.863C970.66 413.384 931.381 411.394 894.229 406.942C854.726 402.206 817.343 394.649 783.119 384.476C752.602 375.405 723.776 363.983 694.997 349.556C641.368 322.694 598.594 291.634 567.322 267.575C551.96 255.701 536.959 243.592 522.452 231.881C480.68 198.156 441.223 166.302 391.849 137.929C351.58 114.939 305.634 95.1 255.277 78.9586C216.58 66.554 174.492 56.409 130.184 48.8041C119.63 46.995 108.876 45.3088 98.2301 43.7973C52.3928 37.3007 0.791199 33.0702 -55.1375 31.2223C-111.525 29.3163 -160.31 30.9657 -204.27 36.27C-229.123 39.2456 -253.202 43.9138 -275.847 50.1431C-355.792 72.1364 -407.128 109.057 -413.17 148.908L-413.651 148.884C-412.041 138.261 -407.313 127.797 -399.603 117.779C-392.278 108.264 -382.217 99.0868 -369.702 90.503C-346.055 74.2883 -313.673 60.2471 -276.059 49.8994C-253.379 43.6593 -229.262 38.9847 -204.371 36.0048C-160.364 30.6962 -111.54 29.0446 -55.1067 30.9528C0.852814 32.8007 52.4814 37.0355 98.3495 43.5364C109.007 45.0501 119.765 46.7363 130.327 48.5475C174.669 56.1567 216.792 66.3103 255.52 78.7258C305.912 94.8779 351.896 114.734 392.184 137.739C441.59 166.13 481.054 197.992 522.841 231.726C537.345 243.436 552.345 255.543 567.704 267.416C598.96 291.464 641.715 322.509 695.313 349.354C724.061 363.766 752.856 375.176 783.338 384.237C850.318 404.145 926.9 413.686 1010.96 412.593C1037.87 412.246 1065.51 410.795 1093.08 408.283C1125.08 405.355 1157.84 400.846 1190.44 394.88C1243.21 385.114 1293.93 372.242 1341.18 356.618C1364.79 348.81 1388.75 339.657 1412.38 329.417C1451.22 312.633 1487.36 293.085 1522.31 274.182C1546.64 261.024 1571.79 247.417 1597.3 235.077C1621.39 223.418 1650.3 209.901 1682.07 198.018C1709.37 187.787 1735.81 180.719 1760.65 177.008C1791.16 172.45 1819.63 172.915 1845.26 178.392C1860.51 181.62 1875.49 186.504 1891.04 193.322C1919.96 205.987 1945.08 223.039 1969.38 239.529C1979.03 246.084 1988.16 252.277 1997.36 258.094C2027.81 277.343 2058.48 297.471 2088.5 317.923C2150.35 360.018 2213.36 406.042 2286.81 462.759L2286.42 462.917Z" fill="#FFE492"/>
<path d="M2284.09 447.263C2216 389.591 2152.1 341.331 2088.73 299.727C2057.82 279.405 2025.83 259.869 1993.66 241.665C1985.12 236.835 1976.69 231.815 1967.77 226.502C1941.04 210.591 1913.41 194.14 1882.45 182.757C1866.83 176.985 1851.85 172.966 1836.67 170.469C1778.52 160.904 1719.46 179.025 1680.15 195.91C1652.29 207.838 1626.85 221.325 1601.09 235.248C1578.54 247.435 1557.32 260.544 1534.85 274.422C1501.51 295.022 1467.03 316.323 1428.02 334.209C1404.86 344.88 1380.7 354.107 1356.2 361.632C1310.56 375.651 1260.58 386.538 1203.4 394.917C1171.41 399.605 1138.64 402.945 1106.01 404.84C1078.48 406.421 1051 406.985 1024.33 406.513C984.647 405.819 945.861 402.697 909.041 397.235C870.37 391.497 833.472 383.114 799.376 372.318C769.502 362.861 740.657 351.127 711.192 336.447C657.679 309.825 611.838 280.31 577.884 257.571C565.315 249.153 552.946 240.684 540.982 232.49C493.338 199.862 448.337 169.041 393.63 143.076C352.744 123.67 306.841 107.262 257.204 94.3071C219.647 84.505 179.84 77.161 135.514 71.8545C125.283 70.632 114.876 69.5301 104.584 68.5793C59.3788 64.4242 11.1334 62.8524 -47.2383 61.2266C-89.3148 59.9954 -144.396 59.1847 -197.311 63.8895C-222.372 66.0759 -246.597 69.873 -269.319 75.1708C-349.319 93.8285 -403.587 126.422 -414.491 162.361L-415.062 162.307C-412.172 152.777 -406.315 143.43 -397.665 134.523C-389.419 126.036 -378.584 117.898 -365.464 110.33C-340.53 95.9523 -307.362 83.69 -269.543 74.8711C-246.778 69.5625 -222.507 65.7589 -197.404 63.5682C-144.438 58.8569 -89.3148 59.6698 -47.2113 60.901C11.1796 62.5268 59.4405 64.0987 104.677 68.2558C114.976 69.2089 125.391 70.3107 135.633 71.5333C180.002 76.8462 219.848 84.1967 257.447 94.0096C307.134 106.977 353.075 123.399 394.003 142.824C448.749 168.808 493.769 199.638 541.429 232.279C553.39 240.47 565.758 248.94 578.327 257.355C612.274 280.086 658.095 309.589 711.577 336.199C741.008 350.864 769.822 362.585 799.661 372.031C866.706 393.259 942.305 404.749 1024.35 406.185C1050.99 406.656 1078.45 406.093 1105.95 404.512C1138.55 402.619 1171.29 399.283 1203.26 394.598C1260.38 386.228 1310.32 375.35 1355.92 361.343C1380.39 353.826 1404.53 344.613 1427.65 333.952C1466.64 316.082 1501.1 294.789 1534.43 274.2C1556.9 260.316 1578.12 247.204 1600.69 235.011C1626.47 221.079 1651.92 207.588 1679.8 195.647C1705.29 184.7 1730.42 176.825 1754.52 172.237C1783.73 166.674 1811.43 165.973 1836.84 170.152C1852.08 172.659 1867.1 176.692 1882.78 182.481C1913.78 193.885 1941.44 210.352 1968.19 226.276C1977.11 231.586 1985.54 236.604 1994.07 241.432C2026.26 259.643 2058.26 279.185 2089.17 299.514C2152.56 341.128 2216.48 389.397 2284.58 447.082L2284.09 447.263Z" fill="#FFE492"/>
<path d="M2281.77 431.601C2218.04 372.186 2155.1 323.04 2089.33 281.354C2057.53 261.157 2024.22 242.215 1990.32 225.049C1983.07 221.379 1975.61 217.485 1968.4 213.72C1938.61 198.165 1907.81 182.082 1874.18 171.972C1858.39 167.194 1843.37 164.024 1828.25 162.284C1770.23 155.602 1714.5 175.607 1677.96 193.564C1653.2 205.686 1630.56 219.426 1608.67 232.714L1604.57 235.203C1584.69 247.258 1566.04 260.48 1546.3 274.48C1514.86 296.773 1482.36 319.823 1443.36 338.776C1420.67 349.885 1396.31 359.18 1370.97 366.404C1326.77 378.998 1277.59 387.985 1216.2 394.686C1184.45 398.152 1151.7 400.316 1118.85 401.118C1091.39 401.763 1064.08 401.44 1037.67 400.152C957.714 396.273 883.009 382.814 815.624 360.15C786.495 350.353 757.63 338.31 727.387 323.329C676.205 298.03 630.684 272.026 588.449 247.56C582.785 244.28 577.183 241.022 571.623 237.79C513.937 204.263 459.453 172.595 395.421 148.221C353.618 132.308 307.762 119.332 259.131 109.651C223.427 102.544 184.734 97.7184 140.846 94.8981C130.955 94.2663 120.895 93.7466 110.942 93.3542C85.9042 92.3839 59.3481 92.2265 31.2316 92.0605C8.64819 91.9268 -14.702 91.7888 -39.343 91.226C-86.9334 90.0466 -140.87 88.7119 -190.36 91.5063C-215.895 92.9488 -240.266 95.8727 -262.8 100.198C-342.768 115.55 -399.972 143.82 -415.82 175.821L-416.472 175.719C-412.295 167.282 -405.313 159.052 -395.722 151.257C-386.552 143.803 -374.946 136.7 -361.229 130.148C-334.993 117.616 -301.031 107.137 -263.023 99.8401C-240.44 95.504 -216.018 92.5737 -190.433 91.129C-140.893 88.3324 -86.9296 89.6693 -39.3199 90.8487C-14.6943 91.4093 8.65591 91.5495 31.2316 91.6832C59.3597 91.8492 85.9234 92.0066 110.984 92.979C120.945 93.3736 131.017 93.8933 140.916 94.525C184.857 97.3475 223.597 102.18 259.351 109.297C308.039 118.989 353.946 131.981 395.795 147.911C459.885 172.306 514.395 203.989 572.104 237.531C577.664 240.763 583.271 244.019 588.931 247.301C631.158 271.763 676.664 297.761 727.83 323.051C758.043 338.015 786.876 350.047 815.971 359.831C883.267 382.467 957.875 395.907 1037.72 399.782C1064.1 401.067 1091.39 401.39 1118.82 400.745C1151.64 399.943 1184.36 397.781 1216.07 394.32C1277.4 387.625 1326.52 378.649 1370.66 366.071C1395.95 358.863 1420.26 349.585 1442.91 338.496C1481.86 319.566 1514.35 296.529 1545.76 274.249C1565.52 260.243 1584.17 247.014 1604.07 234.95L1608.17 232.462C1630.07 219.167 1652.72 205.419 1677.51 193.284C1714.16 175.269 1770.09 155.205 1828.38 161.917C1843.57 163.666 1858.65 166.846 1874.49 171.644C1908.2 181.776 1939.03 197.876 1968.85 213.449C1976.06 217.213 1983.52 221.107 1990.76 224.775C2024.68 241.949 2058.01 260.902 2089.82 281.11C2155.62 322.814 2218.59 371.977 2282.33 431.411L2281.77 431.601Z" fill="#FFE492"/>
<path d="M2279.44 415.927C2220.93 355.616 2157.17 304.153 2089.93 262.974C2057.24 242.904 2022.61 224.553 1986.99 208.428C1981.84 206.1 1976.58 203.683 1971.48 201.345C1937.81 185.905 1903 169.936 1865.92 161.182C1850 157.385 1834.94 155.067 1819.85 154.092C1761.99 150.357 1709.57 172.215 1675.79 191.209C1654.81 202.943 1635.87 215.992 1617.55 228.613C1614.39 230.797 1611.22 232.977 1608.05 235.148C1590.63 247.076 1574.34 260.402 1557.1 274.508C1527.78 298.489 1497.47 323.285 1458.71 343.338C1435.94 355.113 1412.08 364.217 1385.74 371.173C1330.64 385.721 1275.58 391.105 1229 394.455C1197.48 396.719 1164.75 397.711 1131.69 397.396C1104.31 397.105 1077.17 395.891 1051.01 393.791C973.458 387.579 899.732 372.167 831.881 347.98C803.649 337.92 774.77 325.564 743.586 310.21C712.086 294.737 682.733 279.849 654.343 265.449C635.05 255.662 616.824 246.419 599.027 237.55C531.75 204.026 470.127 174.55 397.229 153.363C354.528 140.954 308.718 131.407 261.069 124.988C226.919 120.386 190.414 118.146 146.191 117.932C136.651 117.894 126.933 117.956 117.311 118.12C102.696 118.385 87.5766 118.939 71.5744 119.528C40.8646 120.656 6.05127 121.934 -31.4478 121.218C-45.7276 120.945 -60.2964 120.559 -74.3874 120.184C-110.63 119.22 -148.106 118.224 -183.413 119.114C-209.341 119.77 -233.862 121.822 -256.288 125.216C-336.121 137.302 -396.258 161.251 -417.157 189.279L-417.87 189.113C-412.399 181.773 -404.292 174.662 -393.776 167.976C-383.677 161.555 -371.301 155.489 -356.998 149.95C-329.436 139.277 -294.685 130.581 -256.496 124.8C-234.016 121.397 -209.441 119.338 -183.455 118.683C-148.11 117.79 -110.619 118.788 -74.3566 119.752C-60.2694 120.127 -45.7006 120.513 -31.4246 120.787C6.0397 121.503 40.8261 120.227 71.5204 119.099C87.5303 118.51 102.654 117.956 117.284 117.691C126.917 117.527 136.643 117.465 146.195 117.503C190.479 117.715 227.038 119.961 261.246 124.569C308.953 130.997 354.825 140.555 397.579 152.982C430.508 162.551 463.877 174.675 499.592 190.045C531.565 203.803 562.668 218.858 599.535 237.229C617.333 246.1 635.558 255.343 654.855 265.13C683.241 279.527 712.595 294.416 744.087 309.887C775.24 325.226 804.088 337.568 832.286 347.618C900.044 371.772 973.666 387.163 1051.11 393.366C1077.24 395.464 1104.35 396.676 1131.69 396.967C1164.71 397.282 1197.42 396.292 1228.89 394.028C1275.42 390.684 1330.4 385.307 1385.4 370.784C1411.67 363.848 1435.47 354.768 1458.17 343.023C1496.87 323.005 1527.16 298.228 1556.45 274.266C1573.71 260.152 1590 246.82 1607.44 234.879C1610.61 232.707 1613.78 230.527 1616.94 228.345C1635.27 215.716 1654.22 202.658 1675.23 190.909C1697.21 178.552 1719.76 169.045 1742.26 162.654C1768.9 155.084 1795.03 152.061 1819.93 153.669C1835.08 154.648 1850.22 156.977 1866.21 160.789C1903.39 169.567 1938.24 185.555 1971.95 201.015C1977.05 203.353 1982.31 205.77 1987.45 208.096C2023.1 224.233 2057.76 242.602 2090.48 262.687C2126.18 284.553 2161.15 309.466 2194.4 336.734C2223.8 360.834 2252.62 387.411 2280.09 415.724L2279.44 415.927Z" fill="#FFE492"/>
<path d="M2277.11 400.267C2222.96 338.227 2160.19 285.857 2090.54 244.61C2056.95 224.668 2020.99 206.909 1983.66 191.824C1981.89 191.106 1980.11 190.388 1978.33 189.668C1939.51 173.962 1899.37 157.722 1857.67 150.41C1841.52 147.577 1826.41 146.108 1811.47 145.919C1753.84 145.19 1704.7 168.874 1673.62 188.868C1655.33 200.566 1639.1 213.386 1623.4 225.785C1619.52 228.851 1615.51 232.02 1611.55 235.108C1596.45 246.868 1582.42 260.239 1567.57 274.396C1540.56 300.148 1512.63 326.775 1474.06 347.914C1451.76 360.144 1427.7 369.317 1400.51 375.958C1346.96 389.04 1292.58 392.475 1241.79 394.238C1210.48 395.325 1177.75 395.14 1144.53 393.688C1117.24 392.459 1090.27 390.357 1064.35 387.442C989.441 379.033 916.693 361.667 848.141 335.824C820.687 325.477 792.613 313.174 759.796 297.105C697.425 266.651 651.11 245.201 609.626 227.557C527.119 192.465 464.146 171.819 399.07 158.524C355.502 149.623 309.738 143.506 263.042 140.341C230.644 138.146 196.263 138.342 151.566 140.983C142.407 141.531 133.036 142.175 123.711 142.902C114.903 143.599 105.956 144.396 96.481 145.239C61.4981 148.355 21.8452 151.887 -23.5374 151.227C-47.4579 150.88 -71.8908 149.929 -95.5184 149.011C-122.371 147.967 -150.137 146.887 -176.462 146.74C-202.856 146.594 -227.528 147.775 -249.772 150.255C-329.34 159.119 -392.416 178.751 -418.498 202.769L-419.238 202.517C-412.464 196.277 -403.232 190.285 -391.8 184.707C-380.764 179.32 -367.625 174.294 -352.744 169.764C-323.838 160.963 -288.288 154.05 -249.942 149.778C-227.636 147.294 -202.91 146.108 -176.454 146.255C-150.106 146.402 -122.325 147.482 -95.4606 148.528C-71.8407 149.446 -47.4193 150.397 -23.5182 150.744C21.7835 151.402 61.3941 147.874 96.3384 144.763C105.817 143.918 114.772 143.122 123.584 142.423C132.92 141.697 142.299 141.052 151.466 140.502C196.232 137.859 230.671 137.66 263.138 139.862C309.9 143.031 355.73 149.157 399.359 158.071C464.524 171.383 527.562 192.051 610.143 227.173C651.641 244.824 697.972 266.28 760.358 296.743C793.153 312.798 821.196 325.089 848.619 335.426C917.078 361.231 989.718 378.573 1064.52 386.97C1090.4 389.881 1117.34 391.979 1144.59 393.208C1177.78 394.657 1210.46 394.842 1241.73 393.757C1292.44 391.996 1346.73 388.57 1400.16 375.518C1427.24 368.903 1451.22 359.761 1473.45 347.574C1511.93 326.479 1539.83 299.881 1566.82 274.157C1581.68 259.991 1595.72 246.609 1610.83 234.832C1614.79 231.747 1618.81 228.577 1622.69 225.511C1638.4 213.102 1654.64 200.272 1672.96 188.556C1693.24 175.506 1714.5 165.184 1736.15 157.875C1761.51 149.313 1786.86 145.132 1811.48 145.44C1826.51 145.63 1841.7 147.107 1857.93 149.953C1899.76 157.29 1939.96 173.553 1978.83 189.282C1980.61 190.002 1982.39 190.722 1984.17 191.438C2021.54 206.54 2057.54 224.321 2091.16 244.285C2160.88 285.568 2223.7 337.979 2277.89 400.062L2277.11 400.267Z" fill="#FFE492"/>
<path d="M1260.97 394.012C1258.8 394.012 1256.67 394.009 1254.58 394.003C1223.42 393.93 1190.71 392.571 1157.35 389.962C1130.17 387.795 1103.36 384.805 1077.69 381.076C1041.01 375.759 1004.19 368.118 968.264 358.365C933.566 348.947 898.622 337.269 864.398 323.652C830.864 310.312 799.541 295.447 775.998 283.987C720.914 257.245 668.503 234.894 620.223 217.552C542.026 189.465 472.342 172.343 400.916 163.668C357.826 158.435 311.596 155.675 267.084 155.675C266.394 155.675 265.708 155.675 265.019 155.677C226.78 155.751 190.475 159.727 156.945 164.013C148.218 165.137 139.19 166.363 130.112 167.664C125.137 168.384 120.155 169.125 114.884 169.91C77.7046 175.454 35.5625 181.735 -15.6345 181.22C-46.8143 180.905 -78.6608 179.098 -109.459 177.349C-129.345 176.219 -149.906 175.053 -169.518 174.348C-196.479 173.38 -221.29 173.69 -243.268 175.275C-322.412 180.976 -388.428 196.294 -419.866 216.252L-420.591 215.896C-404.465 205.66 -380.209 196.798 -348.498 189.553C-318.212 182.636 -281.865 177.513 -243.391 174.742C-221.355 173.155 -196.479 172.841 -169.457 173.813C-149.825 174.518 -129.253 175.687 -109.359 176.817C-78.5798 178.565 -46.7527 180.372 -15.6153 180.685C35.4507 181.2 77.5196 174.928 114.637 169.395C119.912 168.608 124.894 167.866 129.873 167.146C138.958 165.846 147.994 164.617 156.729 163.494C190.317 159.2 226.683 155.218 265.015 155.142C310.235 155.054 357.294 157.823 401.12 163.146C437.983 167.625 473.721 174.216 510.369 183.298C545.664 192.046 581.768 203.103 620.739 217.103C669.058 234.459 721.507 256.827 776.626 283.586C800.15 295.039 831.449 309.894 864.949 323.219C934.394 350.849 1006.05 370.14 1077.93 380.561C1103.57 384.285 1130.34 387.271 1157.48 389.436C1190.8 392.041 1223.47 393.399 1254.58 393.47C1303.26 393.582 1359.78 392.664 1414.91 380.233C1442.82 373.942 1466.96 364.741 1488.72 352.108C1526.93 329.92 1552.26 301.443 1576.76 273.902C1589.37 259.736 1601.27 246.354 1614.21 234.771C1618.36 231.06 1622.54 227.237 1626.59 223.54C1640.26 211.047 1654.39 198.131 1670.68 186.192C1689.29 172.457 1709.26 161.316 1730.03 153.079C1754.12 143.529 1778.67 138.186 1803.01 137.199C1818.03 136.588 1833.28 137.211 1849.63 139.105C1893.32 144.163 1936.64 158.86 1980.86 174.766C2019.41 188.635 2057.79 206.305 2091.83 225.868C2129.64 247.536 2165.17 272.956 2197.42 301.42C2226.16 326.779 2252.48 354.693 2275.66 384.388L2274.78 384.604C2225 320.832 2163.22 267.552 2091.14 226.246C2057.15 206.71 2018.83 189.066 1980.34 175.221C1936.19 159.343 1892.97 144.674 1849.43 139.633C1833.17 137.751 1818.01 137.132 1803.08 137.738C1758.36 139.555 1711.6 156.878 1671.44 186.52C1655.19 198.437 1641.07 211.342 1627.41 223.822C1623.36 227.522 1619.18 231.347 1615.03 235.058C1602.11 246.62 1590.21 259.99 1577.63 274.144C1565.6 287.657 1553.17 301.631 1538.91 315.064C1522.74 330.293 1506.55 342.532 1489.42 352.483C1467.56 365.172 1443.31 374.414 1415.28 380.736C1390.55 386.312 1363.98 389.997 1334.03 392.006C1308.68 393.699 1283.21 394.012 1260.97 394.012Z" fill="#FFE492"/>
<path d="M1322.76 395.091C1303.11 395.091 1284.24 394.435 1267.35 393.771C1236.31 392.551 1203.61 390.017 1170.17 386.24C1143.1 383.137 1116.46 379.26 1091.01 374.713C1021.31 362.286 952.497 341.602 880.639 311.482C849.301 298.348 819.759 284.216 792.193 270.87C737.771 244.596 683.48 223.293 630.819 207.548C553.37 184.393 480.908 172.083 402.773 168.81C358.254 166.945 311.307 167.706 267.003 171.009C229.92 173.773 194.961 180.445 162.324 187.038C154.159 188.696 145.474 190.508 136.516 192.42C134.277 192.901 132.019 193.391 129.73 193.884C92.1426 202.017 49.6113 211.22 -4.97263 211.22C-5.89352 211.22 -6.81055 211.218 -7.73917 211.212C-44.6679 211.002 -82.3711 208.053 -118.837 205.198C-133.295 204.066 -148.245 202.897 -162.59 201.951C-190.61 200.105 -214.878 199.559 -236.783 200.288C-316.455 202.94 -383.704 213.67 -421.28 229.731L-421.924 229.259C-403.348 221.32 -376.487 214.426 -344.255 209.325C-312.552 204.307 -275.411 200.978 -236.848 199.695C-214.882 198.964 -190.553 199.51 -162.471 201.36C-148.11 202.306 -133.156 203.477 -118.695 204.607C-82.2632 207.458 -44.5947 210.405 -7.73529 210.614C47.9853 210.933 91.2101 201.578 129.341 193.326C131.626 192.832 133.888 192.343 136.127 191.86C145.093 189.945 153.782 188.134 161.954 186.476C194.645 179.869 229.67 173.189 266.853 170.416C311.226 167.108 358.25 166.345 402.843 168.212C441.563 169.834 478.48 173.663 515.702 179.916C554.037 186.357 591.852 195.221 631.308 207.02C684.035 222.786 738.396 244.115 792.875 270.415C820.43 283.757 849.953 297.88 881.263 311.001C953.025 341.08 1021.73 361.734 1091.32 374.141C1116.74 378.68 1143.34 382.552 1170.37 385.651C1203.76 389.424 1236.41 391.956 1267.41 393.172C1319.58 395.22 1375.07 396.272 1429.66 384.937C1458.39 378.971 1482.7 369.712 1503.97 356.631C1541.88 333.328 1565.47 301.544 1586.29 273.5C1596.77 259.39 1606.66 246.062 1617.58 234.701C1621.51 230.602 1625.48 226.365 1629.31 222.269C1641.3 209.45 1653.7 196.196 1668.38 183.817C1685.36 169.396 1704.04 157.436 1723.9 148.268C1746.71 137.739 1770.47 131.236 1794.52 128.944C1809.55 127.51 1824.86 127.281 1841.3 128.239C1887.25 130.919 1933.93 144.162 1977.54 158.076C2017.8 170.923 2057.54 187.991 2092.48 207.436C2131.35 229.002 2167.16 254.676 2198.92 283.74C2227.32 309.731 2252.39 338.314 2273.43 368.699L2272.44 368.912C2227.71 304.325 2165.23 248.633 2091.74 207.854C2056.87 188.446 2017.2 171.41 1977.02 158.589C1933.52 144.708 1886.96 131.497 1841.2 128.827C1824.85 127.874 1809.64 128.103 1794.71 129.526C1750.3 133.758 1705.76 153.153 1669.27 184.14C1654.62 196.493 1642.24 209.735 1630.26 222.54C1626.42 226.639 1622.46 230.876 1618.52 234.979C1607.62 246.315 1597.74 259.629 1587.28 273.724C1566.42 301.811 1542.79 333.648 1504.76 357.027C1483.36 370.18 1458.92 379.491 1430.03 385.491C1404.96 390.696 1377.92 393.711 1347.35 394.701C1339.09 394.981 1330.86 395.091 1322.76 395.091Z" fill="#FFE492"/>
<path d="M1361.54 397.426C1361.26 397.426 1360.98 397.426 1360.7 397.426C1332.93 397.388 1305.67 395.486 1280.12 393.541C1249.12 391.182 1216.45 387.471 1182.99 382.516C1156.04 378.482 1129.58 373.715 1104.34 368.35C1037.42 354.147 971.508 332.212 896.891 299.315C870.02 287.471 843.575 274.717 817.998 262.385C814.8 260.841 811.598 259.3 808.396 257.758C753.692 231.491 697.517 211.234 641.434 197.55C564.637 178.815 487.184 171.096 404.649 173.953C359.394 175.52 312.489 179.805 269.006 186.342C234.698 191.502 204.127 199.78 167.722 210.065C160.343 212.159 152.464 214.418 142.931 217.178L142.399 217.334C124.008 222.694 103.162 228.768 79.7813 233.387C52.9286 238.691 26.8773 241.244 0.16333 241.214C-41.4933 241.155 -84.0052 236.817 -125.115 232.619C-135.187 231.59 -145.606 230.527 -155.663 229.566C-184.504 226.812 -208.917 225.421 -230.298 225.316C-309.026 224.928 -379.162 231.457 -422.718 243.225L-423.219 242.643C-401.884 236.877 -373.104 232.198 -339.994 229.111C-306.822 226.017 -268.884 224.481 -230.287 224.671C-208.844 224.777 -184.369 226.17 -155.466 228.93C-145.402 229.891 -134.983 230.954 -124.907 231.983C-83.8473 236.174 -41.3892 240.508 0.167206 240.567C0.352142 240.567 0.540924 240.567 0.725891 240.567C60.1687 240.567 105.455 227.371 141.867 216.76L142.403 216.605C151.94 213.843 159.819 211.583 167.202 209.489C203.668 199.187 234.293 190.894 268.71 185.719C312.266 179.169 359.248 174.878 404.58 173.308C444.969 171.911 483.065 172.976 521.054 176.568C561.99 180.439 601.519 187.108 641.897 196.96C698.087 210.669 754.359 230.959 809.151 257.269C812.353 258.81 815.555 260.354 818.753 261.898C844.319 274.225 870.755 286.975 897.604 298.81C972.125 331.666 1037.94 353.571 1104.75 367.751C1129.95 373.109 1156.38 377.868 1183.29 381.897C1216.7 386.846 1249.33 390.55 1280.28 392.905C1335.71 397.127 1389.98 400.055 1444.43 389.671C1473.98 384.034 1498.45 374.717 1519.25 361.185C1556.82 336.74 1577.34 302.868 1595.45 272.981C1603.92 258.989 1611.93 245.772 1620.96 234.665C1624.44 230.392 1627.93 225.971 1631.3 221.696C1641.84 208.327 1652.74 194.506 1666.11 181.474C1681.49 166.361 1698.88 153.579 1717.79 143.483C1739.34 131.978 1762.3 124.319 1786.04 120.722C1800.77 118.493 1815.79 117.406 1831.94 117.406C1832.29 117.406 1832.64 117.406 1832.99 117.408C1883.18 117.555 1934.83 130.315 1974.23 141.416C2016.19 153.242 2057.32 169.707 2093.16 189.031C2133.08 210.498 2169.18 236.425 2200.43 266.092C2228.48 292.715 2252.3 321.968 2271.21 353.043L2270.12 353.252C2241.97 307.015 2188.28 241.073 2092.36 189.499C2056.6 170.218 2015.57 153.792 1973.71 141.993C1934.43 130.924 1882.94 118.2 1832.99 118.055C1816.54 118.001 1801.29 119.084 1786.35 121.348C1742.36 128.013 1700.01 149.48 1667.11 181.795C1653.77 194.797 1642.88 208.603 1632.35 221.956C1628.98 226.234 1625.49 230.657 1622.02 234.933C1613.01 246.011 1605.01 259.211 1596.54 273.188C1578.4 303.129 1557.84 337.066 1520.13 361.605C1499.19 375.228 1474.55 384.608 1444.8 390.281C1419.59 395.087 1392.34 397.426 1361.54 397.426Z" fill="#FFE492"/>
<path d="M1392.37 400.461C1386.39 400.461 1380.28 400.353 1374.03 400.137C1346.64 399.195 1320.02 396.368 1292.89 393.306C1261.45 389.757 1229.69 385.009 1195.8 378.791C1168.99 373.827 1142.7 368.174 1117.66 361.983C1054.14 346.303 991.059 323.221 913.144 287.143C893.794 278.184 874.451 268.788 855.744 259.699C845.56 254.753 835.033 249.636 824.602 244.64C769.248 218.197 711.196 198.989 652.057 187.548C573.919 172.431 493.611 169.663 406.538 179.085C360.535 184.064 313.672 191.871 271.022 201.663C236.759 209.529 206.913 220.575 175.313 232.27L173.128 233.079C168.192 234.912 163.202 236.77 158.151 238.65C155.242 239.735 152.313 240.826 149.358 241.926C130.932 248.819 111.031 256.01 88.2083 261.545C61.7101 267.97 35.5008 271.131 8.07394 271.209C-37.5861 271.334 -84.1593 265.396 -129.195 259.648C-135.622 258.826 -142.273 257.979 -148.727 257.174C-178.986 253.401 -202.841 251.23 -223.81 250.337C-301.189 247.044 -374.214 249.365 -424.166 256.704L-424.486 256.027C-374.403 248.668 -301.227 246.339 -223.713 249.638C-202.687 250.533 -178.77 252.711 -148.453 256.491C-141.995 257.297 -135.345 258.145 -128.914 258.966C-84.429 264.643 -38.4453 270.51 6.60977 270.51C7.09528 270.51 7.58078 270.51 8.07013 270.508C66.3454 270.344 107.829 256.618 148.668 241.343C151.624 240.244 154.552 239.153 157.461 238.068C162.513 236.186 167.499 234.329 172.438 232.494L174.623 231.686C206.277 219.971 236.174 208.905 270.548 201.014C313.276 191.203 360.219 183.382 406.303 178.395C493.596 168.949 574.119 171.726 652.47 186.884C711.755 198.355 769.941 217.606 825.419 244.108C835.85 249.106 846.38 254.22 856.564 259.169C875.264 268.255 894.603 277.65 913.942 286.602C991.764 322.639 1054.75 345.689 1118.17 361.343C1143.17 367.523 1169.43 373.17 1196.2 378.125C1230.03 384.335 1261.74 389.076 1293.14 392.619C1340.81 397.998 1400.13 404.696 1459.2 394.38C1489.57 389.078 1514.21 379.703 1534.52 365.718C1571.72 340.102 1588.97 304.074 1604.2 272.289C1610.81 258.481 1617.06 245.438 1624.35 234.614C1627.19 230.396 1630.03 226.034 1632.78 221.815C1642.02 207.664 1651.56 193.032 1663.83 179.115C1677.65 163.3 1693.75 149.696 1711.66 138.682C1731.96 126.202 1754.13 117.39 1777.56 112.489C1792.59 109.343 1808 107.404 1824.67 106.561C1846.99 105.431 1870.74 106.639 1897.29 110.244C1919.75 113.297 1943.84 118.036 1970.92 124.736C2014.59 135.541 2057.09 151.404 2093.82 170.609C2134.81 191.975 2171.19 218.158 2201.94 248.427C2229.63 275.683 2252.19 305.607 2268.99 337.37L2267.79 337.569C2232.32 270.51 2170.23 211.398 2092.97 171.122C2056.33 151.969 2013.95 136.151 1970.41 125.378C1912.06 110.945 1865.79 105.185 1824.78 107.26C1808.23 108.096 1792.93 110.022 1778 113.144C1722.26 124.803 1685.75 155.623 1664.95 179.424C1652.72 193.305 1643.18 207.92 1633.96 222.054C1631.2 226.276 1628.36 230.64 1625.52 234.86C1618.25 245.652 1612.01 258.679 1605.41 272.47C1590.15 304.324 1572.86 340.428 1535.49 366.16C1515.02 380.255 1490.18 389.706 1459.57 395.051C1438.82 398.673 1416.69 400.461 1392.37 400.461Z" fill="#FFE492"/>
<path d="M1419.09 403.945C1378.34 403.945 1339.17 398.087 1305.65 393.076C1274.12 388.362 1242.38 382.471 1208.61 375.069C1181.95 369.183 1155.83 362.641 1130.98 355.622C1056.48 334.608 990.061 304.445 929.389 274.978C917.001 268.962 904.486 262.761 892.387 256.765C875.588 248.437 858.214 239.827 840.805 231.53C784.622 204.826 724.694 186.664 662.688 177.55C582.477 165.762 499.307 167.942 408.426 184.217C361.633 192.596 314.817 203.927 273.037 216.985C240.813 227.054 213.548 239.767 184.684 253.226C182.638 254.179 180.588 255.137 178.527 256.094L177.409 256.616C170.393 259.891 163.137 263.276 155.781 266.674C138.157 274.853 118.749 283.312 96.3 289.774C70.2411 297.275 43.9702 301.016 15.9769 301.21C-33.1587 301.553 -83.2383 293.823 -131.665 286.348C-135.059 285.824 -138.439 285.302 -141.803 284.787C-173.738 279.883 -197.034 276.977 -217.332 275.36C-292.77 269.352 -368.692 267.464 -425.634 270.178L-425.75 269.426C-368.715 266.705 -292.681 268.596 -217.143 274.611C-196.787 276.233 -173.441 279.146 -141.448 284.058C-138.084 284.573 -134.705 285.095 -131.306 285.621C-82.9724 293.081 -32.9891 300.792 15.9577 300.456C76.7491 300.033 119.562 282.497 154.918 266.092C162.274 262.694 169.529 259.309 176.546 256.036L177.663 255.514C179.725 254.554 181.775 253.599 183.821 252.646C212.735 239.163 240.046 226.429 272.378 216.325C314.235 203.243 361.14 191.893 408.013 183.499C451.1 175.784 491.569 171.329 531.731 169.88C576.532 168.265 620.704 170.6 663.028 176.821C725.229 185.963 785.335 204.177 841.676 230.955C859.096 239.256 876.474 247.868 893.277 256.197C905.376 262.194 917.884 268.393 930.268 274.407C990.878 303.841 1057.21 333.972 1131.58 354.947C1156.4 361.955 1182.48 368.488 1209.1 374.366C1242.82 381.758 1274.51 387.64 1306 392.347C1354.34 399.574 1414.5 408.57 1473.95 399.104C1505.14 394.136 1529.94 384.703 1549.77 370.265C1586.59 343.444 1600.37 305.199 1612.52 271.455C1617.41 257.897 1622.02 245.091 1627.71 234.575C1629.81 230.685 1631.93 226.666 1633.97 222.778C1641.96 207.573 1650.22 191.848 1661.53 176.769C1673.82 160.238 1688.62 145.808 1705.51 133.887C1724.57 120.434 1745.95 110.468 1769.05 104.265C1784.06 100.237 1799.51 97.4445 1816.32 95.726C1838.96 93.4124 1864.09 93.49 1890.99 95.9567C1914.56 98.1172 1940.32 102.19 1967.57 108.066C2012.95 117.849 2056.83 133.108 2094.47 152.195C2136.52 173.462 2173.18 199.897 2203.43 230.769C2230.76 258.66 2252.07 289.256 2266.76 321.707L2265.45 321.893C2234.32 253.131 2173.28 193.064 2093.57 152.756C2056.05 133.731 2012.31 118.521 1967.09 108.771C1908.47 96.1335 1859.24 92.1079 1816.57 96.4699C1799.88 98.1755 1784.53 100.948 1769.63 104.946C1714.66 119.705 1681.18 152.307 1662.77 177.06C1651.5 192.1 1643.24 207.804 1635.26 222.99C1633.22 226.877 1631.1 230.899 1629 234.793C1623.33 245.274 1618.72 258.063 1613.85 271.604C1608 287.838 1601.37 306.237 1591.75 323.486C1580.72 343.25 1567.34 358.701 1550.84 370.724C1541.3 377.676 1530.33 383.593 1518.24 388.31C1505.24 393.384 1490.46 397.261 1474.32 399.831C1455.85 402.774 1437.31 403.945 1419.09 403.945Z" fill="#FFE492"/>
<path d="M1443.17 407.759C1429.7 407.759 1415.59 407.026 1400.68 405.562C1371.32 402.679 1343.22 397.448 1318.42 392.836C1287.16 387.021 1254.52 379.787 1221.42 371.337C1194.93 364.536 1168.98 357.106 1144.3 349.249C1073.45 326.723 1012.41 296.771 945.635 262.802C939.701 259.783 933.674 256.704 927.848 253.724C904.903 241.997 881.179 229.87 857.008 218.412C799.892 191.395 738.091 174.281 673.32 167.545C591.617 159.047 503.125 166.378 410.314 189.338C362.689 201.119 315.915 215.971 275.052 232.292C244.285 244.58 218.958 259.067 192.144 274.407C189.42 275.966 186.684 277.529 183.933 279.099C177.086 283.01 169.711 287.208 162.209 291.41C146.476 300.253 127.303 310.329 104.396 317.99C78.753 326.567 52.4165 330.891 23.8877 331.203C-28.3381 331.779 -81.5003 322.102 -132.913 312.744L-134.87 312.388C-160.043 307.808 -186.672 303.181 -210.847 300.372C-284.535 291.809 -361.333 285.865 -427.087 283.633L-426.998 282.827C-361.175 285.06 -284.308 291.009 -210.554 299.58C-186.31 302.398 -159.635 307.032 -134.423 311.618L-132.466 311.974C-81.165 321.311 -28.1108 330.964 23.8607 330.393C83.8815 329.733 125.334 310.991 161.188 290.835C168.69 286.634 176.057 282.436 182.904 278.527C185.655 276.96 188.391 275.394 191.115 273.837C217.976 258.472 243.349 243.959 274.216 231.63C315.156 215.277 362.018 200.397 409.732 188.594C453.277 177.824 496.128 170.402 537.087 166.538C583.888 162.124 629.813 162.193 673.589 166.745C738.608 173.507 800.636 190.681 857.944 217.791C882.134 229.26 905.87 241.391 928.827 253.125C934.653 256.103 940.679 259.182 946.613 262.2C1013.32 296.137 1074.3 326.056 1145.02 348.543C1169.67 356.388 1195.58 363.807 1222.03 370.599C1255.09 379.037 1287.67 386.26 1318.88 392.067C1367.8 401.17 1428.69 412.497 1488.73 403.818C1520.75 399.188 1545.71 389.699 1565.04 374.804C1601.46 346.741 1612 304.443 1620.47 270.454C1623.76 257.215 1626.88 244.711 1631.1 234.534C1632.43 231.326 1633.78 228.02 1635.07 224.822C1641.82 208.211 1648.79 191.033 1659.26 174.421C1675.41 148.57 1706.1 113.989 1760.57 96.0429C1775.61 91.088 1791.12 87.4397 1808 84.891C1852.16 78.127 1904.73 80.3156 1964.26 91.392C2011.34 100.153 2056.6 114.808 2095.15 133.777C2138.26 154.942 2175.21 181.631 2204.95 213.11C2218.59 227.548 2230.65 242.969 2240.79 258.944C2250.48 274.204 2258.47 290.05 2264.55 306.042L2263.13 306.211C2236.36 235.741 2176.37 174.719 2094.19 134.382C2055.79 115.485 2010.7 100.886 1963.8 92.1575C1904.55 81.1306 1852.26 78.9485 1808.38 85.6694C1791.62 88.1987 1776.23 91.8189 1761.3 96.7372C1707.21 114.558 1676.7 148.963 1660.62 174.686C1650.18 191.255 1643.22 208.409 1636.48 224.999C1635.18 228.197 1633.84 231.505 1632.51 234.715C1628.3 244.858 1625.19 257.345 1621.9 270.564C1617.63 287.667 1612.81 307.052 1604.55 325.347C1595.07 346.37 1582.53 362.703 1566.21 375.278C1556.9 382.452 1546.01 388.502 1533.85 393.259C1520.75 398.384 1505.69 402.201 1489.09 404.598C1474.52 406.707 1459.3 407.759 1443.17 407.759Z" fill="#FFE492"/>
<path d="M1465.37 411.794C1449.22 411.794 1432.2 410.623 1414.01 408.275C1384.54 404.473 1356.19 398.164 1331.17 392.597C1299.68 385.589 1267.06 377.182 1234.23 367.606C1207.91 359.898 1182.13 351.579 1157.61 342.879C1090.14 318.956 1032.26 288.122 970.987 255.481C967.955 253.866 964.922 252.249 961.882 250.632C933.388 235.47 903.927 219.79 873.213 205.3C815.104 177.94 751.43 161.872 683.961 157.542C599.215 152.102 507.783 164.524 412.201 194.459C364.391 209.431 316.4 228.305 277.067 247.601C247.367 262.17 223.546 278.564 198.327 295.921C195.341 297.976 192.347 300.037 189.33 302.103C183.304 306.236 176.133 311.137 168.627 316.151C154.725 325.459 135.783 337.288 112.487 346.187C87.2522 355.827 60.858 360.741 31.7936 361.205C7.90393 361.539 -18.4594 359.475 -48.807 354.893C-74.8621 350.96 -100.066 345.82 -127.955 339.998C-153.413 334.619 -180.281 329.062 -204.386 325.392C-275.789 314.521 -351.211 305.001 -428.552 297.092L-428.274 296.245C-350.887 304.156 -275.423 313.684 -203.982 324.56C-179.811 328.241 -152.904 333.806 -127.415 339.19C-80.6688 348.951 -22.4898 361.103 31.7512 360.342C93.764 359.35 133.617 338.25 167.444 315.594C174.946 310.585 182.113 305.687 188.136 301.555C191.153 299.49 194.147 297.428 197.129 295.376C222.39 277.99 246.253 261.568 276.05 246.951C315.464 227.617 363.547 208.707 411.45 193.706C507.321 163.681 599.068 151.227 684.138 156.686C716.755 158.78 748.795 163.642 779.358 171.137C812.152 179.178 844.064 190.452 874.207 204.642C904.956 219.147 934.436 234.836 962.946 250.009C965.986 251.628 969.022 253.243 972.055 254.858C1033.27 287.471 1091.09 318.275 1158.44 342.152C1182.93 350.84 1208.67 359.148 1234.94 366.843C1267.73 376.404 1300.3 384.8 1331.75 391.797C1381.17 402.794 1442.68 416.479 1503.49 408.542C1536.44 404.243 1561.57 394.695 1580.3 379.356C1616.39 350.057 1622.82 305.301 1627.99 269.339C1629.84 256.478 1631.58 244.33 1634.48 234.506C1635.07 232.479 1635.67 230.441 1636.27 228.393C1641.67 209.891 1647.26 190.756 1656.97 172.084C1670.83 145.226 1698.58 108.808 1752.07 87.832C1766.99 81.98 1782.55 77.4779 1799.66 74.0667C1823.44 69.2821 1849.94 67.0332 1878.42 67.3782C1904.42 67.693 1932.18 70.1662 1960.93 74.7265C2009.7 82.4609 2056.34 96.5129 2095.8 115.362C2139.98 136.424 2177.21 163.373 2206.45 195.455C2219.86 210.175 2231.48 225.913 2240.98 242.232C2250.07 257.86 2257.25 274.062 2262.31 290.386L2260.8 290.533C2238.73 219.397 2178.23 155.789 2094.8 116.018C2055.51 97.2503 2009.07 83.2565 1960.5 75.5524C1900.62 66.0521 1845.18 65.8192 1800.17 74.8753C1783.2 78.2606 1767.75 82.7282 1752.94 88.5349C1699.83 109.366 1672.24 145.597 1658.45 172.321C1648.76 190.944 1643.18 210.05 1637.79 228.529C1637.19 230.577 1636.59 232.617 1635.99 234.644C1633.11 244.431 1631.37 256.564 1629.52 269.406C1624.34 305.471 1617.89 350.357 1581.57 379.843C1572.54 387.237 1561.74 393.425 1549.47 398.231C1536.27 403.402 1520.92 407.153 1503.85 409.383C1491.52 410.987 1478.75 411.794 1465.37 411.794Z" fill="#FFE492"/>
<path d="M1486.22 415.996C1467.83 415.996 1448.34 414.332 1427.33 410.989C1397.62 406.261 1369.09 398.876 1343.92 392.362C1312.12 384.13 1279.52 374.545 1247.02 363.881C1220.9 355.277 1195.29 346.068 1170.92 336.514C1110.9 312.994 1059.6 284.181 1005.29 253.675C996.411 248.687 987.229 243.532 978.12 238.463C946.1 220.652 918.758 205.966 889.409 192.19C830.263 164.468 764.72 149.446 694.596 147.54C606.482 145.144 512.099 162.653 414.074 199.578C365.378 217.923 317.429 240.412 279.063 262.905C250.161 279.851 227.566 298.297 203.645 317.826C200.682 320.245 197.708 322.673 194.714 325.103C189.381 329.44 182.322 335.153 175.036 340.883C144.372 365.049 104.311 389.93 39.6892 391.202C37.674 391.239 35.6511 391.256 33.632 391.256C-16.829 391.256 -68.3459 380.08 -121.049 367.602L-124.34 366.817C-150.445 360.582 -175.106 354.693 -197.932 350.406C-283.954 334.252 -367.147 320.616 -430.016 310.543L-429.565 309.661C-366.681 319.739 -283.464 333.377 -197.412 349.538C-174.524 353.835 -149.837 359.732 -123.697 365.974L-120.41 366.759C-65.7758 379.694 -12.4211 391.232 39.6314 390.288C103.536 389.029 143.262 364.34 173.698 340.354C180.981 334.63 188.032 328.92 193.365 324.586C196.359 322.154 199.33 319.728 202.293 317.309C226.252 297.75 248.881 279.273 277.877 262.274C316.32 239.733 364.365 217.198 413.157 198.816C458.444 181.757 503.745 168.658 547.802 159.88C598.352 149.808 647.769 145.349 694.673 146.623C765.159 148.538 831.033 163.634 890.457 191.485C919.849 205.283 947.218 219.984 979.268 237.809C988.381 242.879 997.563 248.036 1006.44 253.024C1060.7 283.499 1111.95 312.285 1171.85 335.757C1196.19 345.301 1221.76 354.495 1247.85 363.085C1280.3 373.737 1312.85 383.306 1344.61 391.525C1394.46 404.43 1456.5 420.49 1518.25 413.26C1552.01 409.308 1577.29 399.704 1595.55 383.901C1631.19 353.268 1633.33 305.993 1635.05 268.007C1635.61 255.613 1636.14 243.905 1637.84 234.471L1637.88 234.256C1641.69 213.132 1645.64 191.289 1654.67 169.738C1662.5 150.94 1673.4 134.04 1687.06 119.502C1702.48 103.113 1721.48 89.6929 1743.55 79.6126C1758.32 72.868 1773.94 67.5098 1791.3 63.2341C1838.22 51.6143 1895.72 49.8203 1957.58 58.0506C1982.47 61.3625 2007.03 66.38 2030.57 72.9607C2054.25 79.5803 2076.41 87.651 2096.45 96.9442C2141.7 117.905 2179.22 145.107 2207.95 177.798C2233.77 207.18 2251.8 240.699 2260.08 274.726L2258.46 274.849C2240.73 202.021 2181.3 137.434 2095.4 97.6493C2055.23 79.0154 2007.44 65.6296 1957.21 58.9475C1895.7 50.7647 1838.56 52.5393 1791.97 64.0793C1774.74 68.3227 1759.25 73.6378 1744.59 80.3285C1703.39 99.15 1672.85 130.141 1656.27 169.951C1647.26 191.447 1643.32 213.259 1639.52 234.353L1639.48 234.569C1637.78 243.967 1637.25 255.658 1636.69 268.035C1634.96 306.137 1632.81 353.555 1596.92 384.403C1588.12 392.023 1577.4 398.345 1565.06 403.193C1551.75 408.419 1536.12 412.109 1518.59 414.163C1508.15 415.384 1497.38 415.996 1486.22 415.996Z" fill="#FFE492"/>
<path d="M40.8873 421.273C18.3232 421.273 -6.24844 418.813 -33.9797 413.789C-61.5337 408.798 -88.7833 401.906 -114.129 395.205C-118.719 393.984 -123.273 392.766 -127.797 391.557C-150.314 385.534 -171.584 379.846 -191.462 375.415C-270.726 357.754 -346.279 341.88 -419.346 326.532L-431.453 323.987L-430.844 323.08L-418.738 325.624C-345.666 340.976 -270.102 356.85 -190.823 374.516C-170.89 378.958 -149.594 384.652 -127.049 390.683C-122.529 391.893 -117.975 393.111 -113.39 394.329C-61.3603 408.086 -6.08276 421.418 47.5302 420.23C113.435 418.695 152.93 389.965 179.971 365.111C186.899 358.754 193.573 352.419 198.613 347.611C201.395 344.961 204.158 342.313 206.913 339.672C229.762 317.775 251.343 297.093 279.726 277.592C317.19 251.856 365.189 225.692 414.887 203.925C460.994 183.73 507.521 167.774 553.181 156.502C605.553 143.571 656.708 136.861 705.223 136.557C778.225 135.949 846.029 150.003 906.724 178.325C940.37 194.044 970.537 211.047 995.613 225.608C1009.26 233.532 1022.9 241.655 1036.1 249.51C1082.81 277.318 1131.11 306.072 1185.29 329.361C1209.48 339.767 1234.88 349.849 1260.77 359.326C1292.81 371.027 1325.35 381.77 1357.48 391.253C1407.71 406.074 1470.22 424.521 1533.03 417.974C1567.59 414.371 1593.03 404.712 1610.81 388.443C1645.97 356.421 1643.6 306.557 1641.69 266.49C1641.13 254.642 1640.59 243.449 1641.23 234.438C1642.68 214.124 1644.86 190.516 1652.4 167.393C1658.75 147.799 1668.35 130.073 1680.91 114.708C1695.13 97.3268 1713.35 82.7551 1735.06 71.3962C1749.44 63.8689 1765.56 57.4801 1782.97 52.4043C1807.81 45.1379 1835.68 40.5689 1865.81 38.8267C1894.03 37.1944 1923.79 38.0526 1954.25 41.3753C1979.94 44.1784 2005.25 48.7884 2029.5 55.0802C2053.9 61.4108 2076.65 69.2982 2097.11 78.5225C2120.7 89.144 2142.39 101.687 2161.57 115.803C2179.75 129.178 2195.86 144.095 2209.46 160.137C2234.9 190.149 2251.64 224.36 2257.86 259.064L2256.14 259.161C2242.76 184.636 2184.4 119.072 2096.02 79.2793C2055.55 61.0335 2005.08 47.9108 1953.91 42.3284C1890.65 35.4264 1831.82 39.2083 1783.77 53.2647C1766.5 58.2994 1750.51 64.6387 1736.24 72.1056C1695.34 93.5081 1667.7 125.625 1654.1 167.567C1646.57 190.628 1644.41 214.195 1642.96 234.477C1642.32 243.455 1642.86 254.631 1643.42 266.464C1644.36 286.23 1645.43 308.635 1641.85 330.294C1637.7 355.427 1628.03 374.613 1612.29 388.95C1603.72 396.794 1593.08 403.252 1580.66 408.142C1567.25 413.425 1551.33 417.054 1533.35 418.927C1524.27 419.874 1515.2 420.303 1506.19 420.303C1452.22 420.303 1399.92 404.869 1356.68 392.109C1324.5 382.611 1291.91 371.853 1259.83 360.134C1233.9 350.645 1208.47 340.547 1184.23 330.126C1129.95 306.79 1081.6 278.006 1034.84 250.172C1021.65 242.319 1008 234.199 994.369 226.279C969.327 211.735 939.203 194.755 905.619 179.067C845.251 150.896 777.844 136.923 705.25 137.523C591.247 138.239 485.007 174.439 415.958 204.684C366.36 226.408 318.458 252.516 281.074 278.2C252.777 297.643 231.226 318.293 208.411 340.155C205.656 342.796 202.89 345.444 200.108 348.096C195.064 352.907 188.387 359.246 181.455 365.609C170.103 376.043 152.282 391.231 128.678 402.616C117.215 408.144 105.016 412.489 92.4196 415.531C78.3748 418.923 63.2935 420.829 47.6034 421.194C45.3801 421.248 43.1414 421.273 40.8873 421.273Z" fill="#FFE492"/>
<path d="M48.132 451.292C25.5408 451.292 1.01929 448.642 -26.5655 443.234C-55.1252 437.637 -83.3612 429.767 -107.212 422.804C-114.541 420.661 -121.854 418.488 -128.929 416.385C-148.703 410.51 -167.383 404.957 -184.996 400.425C-248.246 384.146 -311.083 368.252 -371.855 352.881C-391.957 347.796 -412.741 342.54 -432.886 337.434L-432.131 336.5C-411.986 341.606 -391.202 346.863 -371.1 351.947C-310.328 367.319 -247.483 383.214 -184.229 399.496C-166.57 404.041 -147.867 409.598 -128.069 415.482C-120.999 417.584 -113.686 419.755 -106.365 421.899C-56.8976 436.332 0.479828 451.611 55.4221 450.173C122.88 448.366 160.768 416.996 186.245 389.868C192.776 382.919 199.091 375.941 203.862 370.639C206.312 367.918 208.747 365.199 211.179 362.487C233.034 338.089 253.675 315.046 281.58 292.917C317.873 264.136 365.833 234.348 416.618 209.04C487.343 173.948 596.653 131.143 715.77 126.5C791.523 123.469 861.246 136.479 922.993 165.174C950.736 178.073 978.171 192.95 1011.96 213.419C1029.03 223.763 1045.97 234.483 1062.35 244.848C1104.98 271.816 1149.05 299.702 1198.72 322.978C1222.78 334.258 1248 345.226 1273.7 355.58C1304.81 368.106 1337.33 380.021 1370.36 390.996C1421.1 407.752 1484.24 428.609 1547.8 422.705C1582.64 419.536 1608.98 409.542 1626.07 393.003C1660.75 359.533 1653.31 304.774 1647.87 264.791C1646.34 253.57 1644.9 242.972 1644.62 234.423C1643.99 215.422 1644.04 190.369 1650.12 165.066C1660.61 121.22 1686.33 86.9448 1726.57 63.1985C1740.67 54.8325 1756.85 47.5639 1774.64 41.5933C1799.94 33.0893 1828.5 27.3688 1859.51 24.5938C1888.73 21.9805 1919.48 22.0214 1950.91 24.7167C1977.43 27.0411 2003.51 31.2543 2028.42 37.2356C2053.58 43.2773 2076.91 50.975 2097.77 60.1152C2121.89 70.6763 2143.92 83.2621 2163.25 97.5254C2181.58 111.043 2197.63 126.171 2210.97 142.493C2236.02 173.137 2251.46 208.037 2255.65 243.421L2253.82 243.488C2244.82 167.261 2187.53 100.719 2096.65 60.9237C2055.44 42.8698 2003.59 30.3703 1950.64 25.7301C1885.36 20.1348 1824.83 25.9242 1775.58 42.4731C1757.94 48.394 1741.9 55.6044 1727.9 63.9036C1687.93 87.4925 1662.37 121.574 1651.94 165.204C1645.88 190.438 1645.83 215.442 1646.46 234.406C1646.74 242.925 1648.18 253.51 1649.7 264.716C1652.51 285.383 1655.69 308.81 1653.87 331.681C1651.75 358.312 1643.18 378.54 1627.66 393.519C1619.31 401.598 1608.75 408.196 1596.27 413.129C1582.74 418.479 1566.53 422.041 1548.1 423.719C1519.51 426.373 1488.74 423.988 1454.03 416.426C1423.85 409.852 1394.94 400.304 1369.44 391.882C1336.36 380.892 1303.79 368.96 1272.63 356.417C1246.9 346.048 1221.64 335.064 1197.55 323.77C1147.78 300.446 1103.66 272.53 1060.99 245.534C1044.61 235.171 1027.67 224.457 1010.61 214.122C976.888 193.69 949.503 178.84 921.826 165.972C860.445 137.441 791.165 124.508 715.893 127.52C597.289 132.145 488.341 174.819 417.828 209.806C367.143 235.061 319.283 264.787 283.067 293.507C255.24 315.574 234.629 338.585 212.809 362.946C210.377 365.661 207.942 368.38 205.491 371.101C200.717 376.407 194.398 383.391 187.859 390.347C162.159 417.716 123.889 449.367 55.5031 451.197C53.0717 451.26 50.6095 451.292 48.132 451.292Z" fill="#FFE492"/>
<path d="M55.5221 481.308C-6.2056 481.308 -70.9735 460.093 -128.389 441.285C-146.033 435.506 -162.698 430.046 -178.535 425.43L-434.319 350.875L-433.429 349.92L-177.645 424.475C-161.766 429.102 -145.081 434.568 -127.415 440.355C-67.7792 459.89 -0.183105 482.033 63.3132 480.114C132.258 478.033 168.578 444.021 192.518 414.625C200.347 405.011 207.907 395.228 215.22 385.766C235.222 359.892 255.902 333.136 283.425 308.234C305.28 288.461 332.43 267.725 361.937 248.269C394.308 226.925 428.967 207.342 464.944 190.067C504.612 171.021 544.948 155.266 584.824 143.241C628.931 129.941 672.383 121.258 713.982 117.431C797.314 109.765 873.106 121.398 939.246 152.01C994.211 177.447 1040.93 208.901 1086.11 239.321C1125.43 265.799 1166.09 293.177 1212.14 316.58C1265.32 343.61 1322.89 368.556 1383.23 390.719C1434.07 409.394 1497.35 432.638 1562.56 427.414C1617.64 423.002 1649.49 402.38 1659.92 364.366C1668.78 332.032 1660.35 293.675 1653.57 262.856C1651.26 252.353 1649.08 242.433 1648 234.388C1642.09 190.039 1645.86 153.429 1659.52 122.468C1668.05 103.15 1680.62 85.9307 1696.9 71.2878C1715.08 54.9309 1738.43 41.295 1766.29 30.7598C1790.39 21.6455 1817.55 15.0259 1847.02 11.0844C1875.08 7.33255 1904.62 6.07548 1934.82 7.34765C1994.22 9.84885 2052.32 22.0444 2098.42 41.6853C2123.06 52.1838 2145.44 64.8149 2164.92 79.2248C2183.38 92.8823 2199.38 108.224 2212.47 124.826C2237.12 156.102 2251.27 191.695 2253.4 227.753L2251.48 227.79C2246.93 151.003 2189.28 81.7519 2097.25 42.5456C1999.51 0.909205 1860.78 -3.67273 1767.36 31.6546C1674.82 66.6498 1636.41 132.938 1649.92 234.308C1650.99 242.327 1653.17 252.235 1655.48 262.725C1662.27 293.61 1670.73 332.049 1661.81 364.53C1656.96 382.222 1647.2 396.44 1632.82 406.792C1624.73 412.611 1614.98 417.368 1603.83 420.926C1591.96 424.712 1578.17 427.254 1562.83 428.483C1556.57 428.986 1550.19 429.238 1543.7 429.238C1520.07 429.238 1494.9 425.894 1467.32 419.119C1436.25 411.486 1406.26 400.472 1382.17 391.623C1321.74 369.427 1264.1 344.449 1210.84 317.38C1164.69 293.927 1123.98 266.517 1084.61 240.011C1039.49 209.63 992.836 178.214 938.009 152.842C872.312 122.44 797.041 110.882 714.283 118.496C546.878 133.896 374.433 227.941 285.051 308.803C257.601 333.636 236.948 360.356 216.974 386.196C209.656 395.661 202.093 405.451 194.255 415.074C178.361 434.59 162.663 448.564 144.854 459.047C133.738 465.589 121.677 470.747 109.008 474.376C94.9208 478.41 79.5775 480.704 63.4019 481.194C60.7894 481.269 58.1577 481.308 55.5221 481.308Z" fill="#FFE492"/>
</g>
</svg>
